<?xml version="1.0" standalone="no"?>
<!DOCTYPE svg PUBLIC "-//W3C//DTD SVG 20010904//EN"
 "http://www.w3.org/TR/2001/REC-SVG-20010904/DTD/svg10.dtd">
<svg version="1.0" xmlns="http://www.w3.org/2000/svg"
 width="500.000000pt" height="500.000000pt" viewBox="0 0 500.000000 500.000000"
 preserveAspectRatio="xMidYMid meet">

<g transform="translate(0.000000,500.000000) scale(0.100000,-0.100000)"
fill="#000000" stroke="none">
<path d="M885 4791 c-139 -20 -250 -75 -350 -175 -74 -74 -129 -160 -161 -256
-29 -85 -27 -273 4 -362 36 -105 81 -177 152 -248 128 -128 283 -187 465 -177
114 7 167 21 264 72 130 68 237 198 287 348 37 108 39 255 6 361 -66 206 -217
357 -417 415 -82 23 -179 32 -250 22z m224 -78 c183 -50 323 -189 386 -383 24
-74 24 -226 0 -300 -109 -335 -471 -492 -782 -340 -77 38 -188 144 -230 220
-96 173 -90 403 15 566 134 207 378 301 611 237z"/>
<path d="M776 4498 c-24 -33 -24 -613 0 -646 15 -21 21 -22 188 -22 120 0 176
4 184 12 17 17 17 649 0 666 -8 8 -64 12 -184 12 -167 0 -173 -1 -188 -22z
m264 -18 c0 -6 -31 -10 -74 -10 -41 0 -78 5 -81 10 -4 6 23 10 74 10 47 0 81
-4 81 -10z m80 -265 l0 -225 -160 0 -160 0 0 225 0 225 160 0 160 0 0 -225z
m-132 -292 c13 -26 4 -43 -24 -43 -29 0 -41 24 -24 45 17 20 37 19 48 -2z"/>
<path d="M4020 4760 c-119 -17 -224 -72 -316 -164 -114 -114 -167 -241 -167
-401 0 -160 53 -287 167 -401 114 -114 241 -167 401 -167 160 0 287 53 401
167 114 114 167 241 167 401 0 160 -53 287 -167 401 -130 130 -308 190 -486
164z m240 -159 c109 -41 208 -140 252 -251 31 -78 31 -232 0 -310 -44 -110
-142 -208 -252 -252 -44 -17 -76 -22 -155 -22 -116 0 -178 20 -260 82 -287
218 -201 669 145 767 73 20 197 14 270 -14z"/>
<path d="M1457 3740 c-72 -22 -78 -111 -10 -138 20 -8 189 -11 583 -8 305 2
563 4 572 5 26 2 58 41 58 70 -1 35 -21 60 -56 69 -41 11 -1113 13 -1147 2z"/>
<path d="M2190 3520 c-207 -20 -270 -39 -349 -106 -41 -36 -72 -85 -84 -135
-6 -22 -14 -27 -47 -32 -46 -6 -68 -21 -81 -54 -5 -13 -20 -27 -33 -33 -47
-18 -56 -45 -56 -173 0 -158 16 -186 103 -187 l47 0 0 178 c0 184 4 202 42
202 17 0 18 -15 18 -219 l0 -220 -27 8 c-37 11 -1050 10 -1087 0 -35 -10 -55
-36 -55 -69 0 -33 20 -59 55 -69 36 -10 1049 -11 1086 0 l27 7 3 -370 3 -370
24 -19 c17 -14 39 -19 81 -19 l58 0 4 -101 c3 -99 3 -101 36 -130 29 -26 39
-29 105 -29 117 0 147 37 147 180 l0 80 329 0 329 0 4 -101 c3 -99 3 -101 36
-130 29 -26 39 -29 106 -29 117 0 146 37 146 188 l0 72 63 0 c34 0 67 4 73 8
33 21 34 50 34 691 0 611 1 641 18 641 38 0 42 -18 42 -202 l0 -178 48 0 c87
1 102 29 102 188 0 106 -2 122 -21 146 -11 14 -26 26 -34 26 -7 0 -22 16 -34
35 -21 36 -54 55 -96 55 -19 0 -26 7 -31 28 -13 51 -43 100 -85 136 -105 90
-193 105 -634 111 -176 2 -363 0 -415 -5z m588 -144 c2 -32 -1 -52 -10 -57
-15 -10 -428 -12 -452 -3 -12 4 -16 20 -16 53 0 26 3 51 7 55 4 3 110 5 237 4
l231 -3 3 -49z m-20 -570 c1 -286 -1 -423 -8 -430 -18 -18 -377 -13 -510 8
-119 18 -352 71 -382 87 -17 9 -18 37 -18 374 0 336 1 365 18 374 11 7 170 10
457 8 l440 -2 3 -419z m461 410 c8 -9 11 -117 9 -377 l-3 -363 -45 -17 c-55
-21 -260 -66 -315 -71 l-40 -3 -3 410 c-1 225 0 416 3 422 7 19 378 18 394 -1z
m-1294 -973 c99 -57 185 -120 185 -135 0 -12 -240 -1 -277 13 -21 8 -23 15
-23 82 0 106 2 106 115 40z m1343 -36 c3 -73 2 -78 -20 -86 -39 -15 -278 -25
-278 -12 0 23 252 184 280 179 12 -3 16 -20 18 -81z m-1378 -201 c6 -8 10 -25
8 -38 -4 -30 -46 -38 -65 -12 -17 23 -16 29 3 48 19 20 38 20 54 2z m820 -26
l0 -40 -170 0 -170 0 0 33 c0 19 3 37 7 40 3 4 80 7 170 7 l163 0 0 -40z"/>
<path d="M394 3378 c-32 -9 -53 -35 -54 -69 0 -29 32 -68 58 -70 69 -5 1026
-8 1060 -4 65 9 97 55 76 110 -17 43 -33 44 -588 42 -289 -1 -538 -5 -552 -9z"/>
<path d="M835 2219 c-74 -20 -73 -117 1 -137 16 -5 122 -9 236 -11 169 -2 213
1 236 13 60 31 57 102 -6 135 -25 13 -417 13 -467 0z"/>
</g>
</svg>
