<svg version="1.1" id="Layer_1" xmlns="http://www.w3.org/2000/svg" xmlns:xlink="http://www.w3.org/1999/xlink" x="0px" y="0px"
	 width="100%" viewBox="0 0 500 500" enable-background="new 0 0 500 500" xml:space="preserve">
<path fill="#FFFFFF" opacity="0.000000" stroke="none" 
	d="
M501.000000,185.000000 
	C501.000000,290.666656 501.000000,395.833282 501.000000,500.999939 
	C334.333405,500.999969 167.666794,500.999969 1.000146,501.000000 
	C1.000097,334.333435 1.000097,167.666870 1.000049,1.000235 
	C167.666519,1.000157 334.333038,1.000157 500.999786,1.000078 
	C501.000000,62.166668 501.000000,123.333336 501.000000,185.000000 
M127.081291,149.011185 
	C125.176697,149.011185 123.272102,149.011185 121.155937,149.011185 
	C121.155937,152.898285 121.155937,156.438568 120.919006,160.504471 
	C120.610237,160.723404 120.301468,160.942337 119.109993,161.007675 
	C111.543777,161.337051 103.979362,161.889481 96.410973,161.950836 
	C78.944817,162.092453 61.476704,161.983551 44.009418,162.002655 
	C38.135395,162.009079 35.026134,164.740265 34.995792,169.807617 
	C34.963188,175.251999 37.982395,177.993454 44.123699,177.998535 
	C62.921841,178.014084 81.720009,177.999146 100.518150,178.014206 
	C101.951012,178.015350 103.383759,178.158844 105.157578,178.254562 
	C105.157578,183.389038 105.157578,188.189850 105.034195,193.744003 
	C104.686928,194.880859 104.339661,196.017715 103.094810,197.003418 
	C101.159554,197.003418 99.224297,197.003418 96.905991,197.003418 
	C96.905991,206.527451 96.905991,215.608337 96.905991,224.991867 
	C87.222763,224.991867 77.929588,224.986328 68.636429,224.993744 
	C61.977657,224.999054 58.958279,227.573837 58.991840,233.191574 
	C59.023174,238.437485 62.132824,240.999100 68.519890,241.005646 
	C77.945000,241.015274 87.370117,241.008133 96.697189,241.008133 
	C96.697189,253.662537 96.697189,265.729034 96.697189,277.999634 
	C91.438560,277.999634 86.472176,277.999634 81.582184,277.999634 
	C78.764725,286.048889 78.764725,286.048889 81.712593,294.210602 
	C89.314857,294.210602 97.066071,294.210602 105.165970,294.210602 
	C105.165970,299.368378 105.165970,304.132538 105.165970,308.848938 
	C107.685097,308.848938 109.837494,308.848938 112.600151,309.227142 
	C112.785278,310.156616 112.970406,311.086090 113.011177,312.939606 
	C113.011177,316.941711 113.011177,320.943787 113.011177,324.841400 
	C115.760567,324.841400 117.874741,324.841400 120.509727,325.085327 
	C120.725006,325.395386 120.940285,325.705444 121.011200,326.933350 
	C121.011200,330.271942 121.011200,333.610535 121.011200,336.844177 
	C123.767029,336.844177 125.875954,336.844177 128.507751,337.085236 
	C128.723740,337.395264 128.939728,337.705292 129.011215,338.922852 
	C129.011215,341.600800 129.011215,344.278748 129.011215,346.843994 
	C131.778488,346.843994 133.881805,346.843994 136.507767,347.085083 
	C136.723953,347.394867 136.940140,347.704651 137.011520,348.912323 
	C137.011520,351.261292 137.011520,353.610291 137.011520,355.841370 
	C139.787140,355.841370 141.888046,355.841370 144.594971,356.206146 
	C149.214493,360.381592 153.680908,364.745300 158.505905,368.668030 
	C161.869232,371.402374 165.651947,373.651276 169.375153,375.905914 
	C176.067032,379.958344 182.637726,384.305939 189.669724,387.672302 
	C195.576981,390.500244 202.028671,392.233612 208.312195,394.221100 
	C214.845123,396.287506 221.355499,398.877045 228.073349,399.801025 
	C238.177399,401.190735 248.446701,401.489746 258.659760,401.919617 
	C262.575836,402.084442 266.548523,401.474426 270.463440,400.969543 
	C277.153290,400.106812 283.919800,399.485962 290.467102,397.960663 
	C298.494385,396.090637 306.497528,393.840790 314.200470,390.932343 
	C322.004028,387.985931 329.519012,384.215271 336.984161,380.455658 
	C341.261047,378.301636 345.395782,375.727386 349.216919,372.842285 
	C353.696899,369.459656 357.766724,365.533875 362.906647,361.988708 
	C364.849213,361.988708 366.791779,361.988708 368.994385,361.988708 
	C368.994385,359.412323 368.994385,357.281250 369.505310,354.999786 
	C369.675079,354.947784 369.844818,354.895782 370.910126,354.988831 
	C372.812256,354.988831 374.714386,354.988831 376.843903,354.988831 
	C376.843903,352.109619 376.843903,349.562195 377.085083,346.492157 
	C377.394897,346.276031 377.704712,346.059875 378.911774,345.988831 
	C380.814911,345.988831 382.718079,345.988831 384.844086,345.988831 
	C384.844086,342.772705 384.844086,339.893860 384.983643,336.372040 
	C385.327271,335.862610 385.670898,335.353180 386.913452,334.988831 
	C388.817963,334.988831 390.722443,334.988831 392.844727,334.988831 
	C392.844727,331.436798 392.844727,328.226379 392.983734,324.372620 
	C393.327393,323.863037 393.671082,323.353455 394.915558,322.988892 
	C396.823944,322.988892 398.732330,322.988892 400.844879,322.988892 
	C400.844879,318.427704 400.844879,314.221924 400.983673,309.373108 
	C401.326141,308.862518 401.668610,308.351959 402.912292,307.988770 
	C404.826355,307.988770 406.740417,307.988770 408.845276,307.988770 
	C408.845276,301.748932 408.845276,295.882812 408.965393,289.259216 
	C409.313934,288.119934 409.662476,286.980652 410.912262,285.988770 
	C412.841827,285.988770 414.771393,285.988770 416.727600,285.988770 
	C416.727600,256.734528 416.727600,227.921509 416.727600,199.158600 
	C414.306641,199.158600 412.158875,199.158600 409.376404,198.736115 
	C409.199158,197.485458 409.021942,196.234787 408.988861,194.055176 
	C408.988861,188.719879 408.988861,183.384583 408.988861,178.158585 
	C406.254578,178.158585 404.132843,178.158585 401.439789,177.833694 
	C401.241455,177.217117 401.043121,176.600555 400.988770,175.058884 
	C400.988770,170.722260 400.988770,166.385651 400.988770,162.158585 
	C398.243835,162.158585 396.127472,162.158585 393.490265,161.914658 
	C393.274994,161.604599 393.059723,161.294540 392.988800,160.066650 
	C392.988800,156.728058 392.988800,153.389481 392.988800,150.155884 
	C390.232452,150.155884 388.123749,150.155884 385.492188,149.914795 
	C385.276245,149.604736 385.060272,149.294693 384.988800,148.077148 
	C384.988800,145.399185 384.988800,142.721222 384.988800,140.156067 
	C382.220978,140.156067 380.117889,140.156067 377.492065,139.914780 
	C377.276123,139.604767 377.060211,139.294739 376.988953,138.085373 
	C376.988953,136.147964 376.988953,134.210556 376.988953,132.142090 
	C379.768616,132.142090 382.061554,132.142090 384.571838,132.142090 
	C384.885284,133.410950 385.208466,134.719070 385.276337,134.993820 
	C404.145386,141.506912 422.270355,139.135574 440.751312,134.133926 
	C440.884460,133.592682 441.207001,132.281662 441.571686,130.799393 
	C444.148224,130.799393 446.428680,130.799393 449.073853,130.799393 
	C449.073853,128.802689 449.073853,127.055939 449.073853,124.935295 
	C451.850403,124.935295 454.277100,124.935295 457.062256,124.935295 
	C457.062256,121.808380 457.062256,119.059532 457.062256,115.938408 
	C459.853699,115.938408 462.264313,115.938408 465.055786,115.938408 
	C465.055786,110.812943 465.055786,106.056015 465.055786,100.938057 
	C467.852814,100.938057 470.262482,100.938057 472.780029,100.938057 
	C472.780029,87.813370 472.780029,75.071388 472.780029,61.948887 
	C470.163818,61.948887 467.749908,61.948887 464.956085,61.948887 
	C464.956085,56.827190 464.956085,52.069241 464.956085,46.950996 
	C462.157288,46.950996 459.745209,46.950996 456.957886,46.950996 
	C456.957886,43.828156 456.957886,41.078854 456.957886,37.959919 
	C454.160339,37.959919 451.742310,37.959919 448.962555,37.959919 
	C448.962555,35.845692 448.962555,34.093231 448.962555,31.975601 
	C446.179504,31.975601 443.748444,31.975601 441.359253,31.975601 
	C441.039764,30.405001 440.794861,29.201002 440.725220,28.858534 
	C421.985992,23.648283 403.706238,21.628494 385.163605,27.983479 
	C385.040222,28.594540 384.797180,29.798471 384.522034,31.161491 
	C381.944122,31.161491 379.652832,31.161491 377.306061,31.161491 
	C377.051147,32.901047 376.825592,34.440346 376.549561,36.323849 
	C373.850739,36.323849 371.443390,36.323849 368.670227,36.323849 
	C368.670227,38.803482 368.670227,40.879395 368.670227,43.142555 
	C365.991394,43.142555 363.701782,43.142555 361.463257,43.142555 
	C361.006836,47.371914 360.945160,51.475594 360.034821,55.381481 
	C359.132568,59.252636 357.164856,62.862259 356.030884,66.695007 
	C352.185577,79.692039 353.694733,92.275909 358.868317,104.691681 
	C360.415070,108.403564 360.787231,112.604897 361.828796,117.155411 
	C358.308502,117.155411 356.162109,117.155411 353.378632,116.830132 
	C349.563080,113.576523 345.996490,109.952667 341.862335,107.172913 
	C337.687073,104.365532 332.959717,102.374451 328.454285,100.064644 
	C325.119934,98.355232 321.876526,96.359200 318.369537,95.124428 
	C314.277557,93.683685 309.972748,92.787521 305.708038,91.908585 
	C292.607788,89.208702 279.588135,85.630554 266.343018,84.231369 
	C244.869217,81.962936 223.998352,87.140236 203.279358,92.164444 
	C200.036469,92.950836 197.032684,94.773170 193.963089,96.211922 
	C189.963333,98.086624 186.015686,100.072174 182.031845,101.981270 
	C178.118744,103.856468 173.947815,105.322578 170.332306,107.654091 
	C166.606674,110.056610 163.414688,113.286674 159.093887,116.007248 
	C157.153259,116.007248 155.212646,116.007248 153.245621,116.007248 
	C153.245621,113.763748 153.245621,112.021301 153.245621,109.902267 
	C155.894363,109.902267 158.306747,109.902267 160.759583,109.902267 
	C160.759583,91.764160 160.759583,74.016701 160.759583,55.887741 
	C158.112701,55.887741 155.699707,55.887741 152.905548,55.887741 
	C152.905548,51.426529 152.905548,47.332684 152.905548,42.884193 
	C150.102905,42.884193 147.685486,42.884193 144.895905,42.884193 
	C144.895905,40.090549 144.895905,37.674343 144.895905,34.891682 
	C142.097092,34.891682 139.672623,34.891682 136.895691,34.891682 
	C136.895691,33.103966 136.895691,31.693901 136.895691,29.911751 
	C134.114700,29.911751 131.691864,29.911751 128.915146,29.911751 
	C128.915146,28.120262 128.915146,26.709452 128.915146,26.431942 
	C125.012299,24.735983 121.926941,22.391211 118.697678,22.172659 
	C107.145042,21.390791 95.545029,21.199429 83.959808,21.074287 
	C80.422279,21.036076 76.874680,21.929453 73.273621,22.403845 
	C73.035515,23.588230 72.793243,24.793354 72.519302,26.156025 
	C69.938560,26.156025 67.642311,26.156025 65.309258,26.156025 
	C65.038147,27.565384 64.806229,28.771048 64.542862,30.140198 
	C61.963413,30.140198 59.671780,30.140198 57.013138,30.140198 
	C57.013138,32.104870 57.013138,33.852615 57.013138,36.158825 
	C54.113541,36.158825 51.573765,36.158825 48.844048,36.158825 
	C48.844048,39.016888 48.844048,41.308666 48.844048,43.978245 
	C46.233143,43.978245 43.812477,43.978245 41.008141,43.978245 
	C41.008141,48.101322 41.008141,51.862019 41.008141,55.985001 
	C38.212574,55.985001 35.801445,55.985001 33.197578,55.985001 
	C33.197578,74.115662 33.197578,91.862610 33.197578,109.993988 
	C35.781441,109.993988 38.192482,109.993988 40.988052,109.993988 
	C40.988052,113.779945 40.988052,117.207146 40.988052,120.998352 
	C43.784607,120.998352 46.197498,120.998352 48.990128,120.998352 
	C48.990128,124.123466 48.990128,126.873940 48.990128,129.999100 
	C51.787457,129.999100 54.205528,129.999100 56.988312,129.999100 
	C56.988312,132.123611 56.988312,133.871155 56.988312,135.992020 
	C59.778904,135.992020 62.205318,135.992020 64.660225,135.992020 
	C64.951149,137.558655 65.175377,138.766129 65.399605,139.973587 
	C65.682281,139.604797 65.964958,139.236008 66.247635,138.867218 
	C69.213074,140.245590 72.090401,142.543777 75.159714,142.837814 
	C86.452354,143.919601 97.802467,144.573883 109.144516,144.870239 
	C112.904396,144.968475 118.516045,144.758942 120.096237,142.480911 
	C123.048195,138.225311 125.934586,140.922913 129.156052,140.027237 
	C129.156052,143.028412 129.156052,145.506577 128.914017,148.508560 
	C128.602737,148.724670 128.291458,148.940781 127.081291,149.011185 
z"/>
<path fill="#FFD43E" opacity="1.000000" stroke="none" 
	d="
M121.155563,326.015503 
	C120.940285,325.705444 120.725006,325.395386 120.247345,324.605042 
	C117.708481,320.088379 115.432007,316.051971 113.155525,312.015564 
	C112.970406,311.086090 112.785278,310.156616 112.156998,308.702515 
	C109.853165,303.516602 107.992477,298.855316 105.886215,293.578827 
	C113.160736,293.578827 119.736336,293.481445 126.307404,293.612030 
	C130.925995,293.703827 134.329956,292.110931 136.374390,287.895569 
	C144.988617,309.820160 157.980530,328.147522 176.175720,342.655121 
	C205.242676,365.831207 238.453690,374.713440 275.060211,369.733368 
	C302.448975,366.007324 326.236481,354.151764 346.048981,334.630463 
	C371.285492,309.764923 384.124298,279.543610 384.814911,244.236313 
	C385.135315,227.855087 382.278992,211.910965 376.187256,196.623749 
	C363.870270,165.714523 342.881104,142.795410 313.124481,127.828720 
	C292.080536,117.244247 269.730652,113.366066 246.452728,115.021683 
	C231.849792,116.060287 217.629288,119.272957 204.035370,126.218826 
	C185.881363,126.369522 168.139206,126.369522 148.844818,126.369522 
	C153.316803,122.270546 156.653015,119.212601 159.989227,116.154663 
	C163.414688,113.286674 166.606674,110.056610 170.332306,107.654091 
	C173.947815,105.322578 178.118744,103.856468 182.031845,101.981270 
	C186.015686,100.072174 189.963333,98.086624 193.963089,96.211922 
	C197.032684,94.773170 200.036469,92.950836 203.279358,92.164444 
	C223.998352,87.140236 244.869217,81.962936 266.343018,84.231369 
	C279.588135,85.630554 292.607788,89.208702 305.708038,91.908585 
	C309.972748,92.787521 314.277557,93.683685 318.369537,95.124428 
	C321.876526,96.359200 325.119934,98.355232 328.454285,100.064644 
	C332.959717,102.374451 337.687073,104.365532 341.862335,107.172913 
	C345.996490,109.952667 349.563080,113.576523 353.830872,117.296860 
	C356.469116,119.505516 358.655090,121.247459 360.964294,123.248245 
	C361.395233,123.724365 361.702942,123.941628 362.133789,124.468384 
	C364.451660,126.515053 366.646362,128.252228 368.964294,130.248260 
	C369.395203,130.724380 369.702942,130.941635 370.129059,131.463959 
	C372.446411,134.174255 374.645325,136.579498 376.844269,138.984726 
	C377.060211,139.294739 377.276123,139.604767 377.873260,140.344666 
	C380.451080,143.511246 382.647705,146.247940 384.844330,148.984634 
	C385.060272,149.294693 385.276245,149.604736 385.880127,150.353516 
	C388.460175,154.189667 390.652313,157.587082 392.844452,160.984482 
	C393.059723,161.294540 393.274994,161.604599 393.752686,162.395126 
	C396.291656,167.245071 398.568207,171.614532 400.844788,175.983994 
	C401.043121,176.600555 401.241455,177.217117 401.728912,178.365082 
	C404.293579,184.259033 406.569122,189.621582 408.844666,194.984131 
	C409.021942,196.234787 409.199158,197.485458 409.689392,199.364197 
	C411.350189,208.304489 412.966064,216.584000 413.985596,224.936295 
	C415.686249,238.868393 416.021271,252.807312 413.170563,266.697205 
	C411.871277,273.028076 411.049408,279.456940 410.010986,285.841339 
	C409.662476,286.980652 409.313934,288.119934 408.574402,289.811523 
	C406.125977,296.189697 404.068542,302.015564 402.011078,307.841400 
	C401.668610,308.351959 401.326141,308.862518 400.593689,309.850708 
	C398.140717,314.500183 396.077728,318.672028 394.014740,322.843872 
	C393.671082,323.353455 393.327393,323.863037 392.602112,324.838501 
	C390.151855,328.484161 388.083191,331.663940 386.014526,334.843750 
	C385.670898,335.353180 385.327271,335.862610 384.599487,336.818634 
	C382.148438,340.124725 380.081482,342.984222 378.014526,345.843719 
	C377.704712,346.059875 377.394897,346.276031 376.657410,346.870758 
	C374.158051,349.780853 372.086334,352.312317 370.014587,354.843781 
	C369.844818,354.895782 369.675079,354.947784 368.902588,355.106750 
	C366.204773,357.423706 364.109650,359.633728 362.014496,361.843719 
	C357.766724,365.533875 353.696899,369.459656 349.216919,372.842285 
	C345.395782,375.727386 341.261047,378.301636 336.984161,380.455658 
	C329.519012,384.215271 322.004028,387.985931 314.200470,390.932343 
	C306.497528,393.840790 298.494385,396.090637 290.467102,397.960663 
	C283.919800,399.485962 277.153290,400.106812 270.463440,400.969543 
	C266.548523,401.474426 262.575836,402.084442 258.659760,401.919617 
	C248.446701,401.489746 238.177399,401.190735 228.073349,399.801025 
	C221.355499,398.877045 214.845123,396.287506 208.312195,394.221100 
	C202.028671,392.233612 195.576981,390.500244 189.669724,387.672302 
	C182.637726,384.305939 176.067032,379.958344 169.375153,375.905914 
	C165.651947,373.651276 161.869232,371.402374 158.505905,368.668030 
	C153.680908,364.745300 149.214493,360.381592 144.292053,355.681946 
	C141.711517,352.776642 139.433914,350.395538 137.156311,348.014435 
	C136.940140,347.704651 136.723953,347.394867 136.125031,346.653748 
	C133.546768,343.486725 131.351242,340.751007 129.155716,338.015320 
	C128.939728,337.705292 128.723740,337.395264 128.118240,336.644958 
	C125.537674,332.808289 123.346619,329.411896 121.155563,326.015503 
z"/>
<path fill="#040404" opacity="1.000000" stroke="none" 
	d="
M136.086594,287.655487 
	C134.329956,292.110931 130.925995,293.703827 126.307404,293.612030 
	C119.736336,293.481445 113.160736,293.578827 105.886215,293.578827 
	C107.992477,298.855316 109.853165,303.516602 111.851868,308.513428 
	C109.837494,308.848938 107.685097,308.848938 105.165970,308.848938 
	C105.165970,304.132538 105.165970,299.368378 105.165970,294.210602 
	C97.066071,294.210602 89.314857,294.210602 81.712593,294.210602 
	C78.764725,286.048889 78.764725,286.048889 81.582184,277.999634 
	C86.472176,277.999634 91.438560,277.999634 96.697189,277.999634 
	C96.697189,265.729034 96.697189,253.662537 96.697189,241.008133 
	C87.370117,241.008133 77.945000,241.015274 68.519890,241.005646 
	C62.132824,240.999100 59.023174,238.437485 58.991840,233.191574 
	C58.958279,227.573837 61.977657,224.999054 68.636429,224.993744 
	C77.929588,224.986328 87.222763,224.991867 96.905991,224.991867 
	C96.905991,215.608337 96.905991,206.527451 96.905991,197.003418 
	C99.224297,197.003418 101.159554,197.003418 103.549728,197.485046 
	C102.114708,206.854477 100.224777,215.742279 98.239372,225.079086 
	C109.605545,225.079086 119.781738,225.079086 130.411026,225.222656 
	C145.801620,225.366211 160.739120,225.366211 175.808395,225.366211 
	C175.808395,211.730301 175.808395,197.431152 175.808395,183.054184 
	C171.761673,182.640182 170.219666,184.418060 170.350372,188.247894 
	C170.503708,192.741318 170.387466,197.243958 170.387650,201.742599 
	C170.387909,208.166443 170.387711,214.590271 170.387711,221.234055 
	C168.356781,221.234055 167.040482,221.239380 165.724243,221.233185 
	C158.146881,221.197510 155.258591,218.274338 155.234558,210.609634 
	C155.225677,207.777191 155.143829,204.941315 155.250427,202.112854 
	C155.514633,195.101837 152.930542,186.866959 162.853867,183.863556 
	C162.987747,183.823029 163.148941,183.641769 163.173508,183.504105 
	C164.476120,176.204208 170.487198,176.370041 175.906708,175.659088 
	C179.103745,161.515579 188.467499,153.363953 202.040283,151.372314 
	C235.993210,146.390137 270.093414,146.384247 304.169250,150.686676 
	C319.480377,152.619858 330.234558,160.013870 334.312225,176.000473 
	C344.544830,174.147537 347.114166,184.202896 353.423859,188.669739 
	C354.628448,189.522491 354.781555,192.305115 354.857758,194.219727 
	C355.049774,199.043961 354.607391,203.905579 354.984650,208.707809 
	C355.837585,219.564362 349.105652,223.022736 339.623901,220.516785 
	C339.623901,209.798279 339.540741,198.991928 339.668579,188.188049 
	C339.713898,184.355042 338.321503,182.551712 334.035858,183.090149 
	C334.035858,184.947586 334.035858,186.758820 334.035858,188.570053 
	C334.035858,227.058411 334.037231,265.546783 334.031738,304.035126 
	C334.031464,305.867096 334.076233,307.708405 333.917053,309.529327 
	C333.443634,314.943756 331.366364,316.908752 325.987976,317.045197 
	C323.027954,317.120300 320.064484,317.058685 316.547363,317.058685 
	C316.547363,322.101105 316.645294,326.715759 316.525665,331.324799 
	C316.317780,339.335083 312.335266,343.217438 304.409454,343.322083 
	C303.076721,343.339691 301.743500,343.336517 300.410706,343.323669 
	C292.213684,343.244629 288.167572,339.239319 288.075470,331.038696 
	C288.024017,326.457153 288.066223,321.874573 288.066223,317.331268 
	C265.564117,317.331268 243.807587,317.331268 222.190872,317.331268 
	C221.982193,317.744873 221.850632,317.885223 221.848328,318.027679 
	C221.776337,322.519196 221.758453,327.011932 221.646194,331.502350 
	C221.455582,339.126678 217.380600,343.184113 209.843216,343.319580 
	C208.344162,343.346558 206.843994,343.340881 205.344696,343.321899 
	C197.407272,343.221283 193.320465,339.208344 193.224945,331.343445 
	C193.168900,326.728119 193.214722,322.111572 193.214722,317.059082 
	C190.579971,317.059082 188.455505,317.077820 186.331451,317.055664 
	C178.844223,316.977570 176.072372,314.272552 175.980072,306.824615 
	C175.914017,301.493683 175.964874,296.161316 175.964767,290.829590 
	C175.964417,273.855255 175.964630,256.880920 175.964630,240.550034 
	C171.486938,240.550034 167.346420,240.514938 163.206680,240.556702 
	C151.585571,240.673889 139.964783,240.822800 127.862625,240.816254 
	C117.668770,240.673325 107.956146,240.673325 97.156761,240.673325 
	C98.212486,251.811783 99.145187,262.085266 100.177437,272.348755 
	C100.648689,277.034363 103.009590,278.798553 108.038704,278.595520 
	C116.301773,278.261810 124.604332,278.906433 132.925980,279.108276 
	C132.961716,279.077972 132.868851,279.065674 132.796295,279.374268 
	C133.081635,279.893311 133.439514,280.103790 133.953918,280.631592 
	C134.769180,283.184479 135.427887,285.419983 136.086594,287.655487 
M191.835922,178.282715 
	C186.932541,177.654877 185.042542,179.525406 185.102707,184.721848 
	C185.347458,205.860901 185.322159,227.005615 185.107941,248.145325 
	C185.063690,252.513092 186.587769,254.471283 190.732468,255.308716 
	C202.300858,257.646057 213.742889,260.713013 225.381638,262.573212 
	C242.165375,265.255707 259.099640,265.639923 276.298035,263.627289 
	C276.298035,235.198669 276.298035,206.987671 276.298035,178.282547 
	C248.270721,178.282547 220.520111,178.282547 191.835922,178.282715 
M310.175598,257.712891 
	C312.894379,256.941071 315.569916,255.893661 318.341553,255.458725 
	C323.116425,254.709381 324.273071,252.094391 324.211243,247.490219 
	C323.961212,228.864197 324.182770,210.232437 324.083679,191.603577 
	C324.003601,176.543579 326.289734,178.376938 310.957886,178.288467 
	C301.877991,178.236069 292.797546,178.278870 283.641937,178.278870 
	C283.641937,206.791489 283.641937,234.635284 283.641937,263.198547 
	C292.512268,261.374359 300.944641,259.640259 310.175598,257.712891 
M243.522568,157.666611 
	C241.195084,157.666504 238.846512,157.866318 236.544647,157.623428 
	C232.153122,157.160019 230.672897,158.928909 230.829468,163.310898 
	C230.970230,167.249786 231.084976,169.989960 236.311966,169.867554 
	C248.773773,169.575729 261.251465,169.579422 273.713531,169.865417 
	C278.955383,169.985733 279.017334,167.202301 279.170288,163.284760 
	C279.342773,158.868332 277.797638,157.465546 273.439911,157.584686 
	C263.804718,157.848145 254.157333,157.666626 243.522568,157.666611 
M189.978302,274.475433 
	C182.702164,270.309448 182.223068,270.574371 181.955032,278.892029 
	C181.901642,280.548767 181.843262,282.205597 181.759720,283.861023 
	C181.574127,287.538818 183.315445,289.388000 186.986862,289.627472 
	C192.941315,290.015900 198.886520,290.548157 204.841873,290.919373 
	C207.193024,291.065887 209.560913,290.943390 211.921188,290.943390 
	C212.186691,290.320862 212.452194,289.698334 212.717697,289.075806 
	C205.354568,284.332367 197.991425,279.588928 189.978302,274.475433 
M328.018524,277.723541 
	C327.662781,270.971893 326.851013,270.418304 321.160034,273.865051 
	C314.332733,278.000031 307.637177,282.357208 300.970001,286.747925 
	C299.684021,287.594788 298.792175,289.040131 297.718536,290.209381 
	C304.853149,290.881653 311.296143,290.428772 317.741241,290.008484 
	C328.483551,289.307953 328.484131,289.316742 328.018524,277.723541 
M267.431396,307.239288 
	C270.673981,307.605316 272.648621,307.094574 272.594177,302.894165 
	C272.540894,298.784973 270.391388,298.899841 267.529480,298.927246 
	C259.076538,299.008209 250.618912,299.095856 242.170334,298.887817 
	C238.732010,298.803131 238.015228,300.208313 238.005234,303.296021 
	C237.995285,306.366699 239.078644,307.344147 242.074112,307.290161 
	C250.193665,307.143829 258.317566,307.239197 267.431396,307.239288 
M190.700165,305.481140 
	C190.224609,303.491089 190.094986,301.285248 189.068054,299.639191 
	C188.749466,299.128540 185.376617,299.607697 184.528564,300.598175 
	C183.664780,301.607025 183.651154,305.011230 184.203445,305.256836 
	C185.958313,306.037170 188.150482,305.834076 190.700165,305.481140 
z"/>
<path fill="#020202" opacity="1.000000" stroke="none" 
	d="
M159.541565,116.080956 
	C156.653015,119.212601 153.316803,122.270546 148.844818,126.369522 
	C168.139206,126.369522 185.881363,126.369522 204.515625,126.410278 
	C222.838593,126.448318 240.269623,126.402878 257.700256,126.466637 
	C263.598022,126.488205 266.935974,129.314529 266.973236,133.942856 
	C267.010803,138.605270 263.688171,141.467545 257.814209,141.537643 
	C250.510025,141.624832 243.203430,141.485260 235.898300,141.524551 
	C216.317688,141.629837 196.737289,141.778259 176.696106,141.765060 
	C167.919708,141.594940 159.602951,141.477829 151.288788,141.578186 
	C146.343796,141.637863 142.343399,140.452759 140.660889,134.123596 
	C136.456894,139.188614 132.806473,143.586670 129.156067,147.984726 
	C129.156052,145.506577 129.156052,143.028412 129.156052,140.027237 
	C125.934586,140.922913 123.048195,138.225311 120.096237,142.480911 
	C118.516045,144.758942 112.904396,144.968475 109.144516,144.870239 
	C97.802467,144.573883 86.452354,143.919601 75.159714,142.837814 
	C72.090401,142.543777 69.213074,140.245590 66.247635,138.867218 
	C65.964958,139.236008 65.682281,139.604797 65.399605,139.973587 
	C65.175377,138.766129 64.951149,137.558655 64.660225,135.992020 
	C62.205318,135.992020 59.778904,135.992020 56.988312,135.992020 
	C56.988312,133.871155 56.988312,132.123611 56.988312,129.999100 
	C54.205528,129.999100 51.787457,129.999100 48.990128,129.999100 
	C48.990128,126.873940 48.990128,124.123466 48.990128,120.998352 
	C46.197498,120.998352 43.784607,120.998352 40.988052,120.998352 
	C40.988052,117.207146 40.988052,113.779945 40.988052,109.993988 
	C38.192482,109.993988 35.781441,109.993988 33.197578,109.993988 
	C33.197578,91.862610 33.197578,74.115662 33.197578,55.985001 
	C35.801445,55.985001 38.212574,55.985001 41.008141,55.985001 
	C41.008141,51.862019 41.008141,48.101322 41.008141,43.978245 
	C43.812477,43.978245 46.233143,43.978245 48.844048,43.978245 
	C48.844048,41.308666 48.844048,39.016888 48.844048,36.158825 
	C51.573765,36.158825 54.113541,36.158825 57.013138,36.158825 
	C57.013138,33.852615 57.013138,32.104870 57.013138,30.140198 
	C59.671780,30.140198 61.963413,30.140198 64.542862,30.140198 
	C64.806229,28.771048 65.038147,27.565384 65.309258,26.156025 
	C67.642311,26.156025 69.938560,26.156025 72.519302,26.156025 
	C72.793243,24.793354 73.035515,23.588230 73.273621,22.403845 
	C76.874680,21.929453 80.422279,21.036076 83.959808,21.074287 
	C95.545029,21.199429 107.145042,21.390791 118.697678,22.172659 
	C121.926941,22.391211 125.012299,24.735983 128.915146,26.431942 
	C128.915146,26.709452 128.915146,28.120262 128.915146,29.911751 
	C131.691864,29.911751 134.114700,29.911751 136.895691,29.911751 
	C136.895691,31.693901 136.895691,33.103966 136.895691,34.891682 
	C139.672623,34.891682 142.097092,34.891682 144.895905,34.891682 
	C144.895905,37.674343 144.895905,40.090549 144.895905,42.884193 
	C147.685486,42.884193 150.102905,42.884193 152.905548,42.884193 
	C152.905548,47.332684 152.905548,51.426529 152.905548,55.887741 
	C155.699707,55.887741 158.112701,55.887741 160.759583,55.887741 
	C160.759583,74.016701 160.759583,91.764160 160.759583,109.902267 
	C158.306747,109.902267 155.894363,109.902267 153.245621,109.902267 
	C153.245621,112.021301 153.245621,113.763748 153.245621,116.007248 
	C155.212646,116.007248 157.153259,116.007248 159.541565,116.080956 
M77.070457,133.583420 
	C85.946220,136.939072 94.889610,138.592285 104.547813,137.149551 
	C113.541908,135.806076 121.903099,132.765717 128.743896,127.359451 
	C134.980713,122.430527 140.517365,116.071045 144.814011,109.351814 
	C152.385223,97.511742 153.521133,83.912224 150.590561,70.478905 
	C148.185089,59.452614 142.415863,49.891399 133.750824,42.174633 
	C119.735237,29.692852 103.239456,25.973589 85.444588,29.470879 
	C73.645096,31.789877 63.652546,38.127445 55.574348,47.704800 
	C44.582211,60.736866 40.625446,75.924347 43.367355,91.858231 
	C46.666016,111.027588 57.801785,125.463020 77.070457,133.583420 
z"/>
<path fill="#000000" opacity="1.000000" stroke="none" 
	d="
M360.841064,122.989395 
	C358.655090,121.247459 356.469116,119.505516 354.149414,117.459496 
	C356.162109,117.155411 358.308502,117.155411 361.828796,117.155411 
	C360.787231,112.604897 360.415070,108.403564 358.868317,104.691681 
	C353.694733,92.275909 352.185577,79.692039 356.030884,66.695007 
	C357.164856,62.862259 359.132568,59.252636 360.034821,55.381481 
	C360.945160,51.475594 361.006836,47.371914 361.463257,43.142555 
	C363.701782,43.142555 365.991394,43.142555 368.670227,43.142555 
	C368.670227,40.879395 368.670227,38.803482 368.670227,36.323849 
	C371.443390,36.323849 373.850739,36.323849 376.549561,36.323849 
	C376.825592,34.440346 377.051147,32.901047 377.306061,31.161491 
	C379.652832,31.161491 381.944122,31.161491 384.522034,31.161491 
	C384.797180,29.798471 385.040222,28.594540 385.163605,27.983479 
	C403.706238,21.628494 421.985992,23.648283 440.725220,28.858534 
	C440.794861,29.201002 441.039764,30.405001 441.359253,31.975601 
	C443.748444,31.975601 446.179504,31.975601 448.962555,31.975601 
	C448.962555,34.093231 448.962555,35.845692 448.962555,37.959919 
	C451.742310,37.959919 454.160339,37.959919 456.957886,37.959919 
	C456.957886,41.078854 456.957886,43.828156 456.957886,46.950996 
	C459.745209,46.950996 462.157288,46.950996 464.956085,46.950996 
	C464.956085,52.069241 464.956085,56.827190 464.956085,61.948887 
	C467.749908,61.948887 470.163818,61.948887 472.780029,61.948887 
	C472.780029,75.071388 472.780029,87.813370 472.780029,100.938057 
	C470.262482,100.938057 467.852814,100.938057 465.055786,100.938057 
	C465.055786,106.056015 465.055786,110.812943 465.055786,115.938408 
	C462.264313,115.938408 459.853699,115.938408 457.062256,115.938408 
	C457.062256,119.059532 457.062256,121.808380 457.062256,124.935295 
	C454.277100,124.935295 451.850403,124.935295 449.073853,124.935295 
	C449.073853,127.055939 449.073853,128.802689 449.073853,130.799393 
	C446.428680,130.799393 444.148224,130.799393 441.571686,130.799393 
	C441.207001,132.281662 440.884460,133.592682 440.751312,134.133926 
	C422.270355,139.135574 404.145386,141.506912 385.276337,134.993820 
	C385.208466,134.719070 384.885284,133.410950 384.571838,132.142090 
	C382.061554,132.142090 379.768616,132.142090 376.988953,132.142090 
	C376.988953,134.210556 376.988953,136.147964 376.916626,138.535049 
	C374.645325,136.579498 372.446411,134.174255 370.574554,131.390137 
	C372.826874,131.011261 374.752106,131.011261 377.017059,131.011261 
	C376.871552,129.387039 376.766754,128.217163 376.618591,126.563225 
	C373.899567,128.304138 369.429474,124.180801 368.841064,129.989395 
	C366.646362,128.252228 364.451660,126.515053 362.579285,124.394577 
	C364.826874,124.011269 366.752106,124.011269 369.016968,124.011269 
	C368.871796,122.390831 368.766785,121.218697 368.618500,119.563408 
	C365.899506,121.303978 361.429565,117.181015 360.841064,122.989395 
M385.002106,47.496746 
	C382.130035,50.366837 378.890198,52.957947 376.459381,56.162712 
	C370.657410,63.811817 367.751709,72.856087 368.208588,82.237190 
	C368.836975,95.140327 373.760437,106.376923 384.259064,114.873589 
	C395.654114,124.095779 408.329834,126.487633 422.275604,123.242546 
	C431.624542,121.067101 438.925659,115.676849 445.179413,108.436356 
	C452.346313,100.138664 455.116486,90.178925 454.739410,79.878517 
	C454.272339,67.119873 448.825165,56.231983 438.494385,47.860634 
	C423.755066,35.916882 400.990723,34.996540 385.002106,47.496746 
z"/>
<path fill="#030301" opacity="1.000000" stroke="none" 
	d="
M105.157578,192.990646 
	C105.157578,188.189850 105.157578,183.389038 105.157578,178.254562 
	C103.383759,178.158844 101.951012,178.015350 100.518150,178.014206 
	C81.720009,177.999146 62.921841,178.014084 44.123699,177.998535 
	C37.982395,177.993454 34.963188,175.251999 34.995792,169.807617 
	C35.026134,164.740265 38.135395,162.009079 44.009418,162.002655 
	C61.476704,161.983551 78.944817,162.092453 96.410973,161.950836 
	C103.979362,161.889481 111.543777,161.337051 119.732376,161.489166 
	C128.572632,162.131104 136.809265,162.021805 144.998657,162.591568 
	C148.055939,162.804276 151.002960,164.601730 154.039673,166.010498 
	C156.171555,173.196320 154.312653,175.892593 145.629700,177.790054 
	C135.257294,177.617142 125.338348,177.655472 115.421265,177.537186 
	C112.384071,177.500961 110.806213,178.529922 109.883881,181.622147 
	C108.717209,185.533569 106.768814,189.211823 105.157578,192.990646 
z"/>
<path fill="#FDD33D" opacity="1.000000" stroke="none" 
	d="
M105.095886,193.367325 
	C106.768814,189.211823 108.717209,185.533569 109.883881,181.622147 
	C110.806213,178.529922 112.384071,177.500961 115.421265,177.537186 
	C125.338348,177.655472 135.257294,177.617142 145.513885,178.125702 
	C137.197372,192.953049 131.683151,208.368042 129.957932,225.079086 
	C119.781738,225.079086 109.605545,225.079086 98.239372,225.079086 
	C100.224777,215.742279 102.114708,206.854477 103.998512,197.560623 
	C104.339661,196.017715 104.686928,194.880859 105.095886,193.367325 
z"/>
<path fill="#FCD13C" opacity="1.000000" stroke="none" 
	d="
M154.000275,165.676605 
	C151.002960,164.601730 148.055939,162.804276 144.998657,162.591568 
	C136.809265,162.021805 128.572632,162.131104 120.173729,161.565964 
	C120.301468,160.942337 120.610237,160.723404 121.350174,160.093781 
	C123.847610,156.174362 125.913895,152.665634 127.980171,149.156891 
	C128.291458,148.940781 128.602737,148.724670 129.035034,148.246643 
	C132.806473,143.586670 136.456894,139.188614 140.660889,134.123596 
	C142.343399,140.452759 146.343796,141.637863 151.288788,141.578186 
	C159.602951,141.477829 167.919708,141.594940 176.512543,142.062286 
	C169.193207,150.228195 161.596741,157.952393 154.000275,165.676605 
z"/>
<path fill="#000000" opacity="1.000000" stroke="none" 
	d="
M410.461609,285.915039 
	C411.049408,279.456940 411.871277,273.028076 413.170563,266.697205 
	C416.021271,252.807312 415.686249,238.868393 413.985596,224.936295 
	C412.966064,216.584000 411.350189,208.304489 410.006714,199.575439 
	C412.158875,199.158600 414.306641,199.158600 416.727600,199.158600 
	C416.727600,227.921509 416.727600,256.734528 416.727600,285.988770 
	C414.771393,285.988770 412.841827,285.988770 410.461609,285.915039 
z"/>
<path fill="#000000" opacity="1.000000" stroke="none" 
	d="
M402.461670,307.915100 
	C404.068542,302.015564 406.125977,296.189697 408.514343,290.190277 
	C408.845276,295.882812 408.845276,301.748932 408.845276,307.988770 
	C406.740417,307.988770 404.826355,307.988770 402.461670,307.915100 
z"/>
<path fill="#000000" opacity="1.000000" stroke="none" 
	d="
M408.916748,194.519653 
	C406.569122,189.621582 404.293579,184.259033 402.014587,178.527527 
	C404.132843,178.158585 406.254578,178.158585 408.988861,178.158585 
	C408.988861,183.384583 408.988861,188.719879 408.916748,194.519653 
z"/>
<path fill="#000000" opacity="1.000000" stroke="none" 
	d="
M400.916779,175.521439 
	C398.568207,171.614532 396.291656,167.245071 394.013123,162.517090 
	C396.127472,162.158585 398.243835,162.158585 400.988770,162.158585 
	C400.988770,166.385651 400.988770,170.722260 400.916779,175.521439 
z"/>
<path fill="#000000" opacity="1.000000" stroke="none" 
	d="
M113.083351,312.477600 
	C115.432007,316.051971 117.708481,320.088379 119.986938,324.483093 
	C117.874741,324.841400 115.760567,324.841400 113.011177,324.841400 
	C113.011177,320.943787 113.011177,316.941711 113.083351,312.477600 
z"/>
<path fill="#000000" opacity="1.000000" stroke="none" 
	d="
M394.465149,322.916382 
	C396.077728,318.672028 398.140717,314.500183 400.524292,310.172241 
	C400.844879,314.221924 400.844879,318.427704 400.844879,322.988892 
	C398.732330,322.988892 396.823944,322.988892 394.465149,322.916382 
z"/>
<path fill="#000000" opacity="1.000000" stroke="none" 
	d="
M121.083382,326.474426 
	C123.346619,329.411896 125.537674,332.808289 127.856804,336.524414 
	C125.875954,336.844177 123.767029,336.844177 121.011200,336.844177 
	C121.011200,333.610535 121.011200,330.271942 121.083382,326.474426 
z"/>
<path fill="#000000" opacity="1.000000" stroke="none" 
	d="
M127.530731,149.084045 
	C125.913895,152.665634 123.847610,156.174362 121.468636,159.830963 
	C121.155937,156.438568 121.155937,152.898285 121.155937,149.011185 
	C123.272102,149.011185 125.176697,149.011185 127.530731,149.084045 
z"/>
<path fill="#000000" opacity="1.000000" stroke="none" 
	d="
M392.916626,160.525574 
	C390.652313,157.587082 388.460175,154.189667 386.141541,150.474060 
	C388.123749,150.155884 390.232452,150.155884 392.988800,150.155884 
	C392.988800,153.389481 392.988800,156.728058 392.916626,160.525574 
z"/>
<path fill="#000000" opacity="1.000000" stroke="none" 
	d="
M386.463989,334.916290 
	C388.083191,331.663940 390.151855,328.484161 392.532623,325.160156 
	C392.844727,328.226379 392.844727,331.436798 392.844727,334.988831 
	C390.722443,334.988831 388.817963,334.988831 386.463989,334.916290 
z"/>
<path fill="#000000" opacity="1.000000" stroke="none" 
	d="
M137.083923,348.463379 
	C139.433914,350.395538 141.711517,352.776642 143.989029,355.499542 
	C141.888046,355.841370 139.787140,355.841370 137.011520,355.841370 
	C137.011520,353.610291 137.011520,351.261292 137.083923,348.463379 
z"/>
<path fill="#000000" opacity="1.000000" stroke="none" 
	d="
M378.463135,345.916260 
	C380.081482,342.984222 382.148438,340.124725 384.529724,337.140137 
	C384.844086,339.893860 384.844086,342.772705 384.844086,345.988831 
	C382.718079,345.988831 380.814911,345.988831 378.463135,345.916260 
z"/>
<path fill="#000000" opacity="1.000000" stroke="none" 
	d="
M129.083466,338.469086 
	C131.351242,340.751007 133.546768,343.486725 135.863708,346.533203 
	C133.881805,346.843994 131.778488,346.843994 129.011215,346.843994 
	C129.011215,344.278748 129.011215,341.600800 129.083466,338.469086 
z"/>
<path fill="#000000" opacity="1.000000" stroke="none" 
	d="
M384.916565,148.530884 
	C382.647705,146.247940 380.451080,143.511246 378.134644,140.465302 
	C380.117889,140.156067 382.220978,140.156067 384.988800,140.156067 
	C384.988800,142.721222 384.988800,145.399185 384.916565,148.530884 
z"/>
<path fill="#000000" opacity="1.000000" stroke="none" 
	d="
M370.462372,354.916321 
	C372.086334,352.312317 374.158051,349.780853 376.536835,347.132080 
	C376.843903,349.562195 376.843903,352.109619 376.843903,354.988831 
	C374.714386,354.988831 372.812256,354.988831 370.462372,354.916321 
z"/>
<path fill="#000000" opacity="1.000000" stroke="none" 
	d="
M362.460571,361.916199 
	C364.109650,359.633728 366.204773,357.423706 368.647156,355.181946 
	C368.994385,357.281250 368.994385,359.412323 368.994385,361.988708 
	C366.791779,361.988708 364.849213,361.988708 362.460571,361.916199 
z"/>
<path fill="#FDFCFC" opacity="1.000000" stroke="none" 
	d="
M154.039673,166.010513 
	C161.596741,157.952393 169.193207,150.228195 176.973251,142.206787 
	C196.737289,141.778259 216.317688,141.629837 235.898300,141.524551 
	C243.203430,141.485260 250.510025,141.624832 257.814209,141.537643 
	C263.688171,141.467545 267.010803,138.605270 266.973236,133.942856 
	C266.935974,129.314529 263.598022,126.488205 257.700256,126.466637 
	C240.269623,126.402878 222.838593,126.448318 204.927460,126.259583 
	C217.629288,119.272957 231.849792,116.060287 246.452728,115.021683 
	C269.730652,113.366066 292.080536,117.244247 313.124481,127.828720 
	C342.881104,142.795410 363.870270,165.714523 376.187256,196.623749 
	C382.278992,211.910965 385.135315,227.855087 384.814911,244.236313 
	C384.124298,279.543610 371.285492,309.764923 346.048981,334.630463 
	C326.236481,354.151764 302.448975,366.007324 275.060211,369.733368 
	C238.453690,374.713440 205.242676,365.831207 176.175720,342.655121 
	C157.980530,328.147522 144.988617,309.820160 136.374390,287.895569 
	C135.427887,285.419983 134.769180,283.184479 133.974579,280.310913 
	C133.515427,279.470490 133.192139,279.268066 132.868851,279.065674 
	C132.868851,279.065674 132.961716,279.077972 133.026825,278.701019 
	C131.509232,265.869110 129.926544,253.414139 128.343857,240.959183 
	C139.964783,240.822800 151.585571,240.673889 163.206680,240.556702 
	C167.346420,240.514938 171.486938,240.550034 175.964630,240.550034 
	C175.964630,256.880920 175.964417,273.855255 175.964767,290.829590 
	C175.964874,296.161316 175.914017,301.493683 175.980072,306.824615 
	C176.072372,314.272552 178.844223,316.977570 186.331451,317.055664 
	C188.455505,317.077820 190.579971,317.059082 193.214722,317.059082 
	C193.214722,322.111572 193.168900,326.728119 193.224945,331.343445 
	C193.320465,339.208344 197.407272,343.221283 205.344696,343.321899 
	C206.843994,343.340881 208.344162,343.346558 209.843216,343.319580 
	C217.380600,343.184113 221.455582,339.126678 221.646194,331.502350 
	C221.758453,327.011932 221.776337,322.519196 221.848328,318.027679 
	C221.850632,317.885223 221.982193,317.744873 222.190872,317.331268 
	C243.807587,317.331268 265.564117,317.331268 288.066223,317.331268 
	C288.066223,321.874573 288.024017,326.457153 288.075470,331.038696 
	C288.167572,339.239319 292.213684,343.244629 300.410706,343.323669 
	C301.743500,343.336517 303.076721,343.339691 304.409454,343.322083 
	C312.335266,343.217438 316.317780,339.335083 316.525665,331.324799 
	C316.645294,326.715759 316.547363,322.101105 316.547363,317.058685 
	C320.064484,317.058685 323.027954,317.120300 325.987976,317.045197 
	C331.366364,316.908752 333.443634,314.943756 333.917053,309.529327 
	C334.076233,307.708405 334.031464,305.867096 334.031738,304.035126 
	C334.037231,265.546783 334.035858,227.058411 334.035858,188.570053 
	C334.035858,186.758820 334.035858,184.947586 334.035858,183.090149 
	C338.321503,182.551712 339.713898,184.355042 339.668579,188.188049 
	C339.540741,198.991928 339.623901,209.798279 339.623901,220.516785 
	C349.105652,223.022736 355.837585,219.564362 354.984650,208.707809 
	C354.607391,203.905579 355.049774,199.043961 354.857758,194.219727 
	C354.781555,192.305115 354.628448,189.522491 353.423859,188.669739 
	C347.114166,184.202896 344.544830,174.147537 334.312225,176.000473 
	C330.234558,160.013870 319.480377,152.619858 304.169250,150.686676 
	C270.093414,146.384247 235.993210,146.390137 202.040283,151.372314 
	C188.467499,153.363953 179.103745,161.515579 175.906708,175.659088 
	C170.487198,176.370041 164.476120,176.204208 163.173508,183.504105 
	C163.148941,183.641769 162.987747,183.823029 162.853867,183.863556 
	C152.930542,186.866959 155.514633,195.101837 155.250427,202.112854 
	C155.143829,204.941315 155.225677,207.777191 155.234558,210.609634 
	C155.258591,218.274338 158.146881,221.197510 165.724243,221.233185 
	C167.040482,221.239380 168.356781,221.234055 170.387711,221.234055 
	C170.387711,214.590271 170.387909,208.166443 170.387650,201.742599 
	C170.387466,197.243958 170.503708,192.741318 170.350372,188.247894 
	C170.219666,184.418060 171.761673,182.640182 175.808395,183.054184 
	C175.808395,197.431152 175.808395,211.730301 175.808395,225.366211 
	C160.739120,225.366211 145.801620,225.366211 130.411026,225.222656 
	C131.683151,208.368042 137.197372,192.953049 145.968063,178.276703 
	C154.312653,175.892593 156.171555,173.196320 154.039673,166.010513 
z"/>
<path fill="#FFFFFF" opacity="1.000000" stroke="none" 
	d="
M360.964294,123.248245 
	C361.429565,117.181015 365.899506,121.303978 368.618500,119.563408 
	C368.766785,121.218697 368.871796,122.390831 369.016968,124.011269 
	C366.752106,124.011269 364.826874,124.011269 362.456146,124.085075 
	C361.702942,123.941628 361.395233,123.724365 360.964294,123.248245 
z"/>
<path fill="#FFFFFF" opacity="1.000000" stroke="none" 
	d="
M368.964294,130.248260 
	C369.429474,124.180801 373.899567,128.304138 376.618591,126.563225 
	C376.766754,128.217163 376.871552,129.387039 377.017059,131.011261 
	C374.752106,131.011261 372.826874,131.011261 370.456146,131.085083 
	C369.702942,130.941635 369.395203,130.724380 368.964294,130.248260 
z"/>
<path fill="#FBFBFB" opacity="1.000000" stroke="none" 
	d="
M192.302704,178.282623 
	C220.520111,178.282547 248.270721,178.282547 276.298035,178.282547 
	C276.298035,206.987671 276.298035,235.198669 276.298035,263.627289 
	C259.099640,265.639923 242.165375,265.255707 225.381638,262.573212 
	C213.742889,260.713013 202.300858,257.646057 190.732468,255.308716 
	C186.587769,254.471283 185.063690,252.513092 185.107941,248.145325 
	C185.322159,227.005615 185.347458,205.860901 185.102707,184.721848 
	C185.042542,179.525406 186.932541,177.654877 192.302704,178.282623 
z"/>
<path fill="#FAFAFA" opacity="1.000000" stroke="none" 
	d="
M309.776306,257.809509 
	C300.944641,259.640259 292.512268,261.374359 283.641937,263.198547 
	C283.641937,234.635284 283.641937,206.791489 283.641937,178.278870 
	C292.797546,178.278870 301.877991,178.236069 310.957886,178.288467 
	C326.289734,178.376938 324.003601,176.543579 324.083679,191.603577 
	C324.182770,210.232437 323.961212,228.864197 324.211243,247.490219 
	C324.273071,252.094391 323.116425,254.709381 318.341553,255.458725 
	C315.569916,255.893661 312.894379,256.941071 309.776306,257.809509 
z"/>
<path fill="#FDD23D" opacity="1.000000" stroke="none" 
	d="
M127.862625,240.816254 
	C129.926544,253.414139 131.509232,265.869110 132.991089,278.731323 
	C124.604332,278.906433 116.301773,278.261810 108.038704,278.595520 
	C103.009590,278.798553 100.648689,277.034363 100.177437,272.348755 
	C99.145187,262.085266 98.212486,251.811783 97.156761,240.673325 
	C107.956146,240.673325 117.668770,240.673325 127.862625,240.816254 
z"/>
<path fill="#F7F7F7" opacity="1.000000" stroke="none" 
	d="
M244.018753,157.666611 
	C254.157333,157.666626 263.804718,157.848145 273.439911,157.584686 
	C277.797638,157.465546 279.342773,158.868332 279.170288,163.284760 
	C279.017334,167.202301 278.955383,169.985733 273.713531,169.865417 
	C261.251465,169.579422 248.773773,169.575729 236.311966,169.867554 
	C231.084976,169.989960 230.970230,167.249786 230.829468,163.310898 
	C230.672897,158.928909 232.153122,157.160019 236.544647,157.623428 
	C238.846512,157.866318 241.195084,157.666504 244.018753,157.666611 
z"/>
<path fill="#F5F5F5" opacity="1.000000" stroke="none" 
	d="
M190.303299,274.660461 
	C197.991425,279.588928 205.354568,284.332367 212.717697,289.075806 
	C212.452194,289.698334 212.186691,290.320862 211.921188,290.943390 
	C209.560913,290.943390 207.193024,291.065887 204.841873,290.919373 
	C198.886520,290.548157 192.941315,290.015900 186.986862,289.627472 
	C183.315445,289.388000 181.574127,287.538818 181.759720,283.861023 
	C181.843262,282.205597 181.901642,280.548767 181.955032,278.892029 
	C182.223068,270.574371 182.702164,270.309448 190.303299,274.660461 
z"/>
<path fill="#F5F5F5" opacity="1.000000" stroke="none" 
	d="
M328.024323,278.184814 
	C328.484131,289.316742 328.483551,289.307953 317.741241,290.008484 
	C311.296143,290.428772 304.853149,290.881653 297.718536,290.209381 
	C298.792175,289.040131 299.684021,287.594788 300.970001,286.747925 
	C307.637177,282.357208 314.332733,278.000031 321.160034,273.865051 
	C326.851013,270.418304 327.662781,270.971893 328.024323,278.184814 
z"/>
<path fill="#F8F8F8" opacity="1.000000" stroke="none" 
	d="
M266.935577,307.239014 
	C258.317566,307.239197 250.193665,307.143829 242.074112,307.290161 
	C239.078644,307.344147 237.995285,306.366699 238.005234,303.296021 
	C238.015228,300.208313 238.732010,298.803131 242.170334,298.887817 
	C250.618912,299.095856 259.076538,299.008209 267.529480,298.927246 
	C270.391388,298.899841 272.540894,298.784973 272.594177,302.894165 
	C272.648621,307.094574 270.673981,307.605316 266.935577,307.239014 
z"/>
<path fill="#E6E6E6" opacity="1.000000" stroke="none" 
	d="
M190.436905,305.746094 
	C188.150482,305.834076 185.958313,306.037170 184.203445,305.256836 
	C183.651154,305.011230 183.664780,301.607025 184.528564,300.598175 
	C185.376617,299.607697 188.749466,299.128540 189.068054,299.639191 
	C190.094986,301.285248 190.224609,303.491089 190.436905,305.746094 
z"/>
<path fill="#FDD23D" opacity="1.000000" stroke="none" 
	d="
M132.796295,279.374268 
	C133.192139,279.268066 133.515427,279.470490 133.818054,279.993561 
	C133.439514,280.103790 133.081635,279.893311 132.796295,279.374268 
z"/>
<path fill="#FFFFFF" opacity="1.000000" stroke="none" 
	d="
M76.779694,133.312714 
	C57.801785,125.463020 46.666016,111.027588 43.367355,91.858231 
	C40.625446,75.924347 44.582211,60.736866 55.574348,47.704800 
	C63.652546,38.127445 73.645096,31.789877 85.444588,29.470879 
	C103.239456,25.973589 119.735237,29.692852 133.750824,42.174633 
	C142.415863,49.891399 148.185089,59.452614 150.590561,70.478905 
	C153.521133,83.912224 152.385223,97.511742 144.814011,109.351814 
	C140.517365,116.071045 134.980713,122.430527 128.743896,127.359451 
	C121.903099,132.765717 113.541908,135.806076 104.547813,137.149551 
	C94.889610,138.592285 85.946220,136.939072 76.779694,133.312714 
M97.499222,118.016518 
	C102.156807,118.016487 106.818886,117.890320 111.470573,118.055923 
	C115.261093,118.190865 117.027885,116.592201 117.023926,112.814957 
	C117.003548,93.352890 116.988640,73.890732 117.036148,54.428757 
	C117.046021,50.383762 115.212372,48.860363 111.209206,48.931084 
	C101.896927,49.095592 92.576668,49.124920 83.265915,48.921745 
	C78.849236,48.825367 77.080505,51.251060 77.053139,54.939682 
	C76.912453,73.901695 76.928055,92.865631 77.034294,111.828087 
	C77.056694,115.826355 78.910950,118.334946 83.529556,118.069458 
	C87.840218,117.821671 92.176331,118.016502 97.499222,118.016518 
z"/>
<path fill="#54FA3F" opacity="1.000000" stroke="none" 
	d="
M385.264862,47.237965 
	C400.990723,34.996540 423.755066,35.916882 438.494385,47.860634 
	C448.825165,56.231983 454.272339,67.119873 454.739410,79.878517 
	C455.116486,90.178925 452.346313,100.138664 445.179413,108.436356 
	C438.925659,115.676849 431.624542,121.067101 422.275604,123.242546 
	C408.329834,126.487633 395.654114,124.095779 384.259064,114.873589 
	C373.760437,106.376923 368.836975,95.140327 368.208588,82.237190 
	C367.751709,72.856087 370.657410,63.811817 376.459381,56.162712 
	C378.890198,52.957947 382.130035,50.366837 385.264862,47.237965 
z"/>
<path fill="#090909" opacity="1.000000" stroke="none" 
	d="
M97.000229,118.016518 
	C92.176331,118.016502 87.840218,117.821671 83.529556,118.069458 
	C78.910950,118.334946 77.056694,115.826355 77.034294,111.828087 
	C76.928055,92.865631 76.912453,73.901695 77.053139,54.939682 
	C77.080505,51.251060 78.849236,48.825367 83.265915,48.921745 
	C92.576668,49.124920 101.896927,49.095592 111.209206,48.931084 
	C115.212372,48.860363 117.046021,50.383762 117.036148,54.428757 
	C116.988640,73.890732 117.003548,93.352890 117.023926,112.814957 
	C117.027885,116.592201 115.261093,118.190865 111.470573,118.055923 
	C106.818886,117.890320 102.156807,118.016487 97.000229,118.016518 
M81.259743,75.501846 
	C81.259743,84.268723 81.259743,93.035606 81.259743,101.975922 
	C92.128555,101.975922 102.502014,101.975922 113.003571,101.975922 
	C113.003571,86.997375 113.003571,72.283249 113.003571,57.383141 
	C102.419609,57.383141 92.056587,57.383141 81.259750,57.383141 
	C81.259750,63.272724 81.259750,68.887848 81.259743,75.501846 
M94.679390,111.970932 
	C96.278450,112.180367 97.916687,112.653442 99.450752,112.425468 
	C99.866852,112.363640 100.544350,109.826126 100.071487,109.065079 
	C99.449501,108.063988 97.084732,106.891563 96.739182,107.202766 
	C95.600327,108.228439 95.033699,109.889503 94.679390,111.970932 
M94.491516,51.665825 
	C92.858742,51.801228 91.225967,51.936634 89.593201,52.072037 
	C89.641685,52.494427 89.690178,52.916813 89.738670,53.339203 
	C94.825134,53.339203 99.911598,53.339203 104.998070,53.339203 
	C105.002831,52.781372 105.007584,52.223541 105.012344,51.665710 
	C101.837852,51.665710 98.663361,51.665710 94.491516,51.665825 
z"/>
<path fill="#FBFBFB" opacity="1.000000" stroke="none" 
	d="
M81.259750,75.002411 
	C81.259750,68.887848 81.259750,63.272724 81.259750,57.383141 
	C92.056587,57.383141 102.419609,57.383141 113.003571,57.383141 
	C113.003571,72.283249 113.003571,86.997375 113.003571,101.975922 
	C102.502014,101.975922 92.128555,101.975922 81.259743,101.975922 
	C81.259743,93.035606 81.259743,84.268723 81.259750,75.002411 
z"/>
<path fill="#ECECEC" opacity="1.000000" stroke="none" 
	d="
M94.463364,111.638748 
	C95.033699,109.889503 95.600327,108.228439 96.739182,107.202766 
	C97.084732,106.891563 99.449501,108.063988 100.071487,109.065079 
	C100.544350,109.826126 99.866852,112.363640 99.450752,112.425468 
	C97.916687,112.653442 96.278450,112.180367 94.463364,111.638748 
z"/>
<path fill="#F4F4F4" opacity="1.000000" stroke="none" 
	d="
M94.990189,51.665768 
	C98.663361,51.665710 101.837852,51.665710 105.012344,51.665710 
	C105.007584,52.223541 105.002831,52.781372 104.998070,53.339203 
	C99.911598,53.339203 94.825134,53.339203 89.738670,53.339203 
	C89.690178,52.916813 89.641685,52.494427 89.593201,52.072037 
	C91.225967,51.936634 92.858742,51.801228 94.990189,51.665768 
z"/>
</svg>