<svg version="1.1" id="Layer_1" xmlns="http://www.w3.org/2000/svg" xmlns:xlink="http://www.w3.org/1999/xlink" x="0px" y="0px"
	 width="100%" viewBox="0 0 500 500" enable-background="new 0 0 500 500" xml:space="preserve">
<path fill="#000000" opacity="0.000000" stroke="none" 
	d="
M275.000000,501.000000 
	C183.333359,501.000000 92.166710,501.000000 1.000049,501.000000 
	C1.000033,334.333405 1.000033,167.666794 1.000016,1.000138 
	C167.666565,1.000092 334.333130,1.000092 500.999756,1.000046 
	C500.999847,167.666519 500.999847,334.333038 500.999939,500.999786 
	C425.833344,501.000000 350.666656,501.000000 275.000000,501.000000 
M191.012115,387.513367 
	C204.222656,391.671356 217.201447,397.053772 230.714874,399.611542 
	C242.137207,401.773499 254.215942,401.384552 265.935669,400.785156 
	C276.432800,400.248291 286.987579,398.541351 297.248199,396.181976 
	C315.469788,391.992004 332.004700,383.804932 347.418213,373.176788 
	C359.794983,364.642609 371.093750,354.684570 380.045319,342.916107 
	C388.976532,331.174377 396.157349,317.925293 402.845520,304.699860 
	C410.437531,289.687134 413.796509,273.092682 414.752350,256.451538 
	C415.766724,238.790359 415.037140,221.183151 410.420776,203.633362 
	C407.423492,192.238846 403.714966,181.241180 398.244720,171.142303 
	C392.180237,159.946335 384.267731,149.711304 376.759827,139.347717 
	C367.973267,127.219208 356.008270,118.343254 343.798889,110.141830 
	C329.678467,100.656685 314.434357,93.035606 297.472351,89.833321 
	C285.843872,87.637955 274.185944,85.125076 262.428101,84.215500 
	C249.486450,83.214340 236.641129,85.030159 223.768326,87.689735 
	C209.353821,90.667831 195.784470,95.515915 182.895950,102.146019 
	C163.222107,112.266609 146.656281,126.391869 132.774536,143.680725 
	C119.970062,159.627914 110.459511,177.222244 104.519547,196.847900 
	C97.903152,218.708496 96.094810,240.935196 99.097961,263.461212 
	C101.231834,279.467041 105.722397,294.795288 112.638199,309.602905 
	C121.449776,328.469574 133.196945,344.865112 148.413330,358.946960 
	C160.936066,370.536041 174.778442,380.101746 191.012115,387.513367 
M89.568817,137.000259 
	C94.231590,137.000351 98.907913,137.229980 103.554512,136.955902 
	C115.673920,136.241058 125.758789,130.666428 134.570084,122.813217 
	C143.132050,115.182205 148.861526,105.430229 150.673874,94.199623 
	C151.903839,86.577805 152.158798,78.338737 150.613663,70.836266 
	C148.268295,59.448406 142.334381,49.526691 133.262314,41.703011 
	C119.226959,29.599037 102.860703,25.938839 85.214401,29.529177 
	C73.382446,31.936522 63.423588,38.309517 55.383339,47.914635 
	C44.555962,60.849346 40.572250,75.959610 43.354530,91.698250 
	C47.539593,115.372116 63.389061,131.535110 89.568817,137.000259 
M393.737610,42.049671 
	C384.042145,46.546131 376.681885,53.453968 372.347809,63.288822 
	C369.025116,70.828781 367.746155,78.557556 368.848358,86.987198 
	C370.706543,101.198151 377.964661,111.657661 389.788757,118.814140 
	C397.958160,123.758598 407.033875,125.444489 416.929047,124.172050 
	C431.197083,122.337296 441.554260,114.992455 448.772522,103.273300 
	C453.880646,94.980064 455.443817,85.664627 454.174469,75.649712 
	C452.915436,65.716354 448.905426,57.139084 441.900482,50.747040 
	C428.214600,38.258701 412.206940,34.652054 393.737610,42.049671 
z"/>
<path fill="#FFD43D" opacity="1.000000" stroke="none" 
	d="
M190.700058,387.284241 
	C174.778442,380.101746 160.936066,370.536041 148.413330,358.946960 
	C133.196945,344.865112 121.449776,328.469574 112.638199,309.602905 
	C105.722397,294.795288 101.231834,279.467041 99.097961,263.461212 
	C96.094810,240.935196 97.903152,218.708496 104.519547,196.847900 
	C110.459511,177.222244 119.970062,159.627914 132.774536,143.680725 
	C146.656281,126.391869 163.222107,112.266609 182.895950,102.146019 
	C195.784470,95.515915 209.353821,90.667831 223.768326,87.689735 
	C236.641129,85.030159 249.486450,83.214340 262.428101,84.215500 
	C274.185944,85.125076 285.843872,87.637955 297.472351,89.833321 
	C314.434357,93.035606 329.678467,100.656685 343.798889,110.141830 
	C356.008270,118.343254 367.973267,127.219208 376.759827,139.347717 
	C384.267731,149.711304 392.180237,159.946335 398.244720,171.142303 
	C403.714966,181.241180 407.423492,192.238846 410.420776,203.633362 
	C415.037140,221.183151 415.766724,238.790359 414.752350,256.451538 
	C413.796509,273.092682 410.437531,289.687134 402.845520,304.699860 
	C396.157349,317.925293 388.976532,331.174377 380.045319,342.916107 
	C371.093750,354.684570 359.794983,364.642609 347.418213,373.176788 
	C332.004700,383.804932 315.469788,391.992004 297.248199,396.181976 
	C286.987579,398.541351 276.432800,400.248291 265.935669,400.785156 
	C254.215942,401.384552 242.137207,401.773499 230.714874,399.611542 
	C217.201447,397.053772 204.222656,391.671356 190.700058,387.284241 
M146.364380,308.121643 
	C154.127182,321.449432 163.989670,332.958313 176.064590,342.578308 
	C205.147675,365.748352 238.321732,374.689301 274.930267,369.753815 
	C302.690887,366.011108 326.677704,353.860199 346.698608,334.050507 
	C362.130920,318.780975 373.232574,300.834076 379.380951,280.095398 
	C384.852417,261.639709 386.248047,242.834732 383.290009,223.562698 
	C380.040863,202.393646 372.135895,183.361862 359.455841,166.361252 
	C344.421906,146.204803 325.068420,131.546402 301.387878,122.721558 
	C277.696960,113.892845 253.470139,112.336555 228.888290,117.704872 
	C202.127884,123.548943 179.635147,136.957230 161.246948,157.276810 
	C150.767685,168.856735 142.673157,181.914749 137.062500,196.458572 
	C129.850006,215.154678 126.982536,234.531403 128.881851,254.516968 
	C130.677994,273.416870 136.114014,291.178864 146.364380,308.121643 
z"/>
<path fill="#FFFFFF" opacity="1.000000" stroke="none" 
	d="
M89.124084,137.000214 
	C63.389061,131.535110 47.539593,115.372116 43.354530,91.698250 
	C40.572250,75.959610 44.555962,60.849346 55.383339,47.914635 
	C63.423588,38.309517 73.382446,31.936522 85.214401,29.529177 
	C102.860703,25.938839 119.226959,29.599037 133.262314,41.703011 
	C142.334381,49.526691 148.268295,59.448406 150.613663,70.836266 
	C152.158798,78.338737 151.903839,86.577805 150.673874,94.199623 
	C148.861526,105.430229 143.132050,115.182205 134.570084,122.813217 
	C125.758789,130.666428 115.673920,136.241058 103.554512,136.955902 
	C98.907913,137.229980 94.231590,137.000351 89.124084,137.000214 
M76.986740,69.502151 
	C76.986458,83.308548 76.945274,97.115128 77.006096,110.921249 
	C77.030289,116.414406 78.708420,118.001816 84.116554,118.011932 
	C93.098999,118.028748 102.084549,117.878448 111.062660,118.076439 
	C115.363869,118.171295 117.069115,116.462547 117.051102,112.224777 
	C116.969788,93.095779 116.970947,73.966042 117.050606,54.837017 
	C117.068047,50.646790 115.464554,48.830708 111.118019,48.923904 
	C101.973404,49.119984 92.817001,49.157513 83.674706,48.913265 
	C78.784409,48.782619 77.123917,51.301868 77.011665,55.529617 
	C76.896912,59.851463 76.986557,64.178734 76.986740,69.502151 
z"/>
<path fill="#54FA3F" opacity="1.000000" stroke="none" 
	d="
M394.122375,41.976017 
	C412.206940,34.652054 428.214600,38.258701 441.900482,50.747040 
	C448.905426,57.139084 452.915436,65.716354 454.174469,75.649712 
	C455.443817,85.664627 453.880646,94.980064 448.772522,103.273300 
	C441.554260,114.992455 431.197083,122.337296 416.929047,124.172050 
	C407.033875,125.444489 397.958160,123.758598 389.788757,118.814140 
	C377.964661,111.657661 370.706543,101.198151 368.848358,86.987198 
	C367.746155,78.557556 369.025116,70.828781 372.347809,63.288822 
	C376.681885,53.453968 384.042145,46.546131 394.122375,41.976017 
z"/>
<path fill="#FDFDFC" opacity="1.000000" stroke="none" 
	d="
M146.185303,307.801025 
	C136.114014,291.178864 130.677994,273.416870 128.881851,254.516968 
	C126.982536,234.531403 129.850006,215.154678 137.062500,196.458572 
	C142.673157,181.914749 150.767685,168.856735 161.246948,157.276810 
	C179.635147,136.957230 202.127884,123.548943 228.888290,117.704872 
	C253.470139,112.336555 277.696960,113.892845 301.387878,122.721558 
	C325.068420,131.546402 344.421906,146.204803 359.455841,166.361252 
	C372.135895,183.361862 380.040863,202.393646 383.290009,223.562698 
	C386.248047,242.834732 384.852417,261.639709 379.380951,280.095398 
	C373.232574,300.834076 362.130920,318.780975 346.698608,334.050507 
	C326.677704,353.860199 302.690887,366.011108 274.930267,369.753815 
	C238.321732,374.689301 205.147675,365.748352 176.064590,342.578308 
	C163.989670,332.958313 154.127182,321.449432 146.185303,307.801025 
M175.962921,254.500000 
	C175.963974,271.990479 175.920090,289.481140 175.987717,306.971344 
	C176.015549,314.166687 178.873581,316.947662 185.971512,317.055420 
	C188.250687,317.090027 190.530838,317.060852 193.216660,317.060852 
	C193.216660,322.557648 193.087494,327.523773 193.248932,332.480438 
	C193.456970,338.868866 197.674072,343.033386 203.976944,343.309540 
	C205.805847,343.389709 207.641373,343.344910 209.473434,343.322968 
	C217.385590,343.228210 221.495209,339.235596 221.642044,331.379761 
	C221.728348,326.762543 221.657806,322.142395 221.657806,317.390076 
	C244.027634,317.390076 265.901123,317.390076 288.064148,317.390076 
	C288.064148,321.193878 288.063965,324.671173 288.064209,328.148499 
	C288.065094,340.353668 291.150330,343.385712 303.509613,343.327759 
	C312.706146,343.284637 316.446991,339.548340 316.548706,330.233917 
	C316.595306,325.965881 316.556641,321.696899 316.556641,317.050842 
	C320.312927,317.050842 323.445801,317.039673 326.578583,317.053528 
	C331.032562,317.073273 333.351593,314.688477 333.823181,310.438232 
	C334.061035,308.294495 334.029327,306.114960 334.029907,303.951630 
	C334.040680,265.472076 334.037720,226.992508 334.037720,188.512955 
	C334.037720,186.714859 334.037720,184.916763 334.037720,183.067932 
	C337.959106,182.660019 339.769592,183.987015 339.649841,187.748306 
	C339.522705,191.742157 339.620850,195.743149 339.620789,199.741028 
	C339.620697,206.832535 339.620758,213.924057 339.620758,221.237564 
	C341.301392,221.237564 342.283600,221.232925 343.265747,221.238281 
	C352.032043,221.286102 354.916077,218.426727 354.921814,209.672363 
	C354.925201,204.508438 354.880310,199.344055 354.935822,194.180725 
	C354.983521,189.742371 353.255035,186.486023 349.049133,184.717850 
	C348.299835,184.402832 347.055328,184.076309 346.958649,183.577133 
	C345.553864,176.322159 339.645630,176.360168 334.235779,175.711868 
	C330.221039,159.993256 319.454193,152.679962 304.155029,150.665909 
	C274.777557,146.798553 245.351608,146.952545 215.912323,149.573837 
	C209.316330,150.161163 202.502304,150.767776 196.311356,152.890198 
	C185.509216,156.593475 177.996063,164.089264 175.888260,175.965363 
	C165.103317,174.692154 162.481476,184.710739 156.104187,189.335739 
	C155.318970,189.905212 155.283417,191.802887 155.267883,193.089508 
	C155.189438,199.585098 154.892471,206.109161 155.404724,212.565109 
	C155.602890,215.062347 157.145370,218.545319 159.115082,219.559006 
	C162.234360,221.164291 166.228317,221.069962 170.388412,221.787277 
	C170.388412,209.882416 170.467926,199.088348 170.345444,188.296585 
	C170.302368,184.501541 171.691864,182.654785 175.962921,183.064331 
	C175.962921,206.578842 175.962921,230.039413 175.962921,254.500000 
z"/>
<path fill="#090909" opacity="1.000000" stroke="none" 
	d="
M76.986740,69.002892 
	C76.986557,64.178734 76.896912,59.851463 77.011665,55.529617 
	C77.123917,51.301868 78.784409,48.782619 83.674706,48.913265 
	C92.817001,49.157513 101.973404,49.119984 111.118019,48.923904 
	C115.464554,48.830708 117.068047,50.646790 117.050606,54.837017 
	C116.970947,73.966042 116.969788,93.095779 117.051102,112.224777 
	C117.069115,116.462547 115.363869,118.171295 111.062660,118.076439 
	C102.084549,117.878448 93.098999,118.028748 84.116554,118.011932 
	C78.708420,118.001816 77.030289,116.414406 77.006096,110.921249 
	C76.945274,97.115128 76.986458,83.308548 76.986740,69.002892 
M113.222359,68.516457 
	C113.222359,64.777222 113.222359,61.037991 113.222359,57.343658 
	C102.234161,57.343658 91.996712,57.343658 81.510956,57.343658 
	C81.510956,72.294624 81.510956,87.000946 81.510956,101.973801 
	C92.061966,101.973801 102.431152,101.973801 113.222366,101.973801 
	C113.222366,91.030632 113.222366,80.270554 113.222359,68.516457 
M94.734055,108.363411 
	C95.087990,109.905472 95.150269,111.632378 95.948952,112.892570 
	C96.241234,113.353737 98.853088,113.148056 99.383041,112.459099 
	C100.101730,111.524780 100.367317,108.920670 99.890244,108.643051 
	C98.613579,107.900154 96.837372,108.015717 94.734055,108.363411 
M102.301117,54.055950 
	C103.259323,53.760838 104.217522,53.465725 105.175728,53.170612 
	C105.068459,52.928009 104.961197,52.685406 104.853928,52.442802 
	C99.792900,52.442802 94.731865,52.442802 89.670830,52.442802 
	C89.676994,52.980713 89.683167,53.518620 89.689339,54.056530 
	C93.570686,54.056530 97.452042,54.056530 102.301117,54.055950 
z"/>
<path fill="#040404" opacity="1.000000" stroke="none" 
	d="
M175.962921,254.000000 
	C175.962921,230.039413 175.962921,206.578842 175.962921,183.064331 
	C171.691864,182.654785 170.302368,184.501541 170.345444,188.296585 
	C170.467926,199.088348 170.388412,209.882416 170.388412,221.787277 
	C166.228317,221.069962 162.234360,221.164291 159.115082,219.559006 
	C157.145370,218.545319 155.602890,215.062347 155.404724,212.565109 
	C154.892471,206.109161 155.189438,199.585098 155.267883,193.089508 
	C155.283417,191.802887 155.318970,189.905212 156.104187,189.335739 
	C162.481476,184.710739 165.103317,174.692154 175.888260,175.965363 
	C177.996063,164.089264 185.509216,156.593475 196.311356,152.890198 
	C202.502304,150.767776 209.316330,150.161163 215.912323,149.573837 
	C245.351608,146.952545 274.777557,146.798553 304.155029,150.665909 
	C319.454193,152.679962 330.221039,159.993256 334.235779,175.711868 
	C339.645630,176.360168 345.553864,176.322159 346.958649,183.577133 
	C347.055328,184.076309 348.299835,184.402832 349.049133,184.717850 
	C353.255035,186.486023 354.983521,189.742371 354.935822,194.180725 
	C354.880310,199.344055 354.925201,204.508438 354.921814,209.672363 
	C354.916077,218.426727 352.032043,221.286102 343.265747,221.238281 
	C342.283600,221.232925 341.301392,221.237564 339.620758,221.237564 
	C339.620758,213.924057 339.620697,206.832535 339.620789,199.741028 
	C339.620850,195.743149 339.522705,191.742157 339.649841,187.748306 
	C339.769592,183.987015 337.959106,182.660019 334.037720,183.067932 
	C334.037720,184.916763 334.037720,186.714859 334.037720,188.512955 
	C334.037720,226.992508 334.040680,265.472076 334.029907,303.951630 
	C334.029327,306.114960 334.061035,308.294495 333.823181,310.438232 
	C333.351593,314.688477 331.032562,317.073273 326.578583,317.053528 
	C323.445801,317.039673 320.312927,317.050842 316.556641,317.050842 
	C316.556641,321.696899 316.595306,325.965881 316.548706,330.233917 
	C316.446991,339.548340 312.706146,343.284637 303.509613,343.327759 
	C291.150330,343.385712 288.065094,340.353668 288.064209,328.148499 
	C288.063965,324.671173 288.064148,321.193878 288.064148,317.390076 
	C265.901123,317.390076 244.027634,317.390076 221.657806,317.390076 
	C221.657806,322.142395 221.728348,326.762543 221.642044,331.379761 
	C221.495209,339.235596 217.385590,343.228210 209.473434,343.322968 
	C207.641373,343.344910 205.805847,343.389709 203.976944,343.309540 
	C197.674072,343.033386 193.456970,338.868866 193.248932,332.480438 
	C193.087494,327.523773 193.216660,322.557648 193.216660,317.060852 
	C190.530838,317.060852 188.250687,317.090027 185.971512,317.055420 
	C178.873581,316.947662 176.015549,314.166687 175.987717,306.971344 
	C175.920090,289.481140 175.963974,271.990479 175.962921,254.000000 
M323.257812,179.483521 
	C321.696869,179.084702 320.136414,178.339844 318.574890,178.337540 
	C275.921173,178.274704 233.267288,178.310242 190.613571,178.248581 
	C186.871918,178.243164 185.144867,179.491760 185.162476,183.461212 
	C185.260071,205.454147 185.250793,227.447906 185.160385,249.440918 
	C185.148041,252.443542 186.263199,254.037231 189.097366,254.870758 
	C232.753830,267.709717 276.395294,268.274872 320.081909,254.972626 
	C323.551575,253.916153 324.168945,251.862427 324.151550,248.660492 
	C324.047424,229.500168 324.116302,210.338943 324.085236,191.178116 
	C324.079315,187.524567 323.886292,183.871338 323.257812,179.483521 
M243.546524,169.772324 
	C253.522263,169.772568 263.504761,169.555450 273.470917,169.864868 
	C278.444885,170.019318 279.197235,167.762863 279.178040,163.520477 
	C279.159576,159.438034 278.351166,157.469986 273.679382,157.573196 
	C261.215820,157.848587 248.739731,157.804245 236.273743,157.589584 
	C232.090897,157.517548 230.719330,158.957321 230.861404,163.079819 
	C231.088669,169.674042 230.952484,169.759369 237.577591,169.772247 
	C239.240219,169.775482 240.902832,169.772461 243.546524,169.772324 
M197.557327,278.956940 
	C195.427155,277.675568 193.315384,276.362366 191.163544,275.118469 
	C182.375519,270.038391 182.287003,270.091278 181.921982,280.034332 
	C181.879379,281.194122 181.857681,282.355957 181.770187,283.512573 
	C181.476822,287.390717 183.190201,289.406250 187.137436,289.649292 
	C194.584106,290.107727 202.022446,290.701263 209.469315,291.155853 
	C210.314575,291.207458 211.192261,290.728058 213.689224,290.053101 
	C207.773010,285.974030 202.969528,282.662140 197.557327,278.956940 
M317.465363,275.943970 
	C310.672729,280.289490 303.367645,283.956757 297.995544,290.571655 
	C305.600983,290.802368 312.948120,290.346161 320.291840,289.840302 
	C327.943970,289.313202 328.454620,288.724152 328.140839,281.138733 
	C327.685120,270.122620 327.685150,270.122620 317.465363,275.943970 
M258.494812,307.238159 
	C261.975433,307.238403 265.463989,307.093170 268.934235,307.283020 
	C271.943237,307.447601 272.585571,306.001678 272.496521,303.378265 
	C272.413055,300.918854 272.611298,298.826538 269.007111,298.897308 
	C259.894745,299.076172 250.774368,299.070648 241.661743,298.898499 
	C238.182281,298.832825 238.080383,300.721985 238.041641,303.305969 
	C238.002777,305.898773 238.575089,307.369293 241.587494,307.281921 
	C246.886826,307.128265 252.193802,307.238434 258.494812,307.238159 
M184.731247,300.068207 
	C184.742310,302.096100 184.357147,304.263428 184.993286,306.071381 
	C185.197952,306.653107 188.578064,306.943787 189.624039,306.172424 
	C190.683929,305.390778 191.453445,302.101990 190.951233,301.711761 
	C189.446350,300.542480 187.257797,300.253082 184.731247,300.068207 
z"/>
<path fill="#FBFBFB" opacity="1.000000" stroke="none" 
	d="
M113.222366,69.013474 
	C113.222366,80.270554 113.222366,91.030632 113.222366,101.973801 
	C102.431152,101.973801 92.061966,101.973801 81.510956,101.973801 
	C81.510956,87.000946 81.510956,72.294624 81.510956,57.343658 
	C91.996712,57.343658 102.234161,57.343658 113.222359,57.343658 
	C113.222359,61.037991 113.222359,64.777222 113.222366,69.013474 
z"/>
<path fill="#ECECEC" opacity="1.000000" stroke="none" 
	d="
M94.996841,108.076813 
	C96.837372,108.015717 98.613579,107.900154 99.890244,108.643051 
	C100.367317,108.920670 100.101730,111.524780 99.383041,112.459099 
	C98.853088,113.148056 96.241234,113.353737 95.948952,112.892570 
	C95.150269,111.632378 95.087990,109.905472 94.996841,108.076813 
z"/>
<path fill="#F4F4F4" opacity="1.000000" stroke="none" 
	d="
M101.817253,54.056240 
	C97.452042,54.056530 93.570686,54.056530 89.689339,54.056530 
	C89.683167,53.518620 89.676994,52.980713 89.670830,52.442802 
	C94.731865,52.442802 99.792900,52.442802 104.853928,52.442802 
	C104.961197,52.685406 105.068459,52.928009 105.175728,53.170612 
	C104.217522,53.465725 103.259323,53.760838 101.817253,54.056240 
z"/>
<path fill="#FDFDFD" opacity="1.000000" stroke="none" 
	d="
M323.518677,179.850739 
	C323.886292,183.871338 324.079315,187.524567 324.085236,191.178116 
	C324.116302,210.338943 324.047424,229.500168 324.151550,248.660492 
	C324.168945,251.862427 323.551575,253.916153 320.081909,254.972626 
	C276.395294,268.274872 232.753830,267.709717 189.097366,254.870758 
	C186.263199,254.037231 185.148041,252.443542 185.160385,249.440918 
	C185.250793,227.447906 185.260071,205.454147 185.162476,183.461212 
	C185.144867,179.491760 186.871918,178.243164 190.613571,178.248581 
	C233.267288,178.310242 275.921173,178.274704 318.574890,178.337540 
	C320.136414,178.339844 321.696869,179.084702 323.518677,179.850739 
z"/>
<path fill="#F7F7F7" opacity="1.000000" stroke="none" 
	d="
M243.056000,169.772308 
	C240.902832,169.772461 239.240219,169.775482 237.577591,169.772247 
	C230.952484,169.759369 231.088669,169.674042 230.861404,163.079819 
	C230.719330,158.957321 232.090897,157.517548 236.273743,157.589584 
	C248.739731,157.804245 261.215820,157.848587 273.679382,157.573196 
	C278.351166,157.469986 279.159576,159.438034 279.178040,163.520477 
	C279.197235,167.762863 278.444885,170.019318 273.470917,169.864868 
	C263.504761,169.555450 253.522263,169.772568 243.056000,169.772308 
z"/>
<path fill="#F5F5F5" opacity="1.000000" stroke="none" 
	d="
M197.861694,279.153625 
	C202.969528,282.662140 207.773010,285.974030 213.689224,290.053101 
	C211.192261,290.728058 210.314575,291.207458 209.469315,291.155853 
	C202.022446,290.701263 194.584106,290.107727 187.137436,289.649292 
	C183.190201,289.406250 181.476822,287.390717 181.770187,283.512573 
	C181.857681,282.355957 181.879379,281.194122 181.921982,280.034332 
	C182.287003,270.091278 182.375519,270.038391 191.163544,275.118469 
	C193.315384,276.362366 195.427155,277.675568 197.861694,279.153625 
z"/>
<path fill="#F5F5F5" opacity="1.000000" stroke="none" 
	d="
M317.782593,275.753418 
	C327.685150,270.122620 327.685120,270.122620 328.140839,281.138733 
	C328.454620,288.724152 327.943970,289.313202 320.291840,289.840302 
	C312.948120,290.346161 305.600983,290.802368 297.995544,290.571655 
	C303.367645,283.956757 310.672729,280.289490 317.782593,275.753418 
z"/>
<path fill="#F8F8F8" opacity="1.000000" stroke="none" 
	d="
M257.996216,307.238159 
	C252.193802,307.238434 246.886826,307.128265 241.587494,307.281921 
	C238.575089,307.369293 238.002777,305.898773 238.041641,303.305969 
	C238.080383,300.721985 238.182281,298.832825 241.661743,298.898499 
	C250.774368,299.070648 259.894745,299.076172 269.007111,298.897308 
	C272.611298,298.826538 272.413055,300.918854 272.496521,303.378265 
	C272.585571,306.001678 271.943237,307.447601 268.934235,307.283020 
	C265.463989,307.093170 261.975433,307.238403 257.996216,307.238159 
z"/>
<path fill="#E6E6E6" opacity="1.000000" stroke="none" 
	d="
M185.033676,299.844238 
	C187.257797,300.253082 189.446350,300.542480 190.951233,301.711761 
	C191.453445,302.101990 190.683929,305.390778 189.624039,306.172424 
	C188.578064,306.943787 185.197952,306.653107 184.993286,306.071381 
	C184.357147,304.263428 184.742310,302.096100 185.033676,299.844238 
z"/>
</svg>