<svg version="1.1" id="Layer_1" xmlns="http://www.w3.org/2000/svg" xmlns:xlink="http://www.w3.org/1999/xlink" x="0px" y="0px"
	 width="100%" viewBox="0 0 500 500" enable-background="new 0 0 500 500" xml:space="preserve">
<path fill="#FFFFFF" opacity="0.000000" stroke="none" 
	d="
M501.000000,185.000000 
	C501.000000,290.666656 501.000000,395.833282 501.000000,500.999939 
	C334.333405,500.999969 167.666794,500.999969 1.000146,501.000000 
	C1.000097,334.333435 1.000097,167.666870 1.000049,1.000235 
	C167.666519,1.000157 334.333038,1.000157 500.999786,1.000078 
	C501.000000,62.166668 501.000000,123.333336 501.000000,185.000000 
M159.090881,116.011154 
	C157.150146,116.011154 155.209412,116.011154 153.238037,116.011154 
	C153.238037,113.768059 153.238037,112.024391 153.238037,109.904724 
	C155.883575,109.904724 158.296478,109.904724 160.755463,109.904724 
	C160.755463,91.767601 160.755463,74.020103 160.755463,55.891541 
	C158.104340,55.891541 155.693756,55.891541 152.901443,55.891541 
	C152.901443,51.430618 152.901443,47.336586 152.901443,42.888390 
	C150.095123,42.888390 147.679947,42.888390 144.892242,42.888390 
	C144.892242,40.099274 144.892242,37.680298 144.892242,34.896450 
	C142.089600,34.896450 139.667404,34.896450 136.892426,34.896450 
	C136.892426,33.109173 136.892426,31.698881 136.892426,29.917088 
	C134.111954,29.917088 131.688873,29.917088 129.327927,29.917088 
	C129.036270,28.018570 128.802399,26.496191 128.568512,24.973812 
	C128.248856,25.351587 127.929176,25.729364 127.609505,26.107140 
	C124.642761,24.738525 121.742012,22.380138 118.697548,22.177153 
	C107.143166,21.406773 95.543694,21.203369 83.957947,21.078564 
	C80.420868,21.040461 76.873749,21.935535 73.279877,22.410025 
	C73.039543,23.596575 72.795578,24.801079 72.519775,26.162766 
	C69.936302,26.162766 67.641495,26.162766 65.314522,26.162766 
	C65.042938,27.566948 64.809212,28.775381 64.543983,30.146742 
	C61.964184,30.146742 59.672554,30.146742 57.014565,30.146742 
	C57.014565,32.098877 57.014565,33.858284 57.014565,35.984444 
	C54.231430,35.984444 51.811420,35.984444 49.015022,35.984444 
	C49.015022,38.774849 49.015022,41.191898 49.015022,43.984116 
	C46.225559,43.984116 43.810810,43.984116 41.010666,43.984116 
	C41.010666,48.106903 41.010666,51.867901 41.010666,55.990513 
	C38.215313,55.990513 35.804028,55.990513 33.200897,55.990513 
	C33.200897,74.120743 33.200897,91.867722 33.200897,109.998421 
	C35.785427,109.998421 38.208099,109.998421 40.999599,109.998421 
	C40.999599,113.790344 40.999599,117.209267 40.999599,121.002159 
	C43.796333,121.002159 46.209469,121.002159 49.001396,121.002159 
	C49.001396,124.127197 49.001396,126.877876 49.001396,130.002045 
	C51.798946,130.002045 54.217396,130.002045 56.999611,130.002045 
	C56.999611,132.114609 56.999611,133.869308 56.999611,135.993774 
	C59.790211,135.993774 62.216927,135.993774 64.661613,135.993774 
	C64.955177,137.553329 65.183189,138.764618 65.411201,139.975891 
	C65.703163,139.609528 65.995125,139.243149 66.287086,138.876785 
	C69.243126,140.250610 72.110413,142.537003 75.171112,142.834641 
	C86.296906,143.916550 97.481140,144.584183 108.656960,144.864014 
	C112.582703,144.962296 118.388748,144.816284 120.090271,142.448883 
	C123.116158,138.238785 125.969955,141.007568 129.155746,140.006546 
	C129.155746,143.028488 129.155746,145.506989 128.915009,148.507889 
	C128.605545,148.724106 128.296066,148.940323 127.086708,149.011154 
	C125.180641,149.011154 123.274567,149.011154 121.155617,149.011154 
	C121.155617,152.900085 121.155617,156.442688 120.915588,160.507385 
	C120.607132,160.724594 120.298676,160.941788 119.089417,161.011307 
	C117.180084,161.011307 115.270744,161.011307 113.155479,161.011307 
	C113.155479,165.571594 113.155479,169.778351 113.016449,174.627640 
	C112.674362,175.138092 112.332283,175.648544 111.088860,176.011276 
	C109.175385,176.011276 107.261909,176.011276 105.155357,176.011276 
	C105.155357,181.915710 105.155357,187.450333 105.034851,193.741989 
	C104.686661,194.881012 104.338470,196.020020 103.088882,197.011276 
	C101.158920,197.011276 99.228958,197.011276 97.272491,197.011276 
	C97.272491,227.932159 97.272491,258.411713 97.272491,288.840942 
	C99.693573,288.840942 101.841919,288.840942 104.598694,289.223724 
	C104.784294,290.154114 104.969902,291.084473 105.011147,292.943970 
	C105.011147,298.279388 105.011147,303.614807 105.011147,308.843872 
	C107.742226,308.843872 109.864143,308.843872 112.596771,309.223267 
	C112.783150,310.153595 112.969528,311.083954 113.011200,312.938477 
	C113.011200,316.940979 113.011200,320.943451 113.011200,324.840973 
	C115.761368,324.840973 117.875793,324.840973 120.510231,325.085266 
	C120.725471,325.394928 120.940712,325.704559 121.011223,326.932220 
	C121.011223,330.271210 121.011223,333.610168 121.011223,336.843781 
	C123.768219,336.843781 125.877205,336.843781 128.508286,337.085144 
	C128.724213,337.394775 128.940140,337.704407 129.011230,338.921722 
	C129.011230,341.600067 129.011230,344.278412 129.011230,346.843658 
	C131.779099,346.843658 133.882721,346.843658 136.508255,347.084991 
	C136.724396,347.394379 136.940552,347.703766 137.011551,348.911194 
	C137.011551,351.260559 137.011551,353.609924 137.011551,355.840973 
	C139.787155,355.840973 141.888687,355.840973 144.595734,356.206512 
	C149.215164,360.381897 153.681549,364.745575 158.506424,368.668243 
	C161.869690,371.402588 165.652374,373.651459 169.375534,375.906067 
	C176.067383,379.958435 182.638016,384.306000 189.669952,387.672394 
	C195.577148,390.500305 202.028809,392.233551 208.312302,394.221069 
	C214.845169,396.287445 221.355515,398.876984 228.073334,399.800964 
	C238.177353,401.190643 248.446609,401.489716 258.659637,401.919525 
	C262.575714,402.084381 266.548401,401.474396 270.463318,400.969482 
	C277.153076,400.106720 283.919556,399.485870 290.466766,397.960602 
	C298.493988,396.090546 306.497131,393.840637 314.200073,390.932251 
	C322.003571,387.985870 329.518585,384.215424 336.983673,380.455872 
	C341.260590,378.301941 345.395325,375.727722 349.216339,372.842468 
	C353.696167,369.459747 357.765686,365.533691 362.905457,361.988678 
	C364.848358,361.988678 366.791290,361.988678 368.994598,361.988678 
	C368.994598,359.412079 368.994598,357.280701 369.504852,354.999390 
	C369.674316,354.947357 369.843811,354.895355 370.908936,354.988800 
	C372.811432,354.988800 374.713898,354.988800 376.843567,354.988800 
	C376.843567,352.109222 376.843567,349.561371 377.084991,346.491699 
	C377.394409,346.275574 377.703827,346.059448 378.910614,345.988800 
	C380.814087,345.988800 382.717590,345.988800 384.843719,345.988800 
	C384.843719,342.772278 384.843719,339.893005 384.983429,336.371216 
	C385.326691,335.861908 385.669952,335.352600 386.912262,334.988800 
	C388.817108,334.988800 390.721924,334.988800 392.844299,334.988800 
	C392.844299,331.436188 392.844299,328.225403 392.983551,324.371796 
	C393.326843,323.862366 393.670135,323.352936 394.914368,322.988861 
	C396.823059,322.988861 398.731750,322.988861 400.844482,322.988861 
	C400.844482,318.427368 400.844482,314.221100 400.983490,309.372314 
	C401.325592,308.861877 401.667694,308.351440 402.911163,307.988739 
	C404.825470,307.988739 406.739807,307.988739 408.844879,307.988739 
	C408.844879,301.748657 408.844879,295.882019 408.965240,289.258270 
	C409.313385,288.119171 409.661560,286.980042 410.911133,285.988739 
	C412.840881,285.988739 414.770599,285.988739 416.727173,285.988739 
	C416.727173,256.734711 416.727173,227.921219 416.727173,199.159012 
	C414.306000,199.159012 412.157898,199.159012 409.375763,198.735992 
	C409.198608,197.485794 409.021484,196.235611 408.988831,194.056305 
	C408.988831,188.720596 408.988831,183.384888 408.988831,178.158966 
	C406.254150,178.158966 404.131989,178.158966 401.439240,177.833725 
	C401.240967,177.217575 401.042664,176.601425 400.988739,175.060013 
	C400.988739,170.722961 400.988739,166.385910 400.988739,162.158997 
	C398.243011,162.158997 396.126404,162.158997 393.489777,161.914749 
	C393.274536,161.605072 393.059326,161.295395 392.988800,160.067734 
	C392.988800,156.728760 392.988800,153.389801 392.988800,150.156265 
	C390.232208,150.156265 388.122986,150.156265 385.491699,149.914841 
	C385.275787,149.605209 385.059875,149.295563 384.988770,148.078278 
	C384.988770,145.399933 384.988770,142.721588 384.988770,140.156418 
	C382.220825,140.156418 380.117188,140.156418 377.491577,139.914856 
	C377.275696,139.605240 377.059784,139.295624 376.988922,138.086456 
	C376.988922,136.148926 376.988922,134.211395 376.988922,132.142426 
	C379.765869,132.142426 382.059998,132.142426 384.572937,132.142426 
	C384.885559,133.410248 385.208160,134.718597 385.648468,136.504410 
	C394.881165,137.346619 403.968506,139.025330 412.999237,138.761963 
	C422.152527,138.495026 431.249908,136.308823 440.554718,134.936249 
	C440.884705,133.593170 441.206879,132.281998 441.571106,130.799622 
	C444.144684,130.799622 446.427032,130.799622 449.073425,130.799622 
	C449.073425,128.803085 449.073425,127.056320 449.073425,124.935661 
	C451.850006,124.935661 454.276733,124.935661 457.061951,124.935661 
	C457.061951,121.808746 457.061951,119.059883 457.061951,115.938721 
	C459.853363,115.938721 462.264008,115.938721 465.055542,115.938721 
	C465.055542,110.813248 465.055542,106.056282 465.055542,100.938286 
	C467.852570,100.938286 470.262238,100.938286 472.780060,100.938286 
	C472.780060,87.813591 472.780060,75.071495 472.780060,61.948929 
	C470.157166,61.948929 467.747345,61.948929 464.956055,61.948929 
	C464.956055,56.826591 464.956055,52.069176 464.956055,46.950943 
	C462.157257,46.950943 459.745148,46.950943 456.957825,46.950943 
	C456.957825,43.828075 456.957825,41.078762 456.957825,37.959808 
	C454.160217,37.959808 451.742188,37.959808 448.962402,37.959808 
	C448.962402,35.836823 448.962402,34.089539 448.962402,31.975454 
	C446.171783,31.975454 443.745361,31.975454 441.359436,31.975454 
	C441.039795,30.404833 440.794769,29.200886 440.725159,28.858812 
	C421.985596,23.648075 403.705780,21.628551 385.163879,27.983389 
	C385.040253,28.595047 384.796936,29.798948 384.521484,31.161900 
	C381.943604,31.161900 379.652344,31.161900 377.306274,31.161900 
	C377.051147,32.901604 376.825409,34.440872 376.549164,36.324440 
	C373.850342,36.324440 371.443176,36.324440 368.669891,36.324440 
	C368.669891,38.809238 368.669891,40.882141 368.669891,43.143116 
	C365.989288,43.143116 363.697357,43.143116 361.463135,43.143116 
	C361.006714,47.372631 360.944977,51.476379 360.034637,55.382343 
	C359.132416,59.253521 357.164886,62.863213 356.030823,66.695953 
	C352.185089,79.693123 353.695465,92.276985 358.868469,104.692841 
	C360.414978,108.404655 360.787079,112.605774 361.828430,117.155800 
	C358.307465,117.155800 356.160950,117.155800 353.377808,116.829826 
	C349.562256,113.576317 345.995605,109.952660 341.861511,107.172890 
	C337.686249,104.365448 332.959106,102.373894 328.453644,100.064041 
	C325.119324,98.354614 321.875641,96.359131 318.368591,95.124374 
	C314.276581,93.683670 309.971863,92.787102 305.707123,91.908195 
	C292.606720,89.208397 279.586914,85.630623 266.341705,84.231377 
	C244.867661,81.962868 223.996765,87.141121 203.277542,92.164810 
	C200.034882,92.951042 197.031891,94.775040 193.962357,96.213654 
	C189.962418,98.088326 186.013962,100.072487 182.029938,101.981499 
	C178.116699,103.856590 173.946060,105.323570 170.330627,107.655334 
	C166.604813,110.058258 163.412537,113.288452 159.090881,116.011154 
z"/>
<path fill="#FFD43D" opacity="1.000000" stroke="none" 
	d="
M370.013275,354.843353 
	C369.843811,354.895355 369.674316,354.947357 368.902405,355.105927 
	C366.204376,357.422729 364.108765,359.633026 362.013184,361.843292 
	C357.765686,365.533691 353.696167,369.459747 349.216339,372.842468 
	C345.395325,375.727722 341.260590,378.301941 336.983673,380.455872 
	C329.518585,384.215424 322.003571,387.985870 314.200073,390.932251 
	C306.497131,393.840637 298.493988,396.090546 290.466766,397.960602 
	C283.919556,399.485870 277.153076,400.106720 270.463318,400.969482 
	C266.548401,401.474396 262.575714,402.084381 258.659637,401.919525 
	C248.446609,401.489716 238.177353,401.190643 228.073334,399.800964 
	C221.355515,398.876984 214.845169,396.287445 208.312302,394.221069 
	C202.028809,392.233551 195.577148,390.500305 189.669952,387.672394 
	C182.638016,384.306000 176.067383,379.958435 169.375534,375.906067 
	C165.652374,373.651459 161.869690,371.402588 158.506424,368.668243 
	C153.681549,364.745575 149.215164,360.381897 144.292877,355.681915 
	C141.712250,352.775940 139.434464,350.394562 137.156693,348.013153 
	C136.940552,347.703766 136.724396,347.394379 136.125748,346.653503 
	C133.547516,343.486053 131.351791,340.750031 129.156067,338.014038 
	C128.940140,337.704407 128.724213,337.394775 128.119019,336.644745 
	C125.538475,332.807648 123.347214,329.410919 121.155952,326.014221 
	C120.940712,325.704559 120.725471,325.394928 120.248062,324.604828 
	C117.709229,320.087677 115.432564,316.050995 113.155907,312.014282 
	C112.969528,311.083954 112.783150,310.153595 112.149460,308.699951 
	C109.519936,302.789398 107.337723,297.402130 105.155502,292.014862 
	C104.969902,291.084473 104.784294,290.154114 104.298630,288.624756 
	C103.945221,286.870331 104.157501,285.623932 103.797752,284.573425 
	C99.858131,273.069458 97.674332,261.248444 98.067024,249.099762 
	C98.412048,238.425995 99.005432,227.736862 100.112961,217.119614 
	C100.813461,210.404327 102.658554,203.808472 103.990280,197.159042 
	C104.338470,196.020020 104.686661,194.881012 105.422813,193.197052 
	C107.870583,187.154419 109.930389,181.656708 111.990196,176.158997 
	C112.332283,175.648544 112.674362,175.138092 113.406525,174.150223 
	C115.861145,169.501541 117.925682,165.330276 119.990219,161.158997 
	C120.298676,160.941788 120.607132,160.724594 121.349396,160.099579 
	C123.850998,156.180023 125.918793,152.668274 127.986588,149.156540 
	C128.296066,148.940323 128.605545,148.724106 129.344055,148.106964 
	C135.402817,141.385101 140.890228,134.929276 146.710007,128.788483 
	C150.906387,124.360649 155.545303,120.352203 159.986816,116.156693 
	C163.412537,113.288452 166.604813,110.058258 170.330627,107.655334 
	C173.946060,105.323570 178.116699,103.856590 182.029938,101.981499 
	C186.013962,100.072487 189.962418,98.088326 193.962357,96.213654 
	C197.031891,94.775040 200.034882,92.951042 203.277542,92.164810 
	C223.996765,87.141121 244.867661,81.962868 266.341705,84.231377 
	C279.586914,85.630623 292.606720,89.208397 305.707123,91.908195 
	C309.971863,92.787102 314.276581,93.683670 318.368591,95.124374 
	C321.875641,96.359131 325.119324,98.354614 328.453644,100.064041 
	C332.959106,102.373894 337.686249,104.365448 341.861511,107.172890 
	C345.995605,109.952660 349.562256,113.576317 353.829956,117.296890 
	C356.468292,119.506187 358.654480,121.248421 360.964050,123.249130 
	C361.394745,123.724815 361.702087,123.942032 362.132690,124.468750 
	C364.450897,126.515717 366.645813,128.253189 368.964050,130.249130 
	C369.394745,130.724823 369.702087,130.942032 370.127930,131.464294 
	C372.445618,134.174911 374.644745,136.580460 376.843903,138.985992 
	C377.059784,139.295624 377.275696,139.605240 377.872498,140.344879 
	C380.450256,143.511917 382.647095,146.248917 384.843933,148.985931 
	C385.059875,149.295563 385.275787,149.605209 385.879395,150.353729 
	C388.459412,154.190323 390.651764,157.588028 392.844116,160.985718 
	C393.059326,161.295395 393.274536,161.605072 393.751984,162.395386 
	C396.290924,167.245758 398.567657,171.615524 400.844391,175.985275 
	C401.042664,176.601425 401.240967,177.217575 401.728210,178.365295 
	C404.292877,184.259705 406.568604,189.622559 408.844330,194.985413 
	C409.021484,196.235611 409.198608,197.485794 409.688599,199.364319 
	C411.349274,208.304779 412.964874,216.584183 413.984650,224.936356 
	C415.685760,238.868393 416.020569,252.807205 413.169617,266.696991 
	C411.870178,273.027802 411.048218,279.456604 410.009705,285.840942 
	C409.661560,286.980042 409.313385,288.119171 408.574097,289.810547 
	C406.125244,296.188904 404.067505,302.014954 402.009766,307.841003 
	C401.667694,308.351440 401.325592,308.861877 400.593384,309.849823 
	C398.139984,314.499359 396.076691,318.671417 394.013428,322.843475 
	C393.670135,323.352936 393.326843,323.862366 392.601868,324.837585 
	C390.151154,328.483368 388.082184,331.663330 386.013214,334.843323 
	C385.669952,335.352600 385.326691,335.861908 384.599243,336.817749 
	C382.147766,340.123962 380.080505,342.983643 378.013214,345.843323 
	C377.703827,346.059448 377.394409,346.275574 376.657227,346.870056 
	C374.157410,349.780029 372.085327,352.311707 370.013275,354.843353 
M146.751846,308.743774 
	C155.798584,324.348572 167.827576,337.283569 182.577789,347.536926 
	C208.476196,365.539734 237.119522,373.206970 268.716614,370.349243 
	C293.414825,368.115479 315.486481,359.451111 334.958771,344.468719 
	C377.358490,311.845337 395.180969,256.434326 379.165070,205.445786 
	C366.864410,166.285049 341.340698,138.805908 302.973236,123.513840 
	C276.893036,113.119087 250.287292,111.927361 223.354309,119.124359 
	C190.587372,127.880302 165.216736,147.084427 147.375580,175.757614 
	C131.884949,200.653152 125.945381,228.038208 129.159546,257.229401 
	C131.161392,275.410370 136.765961,292.463867 146.751846,308.743774 
z"/>
<path fill="#000000" opacity="1.000000" stroke="none" 
	d="
M360.840698,122.990654 
	C358.654480,121.248421 356.468292,119.506187 354.148254,117.459877 
	C356.160950,117.155800 358.307465,117.155800 361.828430,117.155800 
	C360.787079,112.605774 360.414978,108.404655 358.868469,104.692841 
	C353.695465,92.276985 352.185089,79.693123 356.030823,66.695953 
	C357.164886,62.863213 359.132416,59.253521 360.034637,55.382343 
	C360.944977,51.476379 361.006714,47.372631 361.463135,43.143116 
	C363.697357,43.143116 365.989288,43.143116 368.669891,43.143116 
	C368.669891,40.882141 368.669891,38.809238 368.669891,36.324440 
	C371.443176,36.324440 373.850342,36.324440 376.549164,36.324440 
	C376.825409,34.440872 377.051147,32.901604 377.306274,31.161900 
	C379.652344,31.161900 381.943604,31.161900 384.521484,31.161900 
	C384.796936,29.798948 385.040253,28.595047 385.163879,27.983389 
	C403.705780,21.628551 421.985596,23.648075 440.725159,28.858812 
	C440.794769,29.200886 441.039795,30.404833 441.359436,31.975454 
	C443.745361,31.975454 446.171783,31.975454 448.962402,31.975454 
	C448.962402,34.089539 448.962402,35.836823 448.962402,37.959808 
	C451.742188,37.959808 454.160217,37.959808 456.957825,37.959808 
	C456.957825,41.078762 456.957825,43.828075 456.957825,46.950943 
	C459.745148,46.950943 462.157257,46.950943 464.956055,46.950943 
	C464.956055,52.069176 464.956055,56.826591 464.956055,61.948929 
	C467.747345,61.948929 470.157166,61.948929 472.780060,61.948929 
	C472.780060,75.071495 472.780060,87.813591 472.780060,100.938286 
	C470.262238,100.938286 467.852570,100.938286 465.055542,100.938286 
	C465.055542,106.056282 465.055542,110.813248 465.055542,115.938721 
	C462.264008,115.938721 459.853363,115.938721 457.061951,115.938721 
	C457.061951,119.059883 457.061951,121.808746 457.061951,124.935661 
	C454.276733,124.935661 451.850006,124.935661 449.073425,124.935661 
	C449.073425,127.056320 449.073425,128.803085 449.073425,130.799622 
	C446.427032,130.799622 444.144684,130.799622 441.571106,130.799622 
	C441.206879,132.281998 440.884705,133.593170 440.554718,134.936249 
	C431.249908,136.308823 422.152527,138.495026 412.999237,138.761963 
	C403.968506,139.025330 394.881165,137.346619 385.648468,136.504410 
	C385.208160,134.718597 384.885559,133.410248 384.572937,132.142426 
	C382.059998,132.142426 379.765869,132.142426 376.988922,132.142426 
	C376.988922,134.211395 376.988922,136.148926 376.916412,138.536224 
	C374.644745,136.580460 372.445618,134.174911 370.573486,131.390320 
	C372.826019,131.011292 374.751526,131.011292 377.016907,131.011292 
	C376.871796,129.390945 376.766846,128.218735 376.618683,126.564606 
	C373.898010,128.300934 369.429901,124.185349 368.840698,129.990662 
	C366.645813,128.253189 364.450897,126.515717 362.578247,124.394775 
	C364.826019,124.011299 366.751526,124.011299 369.016907,124.011299 
	C368.871796,122.390953 368.766846,121.218735 368.618713,119.564606 
	C365.898041,121.300980 361.429871,117.185280 360.840698,122.990654 
M395.839325,41.066532 
	C390.651611,44.453991 384.566772,47.003502 380.459930,51.400509 
	C371.456512,61.040073 367.345825,72.527573 368.823456,86.315102 
	C371.631348,112.514908 396.645630,129.774948 421.397888,123.565033 
	C446.159912,117.352654 458.796112,95.382057 453.671783,71.907845 
	C448.156036,46.640816 421.683777,32.027824 395.839325,41.066532 
z"/>
<path fill="#000000" opacity="1.000000" stroke="none" 
	d="
M159.538849,116.083923 
	C155.545303,120.352203 150.906387,124.360649 146.710007,128.788483 
	C140.890228,134.929276 135.402817,141.385101 129.464417,147.845764 
	C129.155746,145.506989 129.155746,143.028488 129.155746,140.006546 
	C125.969955,141.007568 123.116158,138.238785 120.090271,142.448883 
	C118.388748,144.816284 112.582703,144.962296 108.656960,144.864014 
	C97.481140,144.584183 86.296906,143.916550 75.171112,142.834641 
	C72.110413,142.537003 69.243126,140.250610 66.287086,138.876785 
	C65.995125,139.243149 65.703163,139.609528 65.411201,139.975891 
	C65.183189,138.764618 64.955177,137.553329 64.661613,135.993774 
	C62.216927,135.993774 59.790211,135.993774 56.999611,135.993774 
	C56.999611,133.869308 56.999611,132.114609 56.999611,130.002045 
	C54.217396,130.002045 51.798946,130.002045 49.001396,130.002045 
	C49.001396,126.877876 49.001396,124.127197 49.001396,121.002159 
	C46.209469,121.002159 43.796333,121.002159 40.999599,121.002159 
	C40.999599,117.209267 40.999599,113.790344 40.999599,109.998421 
	C38.208099,109.998421 35.785427,109.998421 33.200897,109.998421 
	C33.200897,91.867722 33.200897,74.120743 33.200897,55.990513 
	C35.804028,55.990513 38.215313,55.990513 41.010666,55.990513 
	C41.010666,51.867901 41.010666,48.106903 41.010666,43.984116 
	C43.810810,43.984116 46.225559,43.984116 49.015022,43.984116 
	C49.015022,41.191898 49.015022,38.774849 49.015022,35.984444 
	C51.811420,35.984444 54.231430,35.984444 57.014565,35.984444 
	C57.014565,33.858284 57.014565,32.098877 57.014565,30.146742 
	C59.672554,30.146742 61.964184,30.146742 64.543983,30.146742 
	C64.809212,28.775381 65.042938,27.566948 65.314522,26.162766 
	C67.641495,26.162766 69.936302,26.162766 72.519775,26.162766 
	C72.795578,24.801079 73.039543,23.596575 73.279877,22.410025 
	C76.873749,21.935535 80.420868,21.040461 83.957947,21.078564 
	C95.543694,21.203369 107.143166,21.406773 118.697548,22.177153 
	C121.742012,22.380138 124.642761,24.738525 127.609505,26.107140 
	C127.929176,25.729364 128.248856,25.351587 128.568512,24.973812 
	C128.802399,26.496191 129.036270,28.018570 129.327927,29.917088 
	C131.688873,29.917088 134.111954,29.917088 136.892426,29.917088 
	C136.892426,31.698881 136.892426,33.109173 136.892426,34.896450 
	C139.667404,34.896450 142.089600,34.896450 144.892242,34.896450 
	C144.892242,37.680298 144.892242,40.099274 144.892242,42.888390 
	C147.679947,42.888390 150.095123,42.888390 152.901443,42.888390 
	C152.901443,47.336586 152.901443,51.430618 152.901443,55.891541 
	C155.693756,55.891541 158.104340,55.891541 160.755463,55.891541 
	C160.755463,74.020103 160.755463,91.767601 160.755463,109.904724 
	C158.296478,109.904724 155.883575,109.904724 153.238037,109.904724 
	C153.238037,112.024391 153.238037,113.768059 153.238037,116.011154 
	C155.209412,116.011154 157.150146,116.011154 159.538849,116.083923 
M85.459885,136.053131 
	C95.124458,139.144348 104.735580,138.113831 114.039177,134.904343 
	C130.480453,129.232529 142.551346,118.474152 148.415863,101.916321 
	C151.376495,93.557335 152.709396,84.869644 151.220016,75.619095 
	C149.524750,65.089844 146.063965,55.608822 139.094833,47.727016 
	C126.500816,33.483727 110.894012,26.804516 91.486145,28.860889 
	C77.013992,30.394300 65.525627,36.458096 56.059490,47.334282 
	C43.902924,61.301655 40.145718,77.552422 44.195152,95.040924 
	C49.174694,116.546318 63.408718,129.965317 85.459885,136.053131 
z"/>
<path fill="#000000" opacity="1.000000" stroke="none" 
	d="
M410.460388,285.914856 
	C411.048218,279.456604 411.870178,273.027802 413.169617,266.696991 
	C416.020569,252.807205 415.685760,238.868393 413.984650,224.936356 
	C412.964874,216.584183 411.349274,208.304779 410.005615,199.575836 
	C412.157898,199.159012 414.306000,199.159012 416.727173,199.159012 
	C416.727173,227.921219 416.727173,256.734711 416.727173,285.988739 
	C414.770599,285.988739 412.840881,285.988739 410.460388,285.914856 
z"/>
<path fill="#000000" opacity="1.000000" stroke="none" 
	d="
M103.539581,197.085159 
	C102.658554,203.808472 100.813461,210.404327 100.112961,217.119614 
	C99.005432,227.736862 98.412048,238.425995 98.067024,249.099762 
	C97.674332,261.248444 99.858131,273.069458 103.797752,284.573425 
	C104.157501,285.623932 103.945221,286.870331 103.994415,288.433350 
	C101.841919,288.840942 99.693573,288.840942 97.272491,288.840942 
	C97.272491,258.411713 97.272491,227.932159 97.272491,197.011276 
	C99.228958,197.011276 101.158920,197.011276 103.539581,197.085159 
z"/>
<path fill="#000000" opacity="1.000000" stroke="none" 
	d="
M402.460449,307.914856 
	C404.067505,302.014954 406.125244,296.188904 408.513916,290.189117 
	C408.844879,295.882019 408.844879,301.748657 408.844879,307.988739 
	C406.739807,307.988739 404.825470,307.988739 402.460449,307.914856 
z"/>
<path fill="#000000" opacity="1.000000" stroke="none" 
	d="
M408.916565,194.520859 
	C406.568604,189.622559 404.292877,184.259705 402.013489,178.527908 
	C404.131989,178.158966 406.254150,178.158966 408.988831,178.158966 
	C408.988831,183.384888 408.988831,188.720596 408.916565,194.520859 
z"/>
<path fill="#000000" opacity="1.000000" stroke="none" 
	d="
M111.539528,176.085144 
	C109.930389,181.656708 107.870583,187.154419 105.483063,192.818542 
	C105.155357,187.450333 105.155357,181.915710 105.155357,176.011276 
	C107.261909,176.011276 109.175385,176.011276 111.539528,176.085144 
z"/>
<path fill="#000000" opacity="1.000000" stroke="none" 
	d="
M105.083328,292.479431 
	C107.337723,297.402130 109.519936,302.789398 111.844101,308.510254 
	C109.864143,308.843872 107.742226,308.843872 105.011147,308.843872 
	C105.011147,303.614807 105.011147,298.279388 105.083328,292.479431 
z"/>
<path fill="#000000" opacity="1.000000" stroke="none" 
	d="
M400.916565,175.522644 
	C398.567657,171.615524 396.290924,167.245758 394.011993,162.517502 
	C396.126404,162.158997 398.243011,162.158997 400.988739,162.158997 
	C400.988739,166.385910 400.988739,170.722961 400.916565,175.522644 
z"/>
<path fill="#000000" opacity="1.000000" stroke="none" 
	d="
M113.083557,312.476379 
	C115.432564,316.050995 117.709229,320.087677 119.988052,324.482666 
	C117.875793,324.840973 115.761368,324.840973 113.011200,324.840973 
	C113.011200,320.943451 113.011200,316.940979 113.083557,312.476379 
z"/>
<path fill="#000000" opacity="1.000000" stroke="none" 
	d="
M119.539825,161.085144 
	C117.925682,165.330276 115.861145,169.501541 113.476044,173.828964 
	C113.155479,169.778351 113.155479,165.571594 113.155479,161.011307 
	C115.270744,161.011307 117.180084,161.011307 119.539825,161.085144 
z"/>
<path fill="#000000" opacity="1.000000" stroke="none" 
	d="
M394.463867,322.916168 
	C396.076691,318.671417 398.139984,314.499359 400.523865,310.171082 
	C400.844482,314.221100 400.844482,318.427368 400.844482,322.988861 
	C398.731750,322.988861 396.823059,322.988861 394.463867,322.916168 
z"/>
<path fill="#000000" opacity="1.000000" stroke="none" 
	d="
M121.083588,326.473206 
	C123.347214,329.410919 125.538475,332.807648 127.857964,336.524048 
	C125.877205,336.843781 123.768219,336.843781 121.011223,336.843781 
	C121.011223,333.610168 121.011223,330.271210 121.083588,326.473206 
z"/>
<path fill="#000000" opacity="1.000000" stroke="none" 
	d="
M127.536652,149.083847 
	C125.918793,152.668274 123.850998,156.180023 121.469406,159.838531 
	C121.155617,156.442688 121.155617,152.900085 121.155617,149.011154 
	C123.274567,149.011154 125.180641,149.011154 127.536652,149.083847 
z"/>
<path fill="#000000" opacity="1.000000" stroke="none" 
	d="
M392.916443,160.526733 
	C390.651764,157.588028 388.459412,154.190323 386.140411,150.474442 
	C388.122986,150.156265 390.232208,150.156265 392.988800,150.156265 
	C392.988800,153.389801 392.988800,156.728760 392.916443,160.526733 
z"/>
<path fill="#000000" opacity="1.000000" stroke="none" 
	d="
M386.462738,334.916077 
	C388.082184,331.663330 390.151154,328.483368 392.532227,325.158997 
	C392.844299,328.225403 392.844299,331.436188 392.844299,334.988800 
	C390.721924,334.988800 388.817108,334.988800 386.462738,334.916077 
z"/>
<path fill="#000000" opacity="1.000000" stroke="none" 
	d="
M137.084122,348.462158 
	C139.434464,350.394562 141.712250,352.775940 143.990143,355.499146 
	C141.888687,355.840973 139.787155,355.840973 137.011551,355.840973 
	C137.011551,353.609924 137.011551,351.260559 137.084122,348.462158 
z"/>
<path fill="#000000" opacity="1.000000" stroke="none" 
	d="
M378.461914,345.916077 
	C380.080505,342.983643 382.147766,340.123962 384.529358,337.139008 
	C384.843719,339.893005 384.843719,342.772278 384.843719,345.988800 
	C382.717590,345.988800 380.814087,345.988800 378.461914,345.916077 
z"/>
<path fill="#000000" opacity="1.000000" stroke="none" 
	d="
M129.083649,338.467896 
	C131.351791,340.750031 133.547516,343.486053 135.864807,346.532837 
	C133.882721,346.843658 131.779099,346.843658 129.011230,346.843658 
	C129.011230,344.278412 129.011230,341.600067 129.083649,338.467896 
z"/>
<path fill="#000000" opacity="1.000000" stroke="none" 
	d="
M384.916351,148.532104 
	C382.647095,146.248917 380.450256,143.511917 378.133484,140.465668 
	C380.117188,140.156418 382.220825,140.156418 384.988770,140.156418 
	C384.988770,142.721588 384.988770,145.399933 384.916351,148.532104 
z"/>
<path fill="#000000" opacity="1.000000" stroke="none" 
	d="
M370.461121,354.916077 
	C372.085327,352.311707 374.157410,349.780029 376.536499,347.130951 
	C376.843567,349.561371 376.843567,352.109222 376.843567,354.988800 
	C374.713898,354.988800 372.811432,354.988800 370.461121,354.916077 
z"/>
<path fill="#000000" opacity="1.000000" stroke="none" 
	d="
M362.459320,361.915985 
	C364.108765,359.633026 366.204376,357.422729 368.647278,355.180908 
	C368.994598,357.280701 368.994598,359.412079 368.994598,361.988678 
	C366.791290,361.988678 364.848358,361.988678 362.459320,361.915985 
z"/>
<path fill="#FDFDFC" opacity="1.000000" stroke="none" 
	d="
M146.558136,308.432800 
	C136.765961,292.463867 131.161392,275.410370 129.159546,257.229401 
	C125.945381,228.038208 131.884949,200.653152 147.375580,175.757614 
	C165.216736,147.084427 190.587372,127.880302 223.354309,119.124359 
	C250.287292,111.927361 276.893036,113.119087 302.973236,123.513840 
	C341.340698,138.805908 366.864410,166.285049 379.165070,205.445786 
	C395.180969,256.434326 377.358490,311.845337 334.958771,344.468719 
	C315.486481,359.451111 293.414825,368.115479 268.716614,370.349243 
	C237.119522,373.206970 208.476196,365.539734 182.577789,347.536926 
	C167.827576,337.283569 155.798584,324.348572 146.558136,308.432800 
M175.962921,259.500000 
	C175.963989,275.332825 175.917709,291.165894 175.987762,306.998413 
	C176.018829,314.020935 178.831253,316.892090 185.507248,317.050568 
	C187.950546,317.108612 190.396408,317.059937 193.216934,317.059937 
	C193.216934,322.591095 193.082581,327.564270 193.250504,332.527191 
	C193.466461,338.910309 197.697876,343.044678 204.032501,343.310333 
	C205.862640,343.387085 207.698883,343.345917 209.531860,343.322632 
	C217.401138,343.222565 221.506088,339.189117 221.643265,331.311340 
	C221.723572,326.699249 221.657913,322.084656 221.657913,317.426758 
	C244.096222,317.426758 265.976837,317.426758 288.064178,317.426758 
	C288.064178,321.113617 288.064056,324.438568 288.064240,327.763519 
	C288.064331,329.096832 288.029297,330.431244 288.071472,331.763245 
	C288.336578,340.138977 292.717255,343.387665 303.638062,343.327606 
	C312.584290,343.278412 316.410065,339.534454 316.544342,330.594299 
	C316.610718,326.176636 316.555878,321.757111 316.555878,317.047577 
	C320.441711,317.047577 323.585693,317.049408 326.729645,317.047119 
	C330.933594,317.044067 333.237305,314.794952 333.778595,310.777740 
	C334.066284,308.642761 334.027588,306.455322 334.028320,304.291504 
	C334.041321,265.625488 334.037750,226.959457 334.037720,188.293442 
	C334.037720,186.542450 334.037689,184.791473 334.037689,183.031815 
	C338.733826,182.638824 339.713318,184.833267 339.668823,188.474686 
	C339.537048,199.255066 339.621674,210.038116 339.621674,220.745987 
	C351.800049,222.271759 354.922119,219.547287 354.922485,207.916901 
	C354.922607,204.250290 354.995422,200.581711 354.895935,196.917801 
	C354.833496,194.617844 355.331207,191.705826 354.152130,190.145782 
	C350.720062,185.604828 346.900574,181.212585 342.556061,177.569199 
	C340.534241,175.873642 336.947632,176.044022 334.147247,175.386627 
	C330.271179,160.408188 320.036804,152.971603 305.337738,150.865845 
	C276.310181,146.707428 247.179153,147.050674 218.047241,149.310181 
	C210.781387,149.873734 203.291763,150.579941 196.447220,152.853210 
	C185.613846,156.451279 178.020203,163.945740 175.916031,175.965378 
	C165.157700,174.531174 162.650955,184.762680 156.154495,189.238159 
	C155.363586,189.783020 155.287308,191.695145 155.270782,192.978638 
	C155.187149,199.477448 154.898605,206.003876 155.400940,212.464737 
	C155.595947,214.972580 157.082947,218.479340 159.040283,219.499649 
	C162.174530,221.133392 166.191193,221.074310 170.389404,221.830688 
	C170.389404,209.961533 170.467789,199.148178 170.346680,188.337082 
	C170.304550,184.576096 171.614624,182.651764 175.962921,183.067078 
	C175.962921,208.245621 175.962921,233.372818 175.962921,259.500000 
z"/>
<path fill="#FFFFFF" opacity="1.000000" stroke="none" 
	d="
M360.964050,123.249130 
	C361.429871,117.185280 365.898041,121.300980 368.618713,119.564606 
	C368.766846,121.218735 368.871796,122.390953 369.016907,124.011299 
	C366.751526,124.011299 364.826019,124.011299 362.454956,124.085274 
	C361.702087,123.942032 361.394745,123.724815 360.964050,123.249130 
z"/>
<path fill="#FFFFFF" opacity="1.000000" stroke="none" 
	d="
M368.964050,130.249130 
	C369.429901,124.185349 373.898010,128.300934 376.618683,126.564606 
	C376.766846,128.218735 376.871796,129.390945 377.016907,131.011292 
	C374.751526,131.011292 372.826019,131.011292 370.454956,131.085266 
	C369.702087,130.942032 369.394745,130.724823 368.964050,130.249130 
z"/>
<path fill="#EF1300" opacity="1.000000" stroke="none" 
	d="
M396.238068,41.027733 
	C421.683777,32.027824 448.156036,46.640816 453.671783,71.907845 
	C458.796112,95.382057 446.159912,117.352654 421.397888,123.565033 
	C396.645630,129.774948 371.631348,112.514908 368.823456,86.315102 
	C367.345825,72.527573 371.456512,61.040073 380.459930,51.400509 
	C384.566772,47.003502 390.651611,44.453991 396.238068,41.027733 
z"/>
<path fill="#FFFFFF" opacity="1.000000" stroke="none" 
	d="
M85.031113,136.028748 
	C63.408718,129.965317 49.174694,116.546318 44.195152,95.040924 
	C40.145718,77.552422 43.902924,61.301655 56.059490,47.334282 
	C65.525627,36.458096 77.013992,30.394300 91.486145,28.860889 
	C110.894012,26.804516 126.500816,33.483727 139.094833,47.727016 
	C146.063965,55.608822 149.524750,65.089844 151.220016,75.619095 
	C152.709396,84.869644 151.376495,93.557335 148.415863,101.916321 
	C142.551346,118.474152 130.480453,129.232529 114.039177,134.904343 
	C104.735580,138.113831 95.124458,139.144348 85.031113,136.028748 
M85.698425,48.983475 
	C78.887459,48.991955 77.084106,50.006798 77.045631,55.003361 
	C76.899582,73.969093 76.922134,92.937042 77.042717,111.903130 
	C77.066032,115.570557 78.645599,118.147186 83.105530,118.067902 
	C92.585960,117.899345 102.072731,117.926910 111.554291,118.060051 
	C115.392448,118.113953 117.031090,116.461197 117.026283,112.730225 
	C117.001213,93.264267 117.000755,73.798248 117.026901,54.332294 
	C117.031868,50.638229 115.483627,48.878902 111.610252,48.942032 
	C103.293663,49.077591 94.973335,48.983528 85.698425,48.983475 
z"/>
<path fill="#040404" opacity="1.000000" stroke="none" 
	d="
M175.962921,259.000000 
	C175.962921,233.372818 175.962921,208.245621 175.962921,183.067078 
	C171.614624,182.651764 170.304550,184.576096 170.346680,188.337082 
	C170.467789,199.148178 170.389404,209.961533 170.389404,221.830688 
	C166.191193,221.074310 162.174530,221.133392 159.040283,219.499649 
	C157.082947,218.479340 155.595947,214.972580 155.400940,212.464737 
	C154.898605,206.003876 155.187149,199.477448 155.270782,192.978638 
	C155.287308,191.695145 155.363586,189.783020 156.154495,189.238159 
	C162.650955,184.762680 165.157700,174.531174 175.916031,175.965378 
	C178.020203,163.945740 185.613846,156.451279 196.447220,152.853210 
	C203.291763,150.579941 210.781387,149.873734 218.047241,149.310181 
	C247.179153,147.050674 276.310181,146.707428 305.337738,150.865845 
	C320.036804,152.971603 330.271179,160.408188 334.147247,175.386627 
	C336.947632,176.044022 340.534241,175.873642 342.556061,177.569199 
	C346.900574,181.212585 350.720062,185.604828 354.152130,190.145782 
	C355.331207,191.705826 354.833496,194.617844 354.895935,196.917801 
	C354.995422,200.581711 354.922607,204.250290 354.922485,207.916901 
	C354.922119,219.547287 351.800049,222.271759 339.621674,220.745987 
	C339.621674,210.038116 339.537048,199.255066 339.668823,188.474686 
	C339.713318,184.833267 338.733826,182.638824 334.037689,183.031815 
	C334.037689,184.791473 334.037720,186.542450 334.037720,188.293442 
	C334.037750,226.959457 334.041321,265.625488 334.028320,304.291504 
	C334.027588,306.455322 334.066284,308.642761 333.778595,310.777740 
	C333.237305,314.794952 330.933594,317.044067 326.729645,317.047119 
	C323.585693,317.049408 320.441711,317.047577 316.555878,317.047577 
	C316.555878,321.757111 316.610718,326.176636 316.544342,330.594299 
	C316.410065,339.534454 312.584290,343.278412 303.638062,343.327606 
	C292.717255,343.387665 288.336578,340.138977 288.071472,331.763245 
	C288.029297,330.431244 288.064331,329.096832 288.064240,327.763519 
	C288.064056,324.438568 288.064178,321.113617 288.064178,317.426758 
	C265.976837,317.426758 244.096222,317.426758 221.657913,317.426758 
	C221.657913,322.084656 221.723572,326.699249 221.643265,331.311340 
	C221.506088,339.189117 217.401138,343.222565 209.531860,343.322632 
	C207.698883,343.345917 205.862640,343.387085 204.032501,343.310333 
	C197.697876,343.044678 193.466461,338.910309 193.250504,332.527191 
	C193.082581,327.564270 193.216934,322.591095 193.216934,317.059937 
	C190.396408,317.059937 187.950546,317.108612 185.507248,317.050568 
	C178.831253,316.892090 176.018829,314.020935 175.987762,306.998413 
	C175.917709,291.165894 175.963989,275.332825 175.962921,259.000000 
M198.248840,257.258331 
	C238.723785,267.861328 278.992096,267.233154 319.107025,255.234070 
	C322.718903,254.153671 324.223724,252.637405 324.189087,248.668182 
	C324.001587,227.172180 323.989685,205.672668 324.187134,184.176849 
	C324.230804,179.423248 322.370911,178.211304 317.969879,178.222534 
	C275.808136,178.330231 233.645798,178.343643 191.484192,178.209427 
	C186.686432,178.194153 185.072128,179.792618 185.124634,184.592987 
	C185.330490,203.421997 185.070038,222.255951 185.253693,241.085403 
	C185.396439,255.719910 182.457260,252.891907 198.248840,257.258331 
M258.499634,157.666885 
	C250.686569,157.667252 242.871780,157.764877 235.061172,157.626785 
	C231.180267,157.558182 230.665695,159.792252 230.949829,162.790436 
	C231.221146,165.653473 229.568024,169.723160 234.796585,169.746033 
	C248.261322,169.804947 261.726654,169.802338 275.191406,169.745773 
	C280.411621,169.723831 278.787445,165.672791 279.050751,162.801468 
	C279.324524,159.816162 278.857361,157.514603 274.958069,157.630646 
	C269.809357,157.783875 264.652618,157.667389 258.499634,157.666885 
M184.348801,271.863861 
	C179.986542,274.637085 182.598312,279.063507 181.882263,282.681030 
	C181.003906,287.118561 183.050613,289.514648 187.765762,289.739777 
	C194.712463,290.071411 201.644943,290.692719 208.588455,291.107239 
	C209.742004,291.176086 210.920868,290.820618 212.088043,290.661224 
	C212.203949,290.232727 212.319870,289.804260 212.435776,289.375763 
	C203.961975,282.646118 194.825928,276.899200 184.348801,271.863861 
M328.018280,277.723663 
	C327.662506,270.971924 326.851074,270.418549 321.159973,273.865356 
	C314.332794,278.000244 307.637360,282.357330 300.970306,286.747955 
	C299.684357,287.594849 298.792480,289.040100 297.367065,290.592438 
	C298.846436,290.961090 299.333313,291.209259 299.803101,291.180328 
	C305.783813,290.811707 311.761505,290.394165 317.741119,290.007019 
	C328.483521,289.311462 328.483856,289.316589 328.018280,277.723663 
M272.443176,301.588806 
	C271.198212,300.711304 269.971649,299.105530 268.705292,299.073486 
	C259.923615,298.851196 251.131332,299.072754 242.347656,298.894989 
	C239.127914,298.829834 238.010818,299.822113 237.990005,303.120026 
	C237.968628,306.504578 239.254089,307.354736 242.398102,307.295593 
	C251.016541,307.133484 259.645264,307.063446 268.259094,307.320404 
	C272.072083,307.434143 272.834473,305.716217 272.443176,301.588806 
M183.827042,301.256531 
	C182.671890,304.138458 183.638184,306.445343 186.539597,306.864014 
	C187.942963,307.066498 190.128372,305.600281 191.013702,304.263214 
	C191.562073,303.435028 190.624634,300.385712 189.843094,300.167999 
	C188.136841,299.692657 186.104324,300.388458 183.827042,301.256531 
z"/>
<path fill="#090909" opacity="1.000000" stroke="none" 
	d="
M86.176483,48.983475 
	C94.973335,48.983528 103.293663,49.077591 111.610252,48.942032 
	C115.483627,48.878902 117.031868,50.638229 117.026901,54.332294 
	C117.000755,73.798248 117.001213,93.264267 117.026283,112.730225 
	C117.031090,116.461197 115.392448,118.113953 111.554291,118.060051 
	C102.072731,117.926910 92.585960,117.899345 83.105530,118.067902 
	C78.645599,118.147186 77.066032,115.570557 77.042717,111.903130 
	C76.922134,92.937042 76.899582,73.969093 77.045631,55.003361 
	C77.084106,50.006798 78.887459,48.991955 86.176483,48.983475 
M81.259338,61.769142 
	C81.259338,75.168648 81.259338,88.568146 81.259338,101.884972 
	C92.304749,101.884972 102.684471,101.884972 112.896217,101.884972 
	C112.896217,86.817680 112.896217,72.106934 112.896217,57.099651 
	C103.120689,57.099651 93.667305,57.203220 84.218498,57.040619 
	C81.123848,56.987366 81.119690,58.688503 81.259338,61.769142 
M100.488541,109.757515 
	C99.141121,108.876938 97.871132,107.610443 96.406013,107.316483 
	C95.863022,107.207535 94.346489,109.337898 94.244873,110.529793 
	C94.173134,111.371284 95.998016,113.251343 96.520309,113.099518 
	C97.991379,112.671890 99.227043,111.434464 100.488541,109.757515 
M104.999138,52.399773 
	C99.909599,52.140133 94.820061,51.880489 89.730522,51.620846 
	C89.728882,52.481945 89.727249,53.343044 89.725609,54.204144 
	C94.806458,53.922096 99.887299,53.640053 104.999138,52.399773 
z"/>
<path fill="#FDFDFD" opacity="1.000000" stroke="none" 
	d="
M197.848938,257.169281 
	C182.457260,252.891907 185.396439,255.719910 185.253693,241.085403 
	C185.070038,222.255951 185.330490,203.421997 185.124634,184.592987 
	C185.072128,179.792618 186.686432,178.194153 191.484192,178.209427 
	C233.645798,178.343643 275.808136,178.330231 317.969879,178.222534 
	C322.370911,178.211304 324.230804,179.423248 324.187134,184.176849 
	C323.989685,205.672668 324.001587,227.172180 324.189087,248.668182 
	C324.223724,252.637405 322.718903,254.153671 319.107025,255.234070 
	C278.992096,267.233154 238.723785,267.861328 197.848938,257.169281 
z"/>
<path fill="#F7F7F7" opacity="1.000000" stroke="none" 
	d="
M258.999481,157.666870 
	C264.652618,157.667389 269.809357,157.783875 274.958069,157.630646 
	C278.857361,157.514603 279.324524,159.816162 279.050751,162.801468 
	C278.787445,165.672791 280.411621,169.723831 275.191406,169.745773 
	C261.726654,169.802338 248.261322,169.804947 234.796585,169.746033 
	C229.568024,169.723160 231.221146,165.653473 230.949829,162.790436 
	C230.665695,159.792252 231.180267,157.558182 235.061172,157.626785 
	C242.871780,157.764877 250.686569,157.667252 258.999481,157.666870 
z"/>
<path fill="#F5F5F5" opacity="1.000000" stroke="none" 
	d="
M184.753479,271.902588 
	C194.825928,276.899200 203.961975,282.646118 212.435776,289.375763 
	C212.319870,289.804260 212.203949,290.232727 212.088043,290.661224 
	C210.920868,290.820618 209.742004,291.176086 208.588455,291.107239 
	C201.644943,290.692719 194.712463,290.071411 187.765762,289.739777 
	C183.050613,289.514648 181.003906,287.118561 181.882263,282.681030 
	C182.598312,279.063507 179.986542,274.637085 184.753479,271.902588 
z"/>
<path fill="#F5F5F5" opacity="1.000000" stroke="none" 
	d="
M328.024078,278.184875 
	C328.483856,289.316589 328.483521,289.311462 317.741119,290.007019 
	C311.761505,290.394165 305.783813,290.811707 299.803101,291.180328 
	C299.333313,291.209259 298.846436,290.961090 297.367065,290.592438 
	C298.792480,289.040100 299.684357,287.594849 300.970306,286.747955 
	C307.637360,282.357330 314.332794,278.000244 321.159973,273.865356 
	C326.851074,270.418549 327.662506,270.971924 328.024078,278.184875 
z"/>
<path fill="#F8F8F8" opacity="1.000000" stroke="none" 
	d="
M272.446655,302.075684 
	C272.834473,305.716217 272.072083,307.434143 268.259094,307.320404 
	C259.645264,307.063446 251.016541,307.133484 242.398102,307.295593 
	C239.254089,307.354736 237.968628,306.504578 237.990005,303.120026 
	C238.010818,299.822113 239.127914,298.829834 242.347656,298.894989 
	C251.131332,299.072754 259.923615,298.851196 268.705292,299.073486 
	C269.971649,299.105530 271.198212,300.711304 272.446655,302.075684 
z"/>
<path fill="#E6E6E6" opacity="1.000000" stroke="none" 
	d="
M184.016068,300.931152 
	C186.104324,300.388458 188.136841,299.692657 189.843094,300.167999 
	C190.624634,300.385712 191.562073,303.435028 191.013702,304.263214 
	C190.128372,305.600281 187.942963,307.066498 186.539597,306.864014 
	C183.638184,306.445343 182.671890,304.138458 184.016068,300.931152 
z"/>
<path fill="#FBFBFB" opacity="1.000000" stroke="none" 
	d="
M81.259003,61.296520 
	C81.119690,58.688503 81.123848,56.987366 84.218498,57.040619 
	C93.667305,57.203220 103.120689,57.099651 112.896217,57.099651 
	C112.896217,72.106934 112.896217,86.817680 112.896217,101.884972 
	C102.684471,101.884972 92.304749,101.884972 81.259338,101.884972 
	C81.259338,88.568146 81.259338,75.168648 81.259003,61.296520 
z"/>
<path fill="#ECECEC" opacity="1.000000" stroke="none" 
	d="
M100.522018,110.136887 
	C99.227043,111.434464 97.991379,112.671890 96.520309,113.099518 
	C95.998016,113.251343 94.173134,111.371284 94.244873,110.529793 
	C94.346489,109.337898 95.863022,107.207535 96.406013,107.316483 
	C97.871132,107.610443 99.141121,108.876938 100.522018,110.136887 
z"/>
<path fill="#F4F4F4" opacity="1.000000" stroke="none" 
	d="
M104.983643,52.878891 
	C99.887299,53.640053 94.806458,53.922096 89.725609,54.204144 
	C89.727249,53.343044 89.728882,52.481945 89.730522,51.620846 
	C94.820061,51.880489 99.909599,52.140133 104.983643,52.878891 
z"/>
</svg>