<svg version="1.1" id="Layer_1" xmlns="http://www.w3.org/2000/svg" xmlns:xlink="http://www.w3.org/1999/xlink" x="0px" y="0px"
	 width="100%" viewBox="0 0 500 500" enable-background="new 0 0 500 500" xml:space="preserve">
<path fill="#010100" opacity="0.000000" stroke="none" 
	d="
M275.000000,501.000000 
	C183.333359,501.000000 92.166710,501.000000 1.000049,501.000000 
	C1.000033,334.333405 1.000033,167.666794 1.000016,1.000138 
	C167.666565,1.000092 334.333130,1.000092 500.999756,1.000046 
	C500.999847,167.666519 500.999847,334.333038 500.999939,500.999786 
	C425.833344,501.000000 350.666656,501.000000 275.000000,501.000000 
M132.716110,279.694855 
	C133.075089,279.903656 133.434067,280.112488 134.105087,280.957947 
	C134.763367,283.191223 135.421646,285.424500 135.685547,288.279358 
	C134.016495,292.522827 130.568115,293.598755 126.428276,293.572815 
	C119.792679,293.531219 113.156639,293.561646 105.980003,293.561646 
	C120.000191,333.011230 144.839447,362.474579 180.906387,382.365814 
	C211.900116,399.459106 245.164810,404.768768 280.007751,399.943909 
	C344.178711,391.057892 407.130005,338.698120 414.699615,258.054596 
	C421.895752,181.389603 376.352875,110.307648 294.217560,88.393295 
	C268.837738,81.621750 242.744431,82.350319 216.943085,88.910942 
	C191.995728,95.254417 157.263321,114.859978 150.676788,126.069962 
	C168.547791,126.069962 186.497467,126.069962 205.265518,126.447578 
	C222.377335,126.465492 239.489197,126.470245 256.600983,126.507797 
	C263.440887,126.522812 266.876526,128.994400 266.969269,133.860779 
	C267.064758,138.869507 263.467590,141.485855 256.382324,141.508408 
	C249.570389,141.530090 242.758118,141.480072 235.946350,141.519791 
	C216.351059,141.634033 196.755905,141.777710 176.379135,141.597031 
	C168.238831,141.559433 160.094070,141.343918 151.959839,141.548218 
	C146.735687,141.679398 142.538376,140.540848 140.254822,133.822693 
	C132.968445,143.599686 126.335281,152.500168 118.874084,162.511734 
	C128.589462,162.511734 136.709549,162.239960 144.795074,162.649689 
	C147.892700,162.806686 150.911423,164.520340 154.055038,166.243744 
	C156.184830,173.160599 154.331406,175.880463 145.308456,177.623642 
	C135.491837,177.592636 125.674652,177.612137 115.858932,177.501236 
	C112.728912,177.465866 110.838295,178.188431 109.868484,181.716919 
	C107.693253,189.631119 104.608795,197.297104 102.474770,205.220413 
	C100.735733,211.677216 99.839142,218.360931 98.538734,225.100876 
	C109.746635,225.100876 119.868912,225.100876 130.887711,225.384277 
	C145.783035,225.384277 160.678360,225.384277 175.774200,225.384277 
	C175.774200,211.717087 175.774200,197.434006 175.774200,183.034134 
	C171.847473,182.665741 170.153702,184.313141 170.342438,188.192429 
	C170.496094,191.351013 170.375000,194.522964 170.375092,197.688995 
	C170.375320,205.451172 170.375168,213.213348 170.375168,221.222076 
	C168.383575,221.222076 167.070175,221.226624 165.756821,221.221313 
	C158.165848,221.190643 155.269638,218.272903 155.245071,210.623199 
	C155.235962,207.790466 155.151779,204.954132 155.261383,202.125626 
	C155.532913,195.118576 152.919144,186.872162 162.860245,183.873886 
	C162.994263,183.833481 163.156082,183.652618 163.180588,183.515152 
	C164.480957,176.218094 170.487976,176.376953 175.785614,175.688644 
	C180.561310,161.423050 188.963364,153.124542 201.539459,151.363724 
	C235.538574,146.603409 269.605896,146.436966 303.694092,150.615845 
	C319.182983,152.514618 330.178955,159.803253 334.312042,176.011841 
	C344.513885,174.243790 347.137878,184.213120 353.430756,188.701309 
	C354.633209,189.558914 354.774841,192.340286 354.850220,194.255966 
	C355.040131,199.080856 354.591125,203.944153 354.978210,208.745300 
	C355.846008,219.509415 349.056671,223.069061 339.636169,220.470596 
	C339.636169,209.734558 339.551636,198.920853 339.681183,188.109695 
	C339.727753,184.224945 338.191345,182.590576 334.025360,183.069244 
	C334.025360,184.980621 334.025360,186.796753 334.025360,188.612900 
	C334.025360,227.105118 334.027527,265.597351 334.019226,304.089569 
	C334.018799,306.087708 334.041412,308.096283 333.857910,310.081909 
	C333.444397,314.556458 331.135376,317.099121 326.414886,317.048401 
	C323.286469,317.014771 320.157379,317.042053 316.518799,317.042053 
	C316.518799,322.263000 316.658173,327.067139 316.486511,331.860107 
	C316.220734,339.281250 312.182892,343.158600 304.853607,343.307678 
	C303.354523,343.338165 301.854156,343.326904 300.354645,343.311676 
	C292.152679,343.228333 288.171112,339.242859 288.085297,330.964355 
	C288.037842,326.385925 288.076782,321.806610 288.076782,317.320251 
	C265.530762,317.320251 243.778809,317.320251 221.640472,317.320251 
	C221.640472,322.229309 221.722900,326.874146 221.621826,331.514984 
	C221.455521,339.149567 217.368973,343.177826 209.810013,343.308289 
	C208.310760,343.334167 206.810455,343.329834 205.311020,343.310211 
	C197.357422,343.206146 193.325989,339.217957 193.235504,331.291870 
	C193.182861,326.680084 193.225922,322.067200 193.225922,317.048706 
	C191.221695,317.048706 189.761215,317.053619 188.300751,317.047913 
	C178.117889,317.008118 175.981857,314.889679 175.976578,304.776184 
	C175.968491,289.279297 175.974274,273.782440 175.974197,258.285553 
	C175.974167,252.155426 175.974197,246.025299 175.974197,240.497498 
	C172.066055,240.497498 168.631561,240.465942 165.197784,240.503143 
	C152.911423,240.636246 140.625305,240.792648 127.394508,240.631699 
	C117.676117,240.631699 107.957726,240.631699 96.831161,240.631699 
	C98.256470,251.885666 99.959419,262.267883 100.727821,272.718811 
	C101.100304,277.784973 103.143875,278.648315 107.533913,278.600891 
	C115.979034,278.509613 124.429741,278.935059 132.954971,279.080688 
	C132.954971,279.080688 132.854126,279.075592 132.716110,279.694855 
M276.584778,247.496857 
	C276.584778,224.572418 276.584778,201.647995 276.584778,178.781952 
	C275.559479,178.522156 275.097748,178.303055 274.635834,178.302719 
	C246.499969,178.281403 218.363953,178.321854 190.228394,178.228165 
	C185.732315,178.213196 185.138519,180.647369 185.152908,184.313629 
	C185.236511,205.623337 185.283951,226.934280 185.113907,248.242966 
	C185.081802,252.265335 186.244858,254.426254 190.327545,255.201813 
	C204.857956,257.961975 219.247803,261.952759 233.898071,263.449677 
	C247.826706,264.872833 262.014832,263.756042 276.583466,263.756042 
	C276.583466,258.421448 276.583466,253.457870 276.584778,247.496857 
M48.396320,58.084652 
	C43.048801,69.809700 41.300083,81.989029 44.010838,94.657318 
	C50.546261,125.199646 84.129852,145.680573 114.606087,134.743179 
	C130.831223,128.920273 142.624710,118.174515 148.460464,101.887115 
	C152.564835,90.431999 152.980179,78.761780 149.225082,66.679085 
	C145.571106,54.921700 138.933380,45.924751 129.310379,38.772171 
	C121.378853,32.876816 112.619339,29.725773 102.590622,28.764885 
	C93.096992,27.855263 84.333900,29.161896 75.740776,32.740726 
	C63.793381,37.716534 54.925705,46.086128 48.396320,58.084652 
M391.171753,42.683998 
	C376.609985,49.883389 366.225555,67.935341 367.834961,85.778679 
	C369.840576,108.014435 392.035522,128.085678 416.370239,125.078819 
	C441.715973,121.947044 460.507141,97.288681 454.356934,71.653526 
	C447.825867,44.431107 417.770355,29.256603 391.171753,42.683998 
M287.193695,262.340149 
	C297.891357,259.936432 308.570374,257.444611 319.296600,255.175964 
	C323.152283,254.360458 324.224579,252.300415 324.194000,248.507660 
	C324.032959,228.543594 324.123260,208.577530 324.116364,188.612167 
	C324.112701,178.034103 325.394135,178.187531 313.967957,178.255280 
	C303.883911,178.315079 293.799286,178.267792 283.317474,178.267792 
	C283.317474,191.687866 283.317505,204.466873 283.317474,217.245865 
	C283.317413,231.055252 283.299408,244.864670 283.337463,258.673950 
	C283.342865,260.633759 282.473572,263.510010 287.193695,262.340149 
M275.036987,169.781021 
	C281.679138,169.261993 278.535004,164.141144 278.955902,160.947266 
	C279.407562,157.519852 276.544739,157.646500 274.143494,157.648026 
	C261.654388,157.655945 249.160339,157.854095 236.678711,157.548706 
	C231.883530,157.431381 230.750916,159.172134 230.791107,163.647552 
	C230.830353,168.017746 231.800262,169.987198 236.649704,169.878067 
	C249.132462,169.597198 261.625763,169.784119 275.036987,169.781021 
M196.031525,290.250031 
	C201.341095,290.607147 206.650650,290.964264 212.404266,291.351257 
	C211.957489,289.754120 211.978836,289.070526 211.681000,288.876282 
	C203.094330,283.275360 194.555832,277.592285 185.810333,272.248505 
	C183.381851,270.764648 182.157211,272.803558 182.083466,275.139801 
	C181.620682,289.802063 179.896500,289.359436 194.122025,290.141632 
	C194.453033,290.159821 194.784058,290.177856 196.031525,290.250031 
M320.276031,289.856934 
	C328.051147,289.158630 328.464966,288.700470 328.152924,281.181885 
	C328.084167,279.524750 328.076172,277.864288 327.971497,276.209686 
	C327.670044,271.442657 326.549042,270.660767 322.498047,273.103821 
	C314.980286,277.637665 307.617676,282.431458 300.251068,287.210388 
	C299.200714,287.891754 298.489014,289.095123 297.620575,290.056885 
	C297.841064,290.475525 298.061523,290.894135 298.281982,291.312744 
	C305.318665,290.848724 312.355347,290.384735 320.276031,289.856934 
M241.757202,307.251923 
	C249.895706,307.251343 258.034210,307.251190 266.172699,307.250061 
	C273.115906,307.249084 273.557709,306.622070 271.642334,298.949799 
	C261.472900,298.949799 251.196808,298.881165 240.925140,299.062927 
	C239.967514,299.079895 238.258911,300.674225 238.250305,301.549469 
	C238.229538,303.658630 236.605042,306.923676 241.757202,307.251923 
M187.452209,298.995911 
	C186.067963,300.364044 184.226318,301.533478 183.506470,303.190308 
	C183.181900,303.937317 184.854141,306.307587 186.057770,306.749115 
	C187.247192,307.185455 189.610718,306.600250 190.369751,305.619781 
	C192.594437,302.746094 191.491516,300.413116 187.452209,298.995911 
z"/>
<path fill="#FED43E" opacity="1.000000" stroke="none" 
	d="
M204.447144,126.069962 
	C186.497467,126.069962 168.547791,126.069962 150.676788,126.069962 
	C157.263321,114.859978 191.995728,95.254417 216.943085,88.910942 
	C242.744431,82.350319 268.837738,81.621750 294.217560,88.393295 
	C376.352875,110.307648 421.895752,181.389603 414.699615,258.054596 
	C407.130005,338.698120 344.178711,391.057892 280.007751,399.943909 
	C245.164810,404.768768 211.900116,399.459106 180.906387,382.365814 
	C144.839447,362.474579 120.000191,333.011230 105.980003,293.561646 
	C113.156639,293.561646 119.792679,293.531219 126.428276,293.572815 
	C130.568115,293.598755 134.016495,292.522827 136.172318,288.206665 
	C144.988831,309.815094 157.976700,328.143951 176.171310,342.651306 
	C205.236435,365.826141 238.444595,374.712646 275.049835,369.734741 
	C302.437164,366.010376 326.227112,354.161041 346.037689,334.638702 
	C371.273987,309.769623 384.123199,279.547211 384.814575,244.234421 
	C385.135284,227.853821 382.282166,211.908890 376.186798,196.624008 
	C363.862671,165.719513 342.868378,142.799973 313.117889,127.827469 
	C292.077148,117.238304 269.725861,113.365623 246.449417,115.022026 
	C231.847794,116.061119 217.626266,119.267906 204.447144,126.069962 
z"/>
<path fill="#FDFCFC" opacity="1.000000" stroke="none" 
	d="
M204.856323,126.258774 
	C217.626266,119.267906 231.847794,116.061119 246.449417,115.022026 
	C269.725861,113.365623 292.077148,117.238304 313.117889,127.827469 
	C342.868378,142.799973 363.862671,165.719513 376.186798,196.624008 
	C382.282166,211.908890 385.135284,227.853821 384.814575,244.234421 
	C384.123199,279.547211 371.273987,309.769623 346.037689,334.638702 
	C326.227112,354.161041 302.437164,366.010376 275.049835,369.734741 
	C238.444595,374.712646 205.236435,365.826141 176.171310,342.651306 
	C157.976700,328.143951 144.988831,309.815094 136.369507,287.895874 
	C135.421646,285.424500 134.763367,283.191223 133.970612,280.316284 
	C133.508804,279.474945 133.181458,279.275269 132.854126,279.075592 
	C132.854126,279.075592 132.954971,279.080688 133.022476,278.706970 
	C131.506348,265.868927 129.922729,253.404587 128.339096,240.940247 
	C140.625305,240.792648 152.911423,240.636246 165.197784,240.503143 
	C168.631561,240.465942 172.066055,240.497498 175.974197,240.497498 
	C175.974197,246.025299 175.974167,252.155426 175.974197,258.285553 
	C175.974274,273.782440 175.968491,289.279297 175.976578,304.776184 
	C175.981857,314.889679 178.117889,317.008118 188.300751,317.047913 
	C189.761215,317.053619 191.221695,317.048706 193.225922,317.048706 
	C193.225922,322.067200 193.182861,326.680084 193.235504,331.291870 
	C193.325989,339.217957 197.357422,343.206146 205.311020,343.310211 
	C206.810455,343.329834 208.310760,343.334167 209.810013,343.308289 
	C217.368973,343.177826 221.455521,339.149567 221.621826,331.514984 
	C221.722900,326.874146 221.640472,322.229309 221.640472,317.320251 
	C243.778809,317.320251 265.530762,317.320251 288.076782,317.320251 
	C288.076782,321.806610 288.037842,326.385925 288.085297,330.964355 
	C288.171112,339.242859 292.152679,343.228333 300.354645,343.311676 
	C301.854156,343.326904 303.354523,343.338165 304.853607,343.307678 
	C312.182892,343.158600 316.220734,339.281250 316.486511,331.860107 
	C316.658173,327.067139 316.518799,322.263000 316.518799,317.042053 
	C320.157379,317.042053 323.286469,317.014771 326.414886,317.048401 
	C331.135376,317.099121 333.444397,314.556458 333.857910,310.081909 
	C334.041412,308.096283 334.018799,306.087708 334.019226,304.089569 
	C334.027527,265.597351 334.025360,227.105118 334.025360,188.612900 
	C334.025360,186.796753 334.025360,184.980621 334.025360,183.069244 
	C338.191345,182.590576 339.727753,184.224945 339.681183,188.109695 
	C339.551636,198.920853 339.636169,209.734558 339.636169,220.470596 
	C349.056671,223.069061 355.846008,219.509415 354.978210,208.745300 
	C354.591125,203.944153 355.040131,199.080856 354.850220,194.255966 
	C354.774841,192.340286 354.633209,189.558914 353.430756,188.701309 
	C347.137878,184.213120 344.513885,174.243790 334.312042,176.011841 
	C330.178955,159.803253 319.182983,152.514618 303.694092,150.615845 
	C269.605896,146.436966 235.538574,146.603409 201.539459,151.363724 
	C188.963364,153.124542 180.561310,161.423050 175.785614,175.688644 
	C170.487976,176.376953 164.480957,176.218094 163.180588,183.515152 
	C163.156082,183.652618 162.994263,183.833481 162.860245,183.873886 
	C152.919144,186.872162 155.532913,195.118576 155.261383,202.125626 
	C155.151779,204.954132 155.235962,207.790466 155.245071,210.623199 
	C155.269638,218.272903 158.165848,221.190643 165.756821,221.221313 
	C167.070175,221.226624 168.383575,221.222076 170.375168,221.222076 
	C170.375168,213.213348 170.375320,205.451172 170.375092,197.688995 
	C170.375000,194.522964 170.496094,191.351013 170.342438,188.192429 
	C170.153702,184.313141 171.847473,182.665741 175.774200,183.034134 
	C175.774200,197.434006 175.774200,211.717087 175.774200,225.384277 
	C160.678360,225.384277 145.783035,225.384277 130.455109,224.870056 
	C131.806595,207.647552 137.660416,192.347641 146.086182,177.937790 
	C154.331406,175.880463 156.184830,173.160599 154.326630,165.700089 
	C162.119034,157.407562 169.639862,149.658691 177.160706,141.909821 
	C196.755905,141.777710 216.351059,141.634033 235.946350,141.519791 
	C242.758118,141.480072 249.570389,141.530090 256.382324,141.508408 
	C263.467590,141.485855 267.064758,138.869507 266.969269,133.860779 
	C266.876526,128.994400 263.440887,126.522812 256.600983,126.507797 
	C239.489197,126.470245 222.377335,126.465492 204.856323,126.258774 
z"/>
<path fill="#FBFBFB" opacity="1.000000" stroke="none" 
	d="
M276.584106,247.995575 
	C276.583466,253.457870 276.583466,258.421448 276.583466,263.756042 
	C262.014832,263.756042 247.826706,264.872833 233.898071,263.449677 
	C219.247803,261.952759 204.857956,257.961975 190.327545,255.201813 
	C186.244858,254.426254 185.081802,252.265335 185.113907,248.242966 
	C185.283951,226.934280 185.236511,205.623337 185.152908,184.313629 
	C185.138519,180.647369 185.732315,178.213196 190.228394,178.228165 
	C218.363953,178.321854 246.499969,178.281403 274.635834,178.302719 
	C275.097748,178.303055 275.559479,178.522156 276.584778,178.781952 
	C276.584778,201.647995 276.584778,224.572418 276.584106,247.995575 
z"/>
<path fill="#FFFFFF" opacity="1.000000" stroke="none" 
	d="
M48.680473,57.820656 
	C54.925705,46.086128 63.793381,37.716534 75.740776,32.740726 
	C84.333900,29.161896 93.096992,27.855263 102.590622,28.764885 
	C112.619339,29.725773 121.378853,32.876816 129.310379,38.772171 
	C138.933380,45.924751 145.571106,54.921700 149.225082,66.679085 
	C152.980179,78.761780 152.564835,90.431999 148.460464,101.887115 
	C142.624710,118.174515 130.831223,128.920273 114.606087,134.743179 
	C84.129852,145.680573 50.546261,125.199646 44.010838,94.657318 
	C41.300083,81.989029 43.048801,69.809700 48.680473,57.820656 
M117.015785,55.788734 
	C116.810410,49.464909 116.337753,48.992172 110.071991,48.985760 
	C101.253578,48.976730 92.430313,49.157234 83.618706,48.912121 
	C79.032814,48.784557 77.064812,51.073967 77.039680,55.089085 
	C76.920982,74.056267 76.917603,93.025063 77.042068,111.992172 
	C77.068626,116.039604 79.146362,118.222145 83.695534,118.090836 
	C92.506615,117.836525 101.330246,118.024101 110.148659,118.013931 
	C116.314842,118.006821 117.004463,117.336426 117.010048,111.141029 
	C117.026390,93.005043 117.015839,74.869034 117.015785,55.788734 
z"/>
<path fill="#E91C24" opacity="1.000000" stroke="none" 
	d="
M391.495148,42.494568 
	C417.770355,29.256603 447.825867,44.431107 454.356934,71.653526 
	C460.507141,97.288681 441.715973,121.947044 416.370239,125.078819 
	C392.035522,128.085678 369.840576,108.014435 367.834961,85.778679 
	C366.225555,67.935341 376.609985,49.883389 391.495148,42.494568 
z"/>
<path fill="#FAFAFA" opacity="1.000000" stroke="none" 
	d="
M286.777771,262.411072 
	C282.473572,263.510010 283.342865,260.633759 283.337463,258.673950 
	C283.299408,244.864670 283.317413,231.055252 283.317474,217.245865 
	C283.317505,204.466873 283.317474,191.687866 283.317474,178.267792 
	C293.799286,178.267792 303.883911,178.315079 313.967957,178.255280 
	C325.394135,178.187531 324.112701,178.034103 324.116364,188.612167 
	C324.123260,208.577530 324.032959,228.543594 324.194000,248.507660 
	C324.224579,252.300415 323.152283,254.360458 319.296600,255.175964 
	C308.570374,257.444611 297.891357,259.936432 286.777771,262.411072 
z"/>
<path fill="#FDD33D" opacity="1.000000" stroke="none" 
	d="
M145.697327,177.780716 
	C137.660416,192.347641 131.806595,207.647552 130.006836,224.728363 
	C119.868912,225.100876 109.746635,225.100876 98.538734,225.100876 
	C99.839142,218.360931 100.735733,211.677216 102.474770,205.220413 
	C104.608795,197.297104 107.693253,189.631119 109.868484,181.716919 
	C110.838295,178.188431 112.728912,177.465866 115.858932,177.501236 
	C125.674652,177.612137 135.491837,177.592636 145.697327,177.780716 
z"/>
<path fill="#FDD23D" opacity="1.000000" stroke="none" 
	d="
M127.866806,240.785980 
	C129.922729,253.404587 131.506348,265.868927 132.984055,278.739746 
	C124.429741,278.935059 115.979034,278.509613 107.533913,278.600891 
	C103.143875,278.648315 101.100304,277.784973 100.727821,272.718811 
	C99.959419,262.267883 98.256470,251.885666 96.831161,240.631699 
	C107.957726,240.631699 117.676117,240.631699 127.866806,240.785980 
z"/>
<path fill="#FCD13C" opacity="1.000000" stroke="none" 
	d="
M176.769913,141.753418 
	C169.639862,149.658691 162.119034,157.407562 154.282166,165.340546 
	C150.911423,164.520340 147.892700,162.806686 144.795074,162.649689 
	C136.709549,162.239960 128.589462,162.511734 118.874084,162.511734 
	C126.335281,152.500168 132.968445,143.599686 140.254822,133.822693 
	C142.538376,140.540848 146.735687,141.679398 151.959839,141.548218 
	C160.094070,141.343918 168.238831,141.559433 176.769913,141.753418 
z"/>
<path fill="#F7F7F7" opacity="1.000000" stroke="none" 
	d="
M274.575928,169.782562 
	C261.625763,169.784119 249.132462,169.597198 236.649704,169.878067 
	C231.800262,169.987198 230.830353,168.017746 230.791107,163.647552 
	C230.750916,159.172134 231.883530,157.431381 236.678711,157.548706 
	C249.160339,157.854095 261.654388,157.655945 274.143494,157.648026 
	C276.544739,157.646500 279.407562,157.519852 278.955902,160.947266 
	C278.535004,164.141144 281.679138,169.261993 274.575928,169.782562 
z"/>
<path fill="#F5F5F5" opacity="1.000000" stroke="none" 
	d="
M195.573303,290.222961 
	C194.784058,290.177856 194.453033,290.159821 194.122025,290.141632 
	C179.896500,289.359436 181.620682,289.802063 182.083466,275.139801 
	C182.157211,272.803558 183.381851,270.764648 185.810333,272.248505 
	C194.555832,277.592285 203.094330,283.275360 211.681000,288.876282 
	C211.978836,289.070526 211.957489,289.754120 212.404266,291.351257 
	C206.650650,290.964264 201.341095,290.607147 195.573303,290.222961 
z"/>
<path fill="#F5F5F5" opacity="1.000000" stroke="none" 
	d="
M319.834045,289.888824 
	C312.355347,290.384735 305.318665,290.848724 298.281982,291.312744 
	C298.061523,290.894135 297.841064,290.475525 297.620575,290.056885 
	C298.489014,289.095123 299.200714,287.891754 300.251068,287.210388 
	C307.617676,282.431458 314.980286,277.637665 322.498047,273.103821 
	C326.549042,270.660767 327.670044,271.442657 327.971497,276.209686 
	C328.076172,277.864288 328.084167,279.524750 328.152924,281.181885 
	C328.464966,288.700470 328.051147,289.158630 319.834045,289.888824 
z"/>
<path fill="#F8F8F8" opacity="1.000000" stroke="none" 
	d="
M241.286194,307.249146 
	C236.605042,306.923676 238.229538,303.658630 238.250305,301.549469 
	C238.258911,300.674225 239.967514,299.079895 240.925140,299.062927 
	C251.196808,298.881165 261.472900,298.949799 271.642334,298.949799 
	C273.557709,306.622070 273.115906,307.249084 266.172699,307.250061 
	C258.034210,307.251190 249.895706,307.251343 241.286194,307.249146 
z"/>
<path fill="#E6E6E6" opacity="1.000000" stroke="none" 
	d="
M187.825287,299.034485 
	C191.491516,300.413116 192.594437,302.746094 190.369751,305.619781 
	C189.610718,306.600250 187.247192,307.185455 186.057770,306.749115 
	C184.854141,306.307587 183.181900,303.937317 183.506470,303.190308 
	C184.226318,301.533478 186.067963,300.364044 187.825287,299.034485 
z"/>
<path fill="#FDD23D" opacity="1.000000" stroke="none" 
	d="
M132.785126,279.385223 
	C133.181458,279.275269 133.508804,279.474945 133.814606,279.997925 
	C133.434067,280.112488 133.075089,279.903656 132.785126,279.385223 
z"/>
<path fill="#090909" opacity="1.000000" stroke="none" 
	d="
M117.015808,56.260880 
	C117.015839,74.869034 117.026390,93.005043 117.010048,111.141029 
	C117.004463,117.336426 116.314842,118.006821 110.148659,118.013931 
	C101.330246,118.024101 92.506615,117.836525 83.695534,118.090836 
	C79.146362,118.222145 77.068626,116.039604 77.042068,111.992172 
	C76.917603,93.025063 76.920982,74.056267 77.039680,55.089085 
	C77.064812,51.073967 79.032814,48.784557 83.618706,48.912121 
	C92.430313,49.157234 101.253578,48.976730 110.071991,48.985760 
	C116.337753,48.992172 116.810410,49.464909 117.015808,56.260880 
M81.259758,75.501846 
	C81.259758,84.268723 81.259758,93.035599 81.259758,101.975929 
	C92.128593,101.975929 102.502045,101.975929 113.003571,101.975929 
	C113.003571,86.997375 113.003571,72.283249 113.003571,57.383144 
	C102.419609,57.383144 92.056587,57.383144 81.259766,57.383144 
	C81.259766,63.273243 81.259766,68.888115 81.259758,75.501846 
M97.400047,113.376022 
	C98.423096,112.148399 99.729362,111.036217 100.304245,109.625908 
	C100.487244,109.176979 98.729431,107.232803 97.853355,107.228386 
	C96.666817,107.222382 94.410347,108.583710 94.484138,109.080559 
	C94.703003,110.554329 95.839195,111.891861 97.400047,113.376022 
M95.503738,54.056332 
	C98.694313,54.056332 101.884880,54.056332 105.075455,54.056332 
	C105.039848,53.462959 105.004242,52.869591 104.968636,52.276218 
	C99.881538,52.276218 94.794441,52.276218 89.707336,52.276218 
	C89.670227,52.738674 89.633118,53.201134 89.596008,53.663589 
	C91.236565,53.794491 92.877113,53.925388 95.503738,54.056332 
z"/>
<path fill="#FBFBFB" opacity="1.000000" stroke="none" 
	d="
M81.259766,75.002411 
	C81.259766,68.888115 81.259766,63.273243 81.259766,57.383144 
	C92.056587,57.383144 102.419609,57.383144 113.003571,57.383144 
	C113.003571,72.283249 113.003571,86.997375 113.003571,101.975929 
	C102.502045,101.975929 92.128593,101.975929 81.259758,101.975929 
	C81.259758,93.035599 81.259758,84.268723 81.259766,75.002411 
z"/>
<path fill="#ECECEC" opacity="1.000000" stroke="none" 
	d="
M97.008392,113.329346 
	C95.839195,111.891861 94.703003,110.554329 94.484138,109.080559 
	C94.410347,108.583710 96.666817,107.222382 97.853355,107.228386 
	C98.729431,107.232803 100.487244,109.176979 100.304245,109.625908 
	C99.729362,111.036217 98.423096,112.148399 97.008392,113.329346 
z"/>
<path fill="#F4F4F4" opacity="1.000000" stroke="none" 
	d="
M95.010704,54.056313 
	C92.877113,53.925388 91.236565,53.794491 89.596008,53.663589 
	C89.633118,53.201134 89.670227,52.738674 89.707336,52.276218 
	C94.794441,52.276218 99.881538,52.276218 104.968636,52.276218 
	C105.004242,52.869591 105.039848,53.462959 105.075455,54.056332 
	C101.884880,54.056332 98.694313,54.056332 95.010704,54.056313 
z"/>
</svg>