<svg version="1.1" id="Layer_1" xmlns="http://www.w3.org/2000/svg" xmlns:xlink="http://www.w3.org/1999/xlink" x="0px" y="0px"
	 width="100%" viewBox="0 0 558 555" enable-background="new 0 0 558 555" xml:space="preserve">
<path fill="#000000" opacity="1.000000" stroke="none" 
	d="
M550.000000,556.000000 
	C373.641754,556.000000 197.283524,556.000000 20.462568,555.532166 
	C19.999857,473.072662 19.995016,391.081024 20.033199,309.089386 
	C20.033995,307.383514 20.532827,305.677917 20.887989,304.425171 
	C21.312277,308.796631 21.351730,312.767853 22.038244,316.623901 
	C24.224596,328.904388 25.847788,341.367035 29.198097,353.336761 
	C33.011864,366.962311 37.837353,380.393921 43.378681,393.418152 
	C47.728725,403.642456 53.836468,413.118927 59.092831,423.399109 
	C59.022285,440.139648 59.022285,456.408691 59.022285,472.845490 
	C72.416176,472.845490 85.368599,472.845490 98.568649,473.059143 
	C112.848312,485.770782 126.460388,498.908264 143.126373,507.915558 
	C158.196930,516.060608 173.409241,524.093689 189.132507,530.839539 
	C205.694946,537.945312 223.172180,542.577332 241.124741,545.071228 
	C249.998138,546.303894 258.823822,548.512390 267.719391,548.803650 
	C280.786194,549.231384 293.973724,549.106934 306.967194,547.800049 
	C321.329926,546.355347 335.708710,544.064758 349.756836,540.764893 
	C365.614044,537.040100 381.124512,531.913208 396.044067,525.081909 
	C424.364502,512.114685 449.175415,494.178436 472.170868,472.917297 
	C485.403961,472.989197 498.144592,472.989197 510.839172,472.989197 
	C510.839172,455.863037 510.839172,439.391663 511.011230,422.610168 
	C533.399109,385.923615 546.076050,346.482422 549.557190,304.213440 
	C549.942505,306.283447 549.996399,308.112244 549.996460,309.941040 
	C550.000549,391.960693 550.000000,473.980347 550.000000,556.000000 
z"/>
<path fill="#FFFFFF" opacity="1.000000" stroke="none" 
	d="
M20.799320,303.972198 
	C20.532827,305.677917 20.033995,307.383514 20.033199,309.089386 
	C19.995016,391.081024 19.999857,473.072662 19.999929,555.532166 
	C13.668458,556.000000 7.336916,556.000000 1.004030,556.000000 
	C1.002687,371.054108 1.002687,186.108231 1.002687,1.081171 
	C186.893265,1.081171 372.786560,1.081171 558.839966,1.081171 
	C558.839966,185.999878 558.839966,370.999939 558.839966,556.000000 
	C556.311462,556.000000 553.645569,556.000000 550.489868,556.000000 
	C550.000000,473.980347 550.000549,391.960693 549.996460,309.941040 
	C549.996399,308.112244 549.942505,306.283447 549.501465,303.766693 
	C549.125122,290.061157 549.161133,277.043579 549.554565,263.786743 
	C549.941162,262.882233 549.995972,262.216949 549.996033,261.551666 
	C549.999878,181.726440 550.000427,101.901215 549.992310,22.075991 
	C549.992188,21.132448 549.878845,20.188915 549.811218,19.134087 
	C548.844666,19.076969 548.204224,19.006012 547.563782,19.005968 
	C467.905212,19.000624 388.246643,18.996971 308.588104,19.033474 
	C307.383240,19.034025 306.178680,19.535210 304.526489,19.856018 
	C291.061310,19.873798 278.043671,19.838312 264.786743,19.445431 
	C263.882202,19.058813 263.216949,19.004030 262.551666,19.003998 
	C182.726425,19.000137 102.901184,18.999702 23.075943,19.007820 
	C22.132408,19.007917 21.188887,19.121195 20.134077,19.188768 
	C20.077005,20.154608 20.006014,20.795433 20.005972,21.436262 
	C20.000620,101.094849 19.996967,180.753433 20.033476,260.411987 
	C20.034029,261.616791 20.535307,262.821320 20.856106,264.473480 
	C20.872646,277.938049 20.835983,290.955139 20.799320,303.972198 
z"/>
<path fill="#FFCA19" opacity="1.000000" stroke="none" 
	d="
M265.026001,19.802826 
	C278.043671,19.838312 291.061310,19.873798 304.957764,19.943165 
	C318.329895,21.986952 330.995087,23.275940 343.269745,26.202894 
	C356.404327,29.334915 369.504120,33.184479 382.010254,38.229973 
	C396.330109,44.007172 409.980042,51.444775 424.128326,58.425797 
	C445.544922,71.957680 465.104248,87.323914 481.298157,106.435402 
	C491.764923,118.787918 501.032074,132.156921 510.918213,145.425842 
	C521.492249,163.393921 530.356995,181.761063 536.698792,201.294373 
	C543.328125,221.713379 547.684326,242.586823 549.197144,264.026001 
	C549.161133,277.043579 549.125122,290.061157 549.144897,303.525452 
	C546.076050,346.482422 533.399109,385.923615 510.745972,422.817688 
	C504.863525,431.089447 499.737000,439.093903 493.891571,446.533478 
	C486.804413,455.553375 479.110016,464.096191 471.678406,472.845428 
	C449.175415,494.178436 424.364502,512.114685 396.044067,525.081909 
	C381.124512,531.913208 365.614044,537.040100 349.756836,540.764893 
	C335.708710,544.064758 321.329926,546.355347 306.967194,547.800049 
	C293.973724,549.106934 280.786194,549.231384 267.719391,548.803650 
	C258.823822,548.512390 249.998138,546.303894 241.124741,545.071228 
	C223.172180,542.577332 205.694946,537.945312 189.132507,530.839539 
	C173.409241,524.093689 158.196930,516.060608 143.126373,507.915558 
	C126.460388,498.908264 112.848312,485.770782 98.394440,472.762024 
	C85.036201,455.810059 72.099792,439.368835 59.163376,422.927612 
	C53.836468,413.118927 47.728725,403.642456 43.378681,393.418152 
	C37.837353,380.393921 33.011864,366.962311 29.198097,353.336761 
	C25.847788,341.367035 24.224596,328.904388 22.038244,316.623901 
	C21.351730,312.767853 21.312277,308.796631 20.887989,304.425171 
	C20.835983,290.955139 20.872646,277.938049 20.943104,264.023376 
	C21.312969,259.707672 21.462223,256.258850 22.018682,252.876984 
	C24.020662,240.710144 25.257248,228.324081 28.434238,216.463135 
	C35.188282,191.247620 45.297817,167.314774 59.425797,144.871613 
	C72.957718,123.455063 88.323936,103.895737 107.435463,87.701866 
	C119.787987,77.235123 133.156952,67.967949 146.379242,57.994709 
	C147.294403,57.268429 147.816376,56.553780 148.519394,56.175823 
	C166.356537,46.586094 184.443741,37.736710 203.971649,31.795803 
	C223.977600,25.709473 244.275452,21.768953 265.026001,19.802826 
M162.762070,472.166748 
	C163.772156,472.995850 164.707993,473.942078 165.803482,474.636475 
	C181.812958,484.784485 198.682083,493.017120 216.844147,498.710815 
	C238.344101,505.450836 260.321167,508.902924 282.769104,509.337280 
	C300.424194,509.678955 317.833374,507.333771 335.073608,503.542603 
	C363.944000,497.193939 390.279633,485.257507 414.914948,467.885956 
	C438.179291,451.312042 457.822052,431.242676 473.391296,407.250549 
	C493.205750,376.716644 505.010529,343.293762 508.897400,307.151611 
	C510.969116,287.888031 510.185913,268.691650 507.221161,249.461197 
	C501.569519,212.802826 487.569244,179.772491 465.846497,149.881134 
	C451.627014,130.314590 434.485046,113.515213 414.720764,99.799911 
	C382.759674,77.620728 347.205688,64.281998 308.399841,60.069267 
	C279.967834,56.982712 251.905869,59.576660 224.480515,67.240540 
	C195.268341,75.403732 168.608200,88.892052 144.726334,107.852165 
	C127.629311,121.425705 112.794128,137.145035 100.393600,154.918289 
	C86.991432,174.127167 76.251511,194.977341 70.129311,217.703018 
	C66.226715,232.189468 63.256737,247.020355 61.176624,261.879913 
	C58.818199,278.727631 59.559341,295.721283 61.890545,312.645844 
	C64.273659,329.947388 67.976677,346.920013 74.242950,363.200439 
	C89.895584,403.867554 114.798317,437.730286 149.731644,463.987305 
	C153.636703,466.922485 158.004013,469.242706 162.762070,472.166748 
z"/>
<path fill="#FFFFFD" opacity="1.000000" stroke="none" 
	d="
M59.092831,423.399109 
	C72.099792,439.368835 85.036201,455.810059 98.146820,472.548401 
	C85.368599,472.845490 72.416176,472.845490 59.022285,472.845490 
	C59.022285,456.408691 59.022285,440.139648 59.092831,423.399109 
z"/>
<path fill="#FFFFFD" opacity="1.000000" stroke="none" 
	d="
M472.170868,472.917297 
	C479.110016,464.096191 486.804413,455.553375 493.891571,446.533478 
	C499.737000,439.093903 504.863525,431.089447 510.573914,423.127808 
	C510.839172,439.391663 510.839172,455.863037 510.839172,472.989197 
	C498.144592,472.989197 485.403961,472.989197 472.170868,472.917297 
z"/>
<path fill="#000000" opacity="1.000000" stroke="none" 
	d="
M549.554504,263.786743 
	C547.684326,242.586823 543.328125,221.713379 536.698792,201.294373 
	C530.356995,181.761063 521.492249,163.393921 510.988586,144.953918 
	C510.977509,115.553581 510.977509,86.980606 510.977509,58.333355 
	C510.184235,58.180241 509.724823,58.013454 509.265686,58.014103 
	C480.817444,58.054359 452.369263,58.108299 423.921051,58.160980 
	C409.980042,51.444775 396.330109,44.007172 382.010254,38.229973 
	C369.504120,33.184479 356.404327,29.334915 343.269745,26.202894 
	C330.995087,23.275940 318.329895,21.986952 305.405273,19.889898 
	C306.178680,19.535210 307.383240,19.034025 308.588104,19.033474 
	C388.246643,18.996971 467.905212,19.000624 547.563782,19.005968 
	C548.204224,19.006012 548.844666,19.076969 549.811218,19.134087 
	C549.878845,20.188915 549.992188,21.132448 549.992310,22.075991 
	C550.000427,101.901215 549.999878,181.726440 549.996033,261.551666 
	C549.995972,262.216949 549.941162,262.882233 549.554504,263.786743 
z"/>
<path fill="#000000" opacity="1.000000" stroke="none" 
	d="
M264.786743,19.445431 
	C244.275452,21.768953 223.977600,25.709473 203.971649,31.795803 
	C184.443741,37.736710 166.356537,46.586094 148.519394,56.175823 
	C147.816376,56.553780 147.294403,57.268429 145.907318,57.924347 
	C116.553596,58.022495 87.980629,58.022495 59.160969,58.022495 
	C59.160969,87.280731 59.160969,116.179802 59.160969,145.078873 
	C45.297817,167.314774 35.188282,191.247620 28.434238,216.463135 
	C25.257248,228.324081 24.020662,240.710144 22.018682,252.876984 
	C21.462223,256.258850 21.312969,259.707672 20.889900,263.575867 
	C20.535307,262.821320 20.034029,261.616791 20.033476,260.411987 
	C19.996967,180.753433 20.000620,101.094849 20.005972,21.436262 
	C20.006014,20.795433 20.077005,20.154608 20.134077,19.188768 
	C21.188887,19.121195 22.132408,19.007917 23.075943,19.007820 
	C102.901184,18.999702 182.726425,19.000137 262.551666,19.003998 
	C263.216949,19.004030 263.882202,19.058813 264.786743,19.445431 
z"/>
<path fill="#FFFFFF" opacity="1.000000" stroke="none" 
	d="
M162.156952,471.848083 
	C158.004013,469.242706 153.636703,466.922485 149.731644,463.987305 
	C114.798317,437.730286 89.895584,403.867554 74.242950,363.200439 
	C67.976677,346.920013 64.273659,329.947388 61.890545,312.645844 
	C59.559341,295.721283 58.818199,278.727631 61.176624,261.879913 
	C63.256737,247.020355 66.226715,232.189468 70.129311,217.703018 
	C76.251511,194.977341 86.991432,174.127167 100.393600,154.918289 
	C112.794128,137.145035 127.629311,121.425705 144.726334,107.852165 
	C168.608200,88.892052 195.268341,75.403732 224.480515,67.240540 
	C251.905869,59.576660 279.967834,56.982712 308.399841,60.069267 
	C347.205688,64.281998 382.759674,77.620728 414.720764,99.799911 
	C434.485046,113.515213 451.627014,130.314590 465.846497,149.881134 
	C487.569244,179.772491 501.569519,212.802826 507.221161,249.461197 
	C510.185913,268.691650 510.969116,287.888031 508.897400,307.151611 
	C505.010529,343.293762 493.205750,376.716644 473.391296,407.250549 
	C457.822052,431.242676 438.179291,451.312042 414.557495,467.560852 
	C417.055420,454.753510 418.281372,442.234528 417.277985,429.341797 
	C415.292114,403.825378 407.135773,380.704498 391.360565,360.618652 
	C362.678528,324.099091 324.889740,307.140808 278.508301,309.878662 
	C251.173050,311.492218 226.764542,321.170319 205.796051,338.725250 
	C172.029739,366.994568 156.266418,403.321686 158.906021,447.354004 
	C159.397598,455.554199 161.043671,463.685181 162.156952,471.848083 
M214.934311,204.359482 
	C212.849915,213.391403 214.457825,222.260452 216.749756,230.911224 
	C226.337616,267.099762 260.782104,289.471710 297.955383,283.925629 
	C336.913116,278.113281 364.439636,239.923096 357.892334,200.769394 
	C350.173615,154.610611 301.258453,127.532211 258.454071,146.056519 
	C233.337860,156.925995 218.844940,176.288101 214.934311,204.359482 
z"/>
<path fill="#000000" opacity="1.000000" stroke="none" 
	d="
M162.459503,472.007416 
	C161.043671,463.685181 159.397598,455.554199 158.906021,447.354004 
	C156.266418,403.321686 172.029739,366.994568 205.796051,338.725250 
	C226.764542,321.170319 251.173050,311.492218 278.508301,309.878662 
	C324.889740,307.140808 362.678528,324.099091 391.360565,360.618652 
	C407.135773,380.704498 415.292114,403.825378 417.277985,429.341797 
	C418.281372,442.234528 417.055420,454.753510 414.229340,467.634613 
	C390.279633,485.257507 363.944000,497.193939 335.073608,503.542603 
	C317.833374,507.333771 300.424194,509.678955 282.769104,509.337280 
	C260.321167,508.902924 238.344101,505.450836 216.844147,498.710815 
	C198.682083,493.017120 181.812958,484.784485 165.803482,474.636475 
	C164.707993,473.942078 163.772156,472.995850 162.459503,472.007416 
z"/>
<path fill="#FFFFFE" opacity="1.000000" stroke="none" 
	d="
M59.425797,144.871613 
	C59.160969,116.179802 59.160969,87.280731 59.160969,58.022495 
	C87.980629,58.022495 116.553596,58.022495 145.598511,58.092857 
	C133.156952,67.967949 119.787987,77.235123 107.435463,87.701866 
	C88.323936,103.895737 72.957718,123.455063 59.425797,144.871613 
z"/>
<path fill="#FFFFFE" opacity="1.000000" stroke="none" 
	d="
M424.128326,58.425797 
	C452.369263,58.108299 480.817444,58.054359 509.265686,58.014103 
	C509.724823,58.013454 510.184235,58.180241 510.977509,58.333355 
	C510.977509,86.980606 510.977509,115.553581 510.907166,144.598480 
	C501.032074,132.156921 491.764923,118.787918 481.298157,106.435402 
	C465.104248,87.323914 445.544922,71.957680 424.128326,58.425797 
z"/>
<path fill="#010101" opacity="1.000000" stroke="none" 
	d="
M214.955200,203.915619 
	C218.844940,176.288101 233.337860,156.925995 258.454071,146.056519 
	C301.258453,127.532211 350.173615,154.610611 357.892334,200.769394 
	C364.439636,239.923096 336.913116,278.113281 297.955383,283.925629 
	C260.782104,289.471710 226.337616,267.099762 216.749756,230.911224 
	C214.457825,222.260452 212.849915,213.391403 214.955200,203.915619 
z"/>
</svg>