<?xml version="1.0" standalone="no"?>
<!DOCTYPE svg PUBLIC "-//W3C//DTD SVG 20010904//EN"
 "http://www.w3.org/TR/2001/REC-SVG-20010904/DTD/svg10.dtd">
<svg version="1.0" xmlns="http://www.w3.org/2000/svg"
 width="500.000000pt" height="500.000000pt" viewBox="0 0 500.000000 500.000000"
 preserveAspectRatio="xMidYMid meet">

<g transform="translate(0.000000,500.000000) scale(0.100000,-0.100000)"
fill="#000000" stroke="none">
<path d="M885 4791 c-139 -20 -250 -75 -350 -175 -74 -74 -129 -160 -161 -256
-29 -85 -27 -273 4 -362 36 -105 81 -177 152 -248 128 -128 283 -187 465 -177
114 7 167 21 264 72 130 68 237 198 287 348 37 108 39 255 6 361 -66 206 -217
357 -417 415 -82 23 -179 32 -250 22z m224 -78 c183 -50 323 -189 386 -383 24
-74 24 -226 0 -300 -109 -335 -471 -492 -782 -340 -77 38 -188 144 -230 220
-96 173 -90 403 15 566 134 207 378 301 611 237z"/>
<path d="M776 4498 c-24 -33 -24 -613 0 -646 15 -21 21 -22 188 -22 120 0 176
4 184 12 17 17 17 649 0 666 -8 8 -64 12 -184 12 -167 0 -173 -1 -188 -22z
m264 -18 c0 -6 -31 -10 -74 -10 -41 0 -78 5 -81 10 -4 6 23 10 74 10 47 0 81
-4 81 -10z m80 -265 l0 -225 -160 0 -160 0 0 225 0 225 160 0 160 0 0 -225z
m-132 -292 c13 -26 4 -43 -24 -43 -29 0 -41 24 -24 45 17 20 37 19 48 -2z"/>
<path d="M4020 4760 c-119 -17 -224 -72 -316 -164 -114 -114 -167 -241 -167
-401 0 -160 53 -287 167 -401 114 -114 241 -167 401 -167 160 0 287 53 401
167 114 114 167 241 167 401 0 160 -53 287 -167 401 -130 130 -308 190 -486
164z m47 -136 c-3 -3 -12 -4 -19 -1 -8 3 -5 6 6 6 11 1 17 -2 13 -5z m96 -1
c-7 -2 -19 -2 -25 0 -7 3 -2 5 12 5 14 0 19 -2 13 -5z m228 -100 c13 -16 12
-17 -3 -4 -10 7 -18 15 -18 17 0 8 8 3 21 -13z m50 -50 c13 -16 12 -17 -3 -4
-17 13 -22 21 -14 21 2 0 10 -8 17 -17z m-764 -235 c-3 -8 -6 -5 -6 6 -1 11 2
17 5 13 3 -3 4 -12 1 -19z m860 0 c-3 -8 -6 -5 -6 6 -1 11 2 17 5 13 3 -3 4
-12 1 -19z m-860 -100 c-3 -7 -5 -2 -5 12 0 14 2 19 5 13 2 -7 2 -19 0 -25z
m860 0 c-3 -7 -5 -2 -5 12 0 14 2 19 5 13 2 -7 2 -19 0 -25z m-756 -225 c13
-16 12 -17 -3 -4 -17 13 -22 21 -14 21 2 0 10 -8 17 -17z m669 13 c0 -2 -8
-10 -17 -17 -16 -13 -17 -12 -4 4 13 16 21 21 21 13z m-619 -63 c13 -16 12
-17 -3 -4 -17 13 -22 21 -14 21 2 0 10 -8 17 -17z m569 13 c0 -2 -8 -10 -17
-17 -16 -13 -17 -12 -4 4 13 16 21 21 21 13z m-333 -112 c-3 -3 -12 -4 -19 -1
-8 3 -5 6 6 6 11 1 17 -2 13 -5z m96 -1 c-7 -2 -19 -2 -25 0 -7 3 -2 5 12 5
14 0 19 -2 13 -5z"/>
<path d="M2190 3520 c-207 -20 -270 -39 -349 -106 -41 -36 -72 -85 -84 -135
-6 -22 -14 -27 -47 -32 -46 -6 -68 -21 -81 -54 -5 -13 -20 -27 -33 -33 -47
-18 -56 -45 -56 -173 0 -158 16 -186 103 -187 l47 0 0 178 c0 184 4 202 42
202 17 0 18 -35 20 -651 l3 -651 24 -19 c17 -14 39 -19 81 -19 l58 0 4 -101
c3 -99 3 -101 36 -130 29 -26 39 -29 105 -29 117 0 147 37 147 180 l0 80 329
0 329 0 4 -101 c3 -99 3 -101 36 -130 29 -26 39 -29 106 -29 117 0 146 37 146
188 l0 72 63 0 c34 0 67 4 73 8 33 21 34 50 34 691 0 611 1 641 18 641 38 0
42 -18 42 -202 l0 -178 48 0 c87 1 102 29 102 188 0 106 -2 122 -21 146 -11
14 -26 26 -34 26 -7 0 -22 16 -34 35 -21 36 -54 55 -96 55 -19 0 -26 7 -31 28
-13 51 -43 100 -85 136 -105 90 -193 105 -634 111 -176 2 -363 0 -415 -5z
m588 -144 c2 -32 -1 -52 -10 -57 -15 -10 -428 -12 -452 -3 -12 4 -16 20 -16
53 0 26 3 51 7 55 4 3 110 5 237 4 l231 -3 3 -49z m440 -158 c9 -9 12 -106 12
-376 l0 -363 -35 -15 c-55 -23 -228 -62 -355 -81 -156 -23 -446 -23 -600 1
-119 18 -352 71 -382 87 -17 9 -18 37 -18 374 0 336 1 365 18 374 26 16 1344
15 1360 -1z m-1293 -975 c99 -57 185 -120 185 -135 0 -12 -240 -1 -277 13 -21
8 -23 15 -23 82 0 106 2 106 115 40z m1343 -36 c3 -73 2 -78 -20 -86 -39 -15
-278 -25 -278 -12 0 23 252 184 280 179 12 -3 16 -20 18 -81z m-1378 -201 c6
-8 10 -25 8 -38 -4 -30 -46 -38 -65 -12 -17 23 -16 29 3 48 19 20 38 20 54 2z
m820 -26 l0 -40 -170 0 -170 0 0 33 c0 19 3 37 7 40 3 4 80 7 170 7 l163 0 0
-40z"/>
</g>
</svg>
